<?xml version="1.0" standalone="no"?>
<!DOCTYPE svg PUBLIC "-//W3C//DTD SVG 1.1//EN" "http://www.w3.org/Graphics/SVG/1.1/DTD/svg11.dtd" >
<svg>
<metadata>
Created by FontForge 20090622 at Sun Sep 10 18:38:17 2017
 By deploy user
&#194;&#169; 2001 Ray Larabie. This font is freeware. Read attached text file for details. Info &#38; updates visit www.larabiefonts.com. Donations gratefully accepted at www.larabiefonts.com/donation.html. Also visit my commercial type foundry at www.typodermic.com. This font was updated in 2004.
</metadata>
<defs>
<font id="Degrassi" horiz-adv-x="534" >
  <font-face 
    font-family="Degrassi"
    font-weight="400"
    font-stretch="normal"
    units-per-em="1000"
    panose-1="2 0 0 0 0 0 0 0 0 0"
    ascent="800"
    descent="-200"
    x-height="738"
    cap-height="739"
    bbox="-226 -308 1593 961"
    underline-thickness="50"
    underline-position="-75"
    unicode-range="U+000C-U+2122"
  />
<missing-glyph horiz-adv-x="225" 
 />
    <glyph glyph-name=".notdef" horiz-adv-x="225" 
 />
    <glyph glyph-name="caron" horiz-adv-x="425" 
d="M-94 845l33 32l-10 6h567l-23 -14l-24 -24l-273 -167zM211 754l149 91h-296z" />
    <glyph glyph-name="dotlessi" unicode="&#xd;" 
d="M413 427l-24 -270l21 41l34 39l70 -49l-55 -226h-6l-32 -32h-389l-15 227l33 32l-1 5l75 45l17 -50l23 256l6 66l-24 -46l-3 2l-33 -33l-65 45l55 222l30 30l2 8h395l15 -232l-38 -33l-70 -42l-16 47l-4 -52h-1zM198 67h-39l-20 11l-36 104l-15 -9l12 -173h329l42 172
l-13 9l-54 -104l-22 -11h-38l33 379h-146zM379 465l14 169h39l21 -11l35 -104l15 9l-12 172l-329 1l-42 -172l13 -9l55 104l22 11h39l-16 -170h146z" />
    <glyph glyph-name="exclam" unicode="!" horiz-adv-x="435" 
d="M56 187l32 36l14 17l32 357v1q0 6 -75 29l5 77l31 31l1 7q187 0 324 58l61 -64l-90 -83l-22 -246l-11 -135l5 -12l39 -41l-9 -95l-10 -121l-10 -4l-28 -29l-156 -74l-150 77l11 117h-1zM204 629l-16 -184h147l20 227l72 66l-16 17q-122 -51 -279 -51l-1 -17
q73 -23 73 -54v-4zM356 128l-116 61l-120 -58l-9 -103l113 -58l123 58zM123 179l121 50l117 -49l2 26l-33 35l-11 23l14 161h-147l-14 -159l-14 -27l-33 -33z" />
    <glyph glyph-name="quotedbl" unicode="&#x22;" horiz-adv-x="440" 
d="M90 554q0 76 -33 190l32 32q0 2 -0.5 3t-0.5 3h385q-17 -162 -118 -341h-5l-32 -32h-82l-18 21l-21 -21h-122q15 94 15 145zM271 479h61q87 156 99 265h-292q21 -74 21 -155q0 -53 -9 -110h61q43 76 72 197q-1 -63 -4.5 -111.5t-8.5 -85.5z" />
    <glyph glyph-name="dollar" unicode="$" horiz-adv-x="733" 
d="M369 429v2q0 7 3 15.5t9 15.5l1 2q-9 -5 -15 -11.5t-12 -14.5h1l-6 -9h19zM631 497h11v-68h-3l-32 -379h-6l-32 -32h-159l-6 -76h-6l-32 -32h-158l13 148l31 31l1 7l-44 47l-36 -91h-5l-32 -32h-93l22 253l11 11l-16 19l84 183l-94 27l5 75l31 31l1 7h183l7 76l31 31l1 7
h162l248 19l54 -47zM598 391h-204l-6 -69h102l-14 -161l-100 112h-244l-16 -183h31l65 165l14 -4l150 -163h196zM476 548l27 40h-380l-1 -14l95 -26l-3 -38l-77 -166l20 -22h211l6 69h-91l40 67q28 48 69.5 68t83.5 22zM723 706l-16 14l-223 -19l-1 -14l76 -16q6 -2 6 -6
q0 -3 -1 -4l-122 -188q-3 -3 -3 -7q0 -25 162 -25l1 18h-9q-21 0 -21 12q0 6 6 15zM430 702h-86l-7 -80h86zM376 58h-88l-7 -78h88z" />
    <glyph glyph-name="percent" unicode="%" horiz-adv-x="950" 
d="M382 508l7 6l-34 35l-6 -6zM624 121l7 7l-33 34l-6 -6zM306 274h-88l-161 175l33 33l-2 2l112 103l-77 47l5 67l31 31l1 7h371l124 -132l138 132h237l-356 -343h88l164 -178l-147 -135l80 -48l-5 -72h-6l-32 -32h-367l-123 128l-102 -96l-33 -32h-241l32 30h-4zM628 582
l-113 119h-319l-1 -13l90 -55l-2 -22l-141 -129l127 -138h102zM386 120l113 -119h319l1 13l-90 55l2 22l141 129l-127 138h-102zM73 0l139 1l317 306l-62 68zM544 322l393 379h-129l-326 -311zM295 545l97 89l84 -89l-96 -91zM720 157l-98 -89l-83 89l96 91z" />
    <glyph glyph-name="ampersand" unicode="&#x26;" horiz-adv-x="668" 
d="M602 63l31.5 -47.5t39.5 -53.5h-9l-32 -32h-203l-15.5 23.5t-13.5 22.5l-106 -47l-136 59l-98 44q-44 36 -44 78q0 17 7 33.5t22 31.5l17 17q17 28 57 49l40 21h-47q-49 7 -49 47q0 13 19 38.5t44.5 53.5l51.5 54.5l40 41.5l-106 -38l-38 72l32 32l-1 4l255 191l162 -146
l-183 -195h277l-7 -102q-2 0 -3.5 -0.5t-3.5 -0.5l-31 -31q-8 -1 -15 -1t-14 -1q2 -27 5 -52.5t9 -48.5l51 19l56 -92l-11 -5l-29 -29zM429 112l-105 50l-79 -124l84 -36l123 54q7 -15 15 -29l16 -27h114q-16 21 -30 45t-25 51l65 28l-17 28l-60 -22q-14 45 -20.5 94
t-6.5 106q16 13 33.5 17t36.5 5l2 27h-324l217 231l-110 99l-204 -153l10 -19l142 52q9 3 16 3q8 0 13 -6v-1q0 -17 -189 -221q-13 -13 -13 -20q0 -9 19 -12h225l-241 -125q-26 -13 -38 -29t-12 -33q0 -26 27 -48l114 -51l79 124l-79 38l165 81q12 -103 37 -177z" />
    <glyph glyph-name="quotesingle" unicode="'" horiz-adv-x="403" 
d="M94 744l31 31l1 7h327q-101 -231 -231 -344l-6 -4l-15 -14.5l-15 -13.5l-106 3l-28 55q30 42 49.5 86t30.5 90l-44 19zM116 479l93 -3q109 96 185 268h-232l-2 -28l47 -20q-18 -115 -91 -217z" />
    <glyph glyph-name="comma" unicode="," horiz-adv-x="403" 
d="M43 143l31 31l1 7h326q-51 -118 -109 -203t-123 -141l-6 -4l-15 -14.5l-15 -13.5l-106 3l-28 55q31 45 50.5 88.5t29.5 87.5l-45 19zM63 -122l93 -3q110 95 186 268h-232l-3 -28l47 -20q-17 -112 -91 -217z" />
    <glyph glyph-name="hyphen" unicode="-" horiz-adv-x="433" 
d="M438 355l-41 -124h-5l-32 -32h-344l39 118l30 30l3 8h350zM115 317l-16 -48h271l16 48h-271z" />
    <glyph glyph-name="period" unicode="." horiz-adv-x="382" 
d="M17 123l32 31v6l159 75l153 -78l-13 -147l-10 -5l-28 -28l-160 -77l-146 74zM76 32l109 -58l127 61l9 100l-113 58l-123 -58z" />
    <glyph glyph-name="slash" unicode="/" horiz-adv-x="516" 
d="M95 -95l-4 3l-32 -33l-126 82l497 763l34 40l132 -86zM543 663l-68 44l-459 -705l68 -44z" />
    <glyph glyph-name="zero" unicode="0" horiz-adv-x="882" 
d="M428 278l87 -94l110 102l-219 238l-110 -102l133 -143zM156 701l31 31l1 7h372l377 -408l-401 -369l-34 -32h-132l-182 199l-206 225l33 33l-2 2l215 198l-77 47zM242 425l201 184l270 -293l-200 -186l-126 137l-114 -105l148 -162h102l360 333l-340 368h-319l-1 -13
l90 -55l-2 -22l-244 -224l193 -211l115 105z" />
    <glyph glyph-name="one" unicode="1" horiz-adv-x="434" 
d="M374 -71l-28 -26l-35 -31q-63 28 -140 43t-172 16l5 77l32 31v6q16 4 28 8t22 7l48 547l-75 39l9 68l31 31l1 7l255 26l43 -42l-60 -692l75 -81zM206 654l-47 -536h147l53 604l-17 16l-208 -21l-2 -16l66 -34q8 -4 8 -11v-2zM359 -35l-60 66l6 67h-147l-3 -24
q-1 -34 -83 -58l-1 -15q155 -1 269 -53z" />
    <glyph glyph-name="two" unicode="2" horiz-adv-x="731" 
d="M759 739l-6 -83l-8 -2l-30 -30l-60 -16l26 -138q-4 -2 -10 -4l-29 -29q-63 -25 -117 -49.5t-96 -49t-70.5 -49t-40.5 -49.5v-1q0 -6 -2.5 -9.5t-10.5 -20.5l1 -1q-7 -18 -9.5 -32.5t-2.5 -27.5q0 -14 3 -24h199l48 145l30 30l3 8h97l-30 -345h-6l-32 -32h-541
q-14 39 -21.5 74t-7.5 65q0 35 6.5 68t19.5 65l-6 2l14.5 20l17.5 25l23 23q2 4 5 7t6 8l3 -1q51 56 123.5 106t169.5 97l-8 33q-42 63 -122 69l-42 -130h-5l-32 -32h-86v272l17 38h619zM180 701v-202h39l53 162h38q112 0 168 -90l23 -87q-276 -116 -350 -221l126 -25
q2 4 3 8t3 8q50 115 355 239l-23 130l3 38l99 26l1 14h-538zM269 218l-130 27q-18 -31 -25.5 -70.5t-7.5 -70.5q0 -26 5 -52t14 -52h484l24 269h-29l-60 -183h-269q-19 23 -19 62q0 32 13 70z" />
    <glyph glyph-name="three" unicode="3" horiz-adv-x="725" 
d="M128 732l31 31l1 7l280 20l39 -43l14 11l228 -196l-53 -72q-3 0 -4 1l-30 -30q31 -41 31 -61q0 -10 -2.5 -19.5t-16.5 -17.5l1 -1l-28 -24q-5 -5 -9 -7l-48 -30l81 -60q31 -17 46 -40.5t15 -47.5q0 -25 -15 -47.5t-41 -40.5l-12 -12q-12 -12 -24 -20l-42 -21l-250 -121
l-305 230l22 250l31 31l1 9l184 -133l10 10l-4 3l133 77l-60 59l-23 -23q-115 0 -171.5 15.5t-56.5 44.5q0 10 2 15t7 11l99 153l-66 14zM435 739l-11 12l-228 -17l-1 -14l76 -16q6 -2 6 -6q0 -3 -1 -4l-122 -188q-3 -5 -3 -7q0 -25 161 -25l2 18h-9q-21 0 -21 12q0 5 5 15
l29 43l165 -165q6 -6 6 -11q0 -7 -12 -13l-149 -87l206 -162l-30 -17l56 -43l68 33q38 25 38 56q0 14 -10 28.5t-31 25.5l-136 103l136 85q2 1 2 5q0 29 -131 160q-8 8 -8 17q0 3 1.5 7t7.5 4q27 0 158 -51l14 19l-178 153l-155 -120zM87 172l249 -205l203 87l-54 42
l-26 -14l-357 259z" />
    <glyph glyph-name="four" unicode="4" horiz-adv-x="696" 
d="M297 414q0 -17 21 -27t45 -12l16 180q-2 -4 -8 -12l-27 -44l-11.5 -18t-8 -13t-6.5 -12t-7 -13l-10 -15q-4 -7 -4 -14zM710 655l-28 -28l-46 -22l-46 -523h29v-97q-2 0 -4 -0.5t-4 -0.5l-30 -31q-84 -17 -166.5 -40t-166.5 -54v100l32 32v5l52 33l18 190q-20 -2 -39 -3
t-38 -1q-50 0 -93 6t-74.5 22.5t-49 44t-17.5 71.5q0 31 11.5 60.5t27.5 56.5t34 50.5l31 41.5q3 10 11 32l17 17h-2q-5 0 -19.5 1.5t-42.5 6.5l6 101l31 31l1 7l219 -26q15 -8 26 -15t19 -16l14 18l46 36l255 -25v-76zM611 651l72 34l1 16l-204 21l-20 -16l-31 -351
q-8 -9 -22.5 -13.5t-31.5 -4.5q-19 0 -39.5 5t-37.5 15t-28 24.5t-11 32.5q0 11 7 27t16.5 33t19.5 32t16 25l-109 55q-6 -16 -22 -36l-33.5 -44t-31 -52t-13.5 -60q0 -38 18 -59.5t46.5 -32.5t64 -14t70.5 -3q30 0 59.5 3t56.5 8l-24 -270l-82 -51v-31q118 43 263 72v28h-8
q-11 4 -23 17l51 577q1 8 10 13zM221 603l109 -54l9 15q24 38 36.5 61t12.5 38q0 13 -8.5 21.5t-26.5 16.5l-172 21l-2 -32q34 -5 48.5 -13.5t14.5 -23.5q0 -11 -5.5 -22.5t-15.5 -27.5z" />
    <glyph glyph-name="five" unicode="5" horiz-adv-x="751" 
d="M443 192q0 31 -6 69h-61l67 -74v5zM434 571q-15 -5 -27.5 -10.5t-23.5 -12.5l-50 -110h54q-14 10 -14 26q0 10 2 15t7 11zM777 746l-144 -216h15l-9 -94h-6l-16 -16l9 -6q57 -138 57 -251q0 -100 -55 -201h-5l-32 -32h-260l-134 146l-40 -112h-5l-32 -32h-94l30 337
l18 18l-20 23l102 290l-95 26l5 75l31 31l1 7h330l23 23l1 7l271 23zM591 400h-180l-6 -69h97q11 -61 11 -104q0 -89 -41 -128l-155 170h-194l-24 -267h31l68 189l13 -4l171 -187h223q40 74 40 163q0 106 -54 237zM711 753l-223 -19l-1 -14l76 -16q4 -1 4 -3h-433l-1 -14
l95 -26l-3 -38l-96 -270l20 -22h236l6 69h-116l77 171q56 71 191 86l-97 -151q-3 -5 -3 -7q0 -25 161 -25l2 18h-9q-21 0 -21 12q0 5 5 15l146 220z" />
    <glyph glyph-name="six" unicode="6" horiz-adv-x="771" 
d="M631 631l-21 -21l-113 -81l261 -282l-7 -94l-38 -34l-334 -224l-136 151l-1 -1l-213 236l5 73l32 36l295 214l-84 17l5 80l31 31l1 7h291l44 -95zM488 483l-187 -133l-50 55l350 251l-21 45h-230l-1 -17l104 -20l10 -32l-360 -262l-3 -42l181 -200l128 103l-75 83l86 63
l183 -218l-81 -50l-99 107l-128 -103l124 -137l295 198l5 59z" />
    <glyph glyph-name="seven" unicode="7" horiz-adv-x="682" 
d="M714 739l-6 -83l-8 -2l-30 -30l-60 -16l26 -138q-8 -4 -11 -5l-28 -28q-108 -48 -178 -96t-90 -107l-6 -18q-1 -5 -1.5 -11.5t-0.5 -14.5q0 -81 159 -228h-10l-32 -32h-338q-14 39 -21.5 74t-7.5 65q0 63 24 128l-3 1q2 4 4.5 8l5.5 9v33l32 32v7l19 -4q41 52 96 101.5
t127 95.5l-11 42q-42 63 -122 69l-42 -130h-5l-32 -32h-86v272l17 38h619zM135 701v-202h39l53 162h38q112 0 168 -90l23 -87q-211 -118 -273 -224l108 -17l3 6q42 128 299 244l-23 130l3 38l99 26l1 14h-538zM286 222l-114 19q-13 -38 -22 -70t-9 -67q0 -26 5 -52t14 -52
h223q-100 93 -100 190q0 15 3 32z" />
    <glyph glyph-name="eight" unicode="8" horiz-adv-x="704" 
d="M418 132l5 2l-79 36zM321 456l-14 -11l103 -49l12 7l-29 15zM601 591l115 -67l-8 -86l-15 -9l-23 -23l-115 -69l139 -57l-13 -151l-38 -33l-373 -199l-260 154l13 135l31 31l1 6l77 36l-99 46l8 100l32 36l32 22l-14 -4l-38 73l32 32l-1 4l256 179l262 -155zM546 432
l-134 -79l-184 88l127 91l69 -37l111 91l-194 115l-208 -145l10 -19l142 52q9 3 15 3q16 0 16 -13q0 -9 -10 -19l-196 -139l-5 -59l171 -78l-185 -87l-9 -92l224 -133l339 181l9 103l-193 80l211 126l4 41l-124 73l-109 -90zM562 162l-144 -72l-225 114l136 62z" />
    <glyph glyph-name="nine" unicode="9" horiz-adv-x="771" 
d="M248 188l-206 234l7 90l32 36l338 227l353 -389l-7 -75l-38 -34l-181 -133l-110 -80l87 -16v-86h-11l-32 -32h-286l-42 91l32 32l-1 4l59 42l-31 49l32 32l-2 3zM294 173l14 -21l167 106l-246 284l82 50l270 -296l-35 -26l40 -44l143 105l4 42l-320 352l-295 -198l-5 -59
l230 -261zM379 37l-10 32l200 145l-40 44l-298 -213l21 -45h230l1 17z" />
    <glyph glyph-name="colon" unicode=":" horiz-adv-x="384" 
d="M41 393l31 31l1 6l160 75l152 -78l-12 -147l-10 -5l-28 -28l-78 -38l105 -52l-13 -147l-10 -5l-28 -28l-160 -77l-146 77l13 146l32 31v6l75 35l-97 52zM100 302l109 -55l128 58l8 100l-112 58l-124 -58zM77 32l109 -58l127 61l9 100l-113 58l-123 -58z" />
    <glyph glyph-name="semicolon" unicode=";" horiz-adv-x="408" 
d="M222 181h178q-51 -118 -109 -203t-123 -141l-6 -4l-15 -14.5l-15 -13.5l-106 3l-28 55q31 45 50.5 88.5t29.5 87.5l-45 19l9 85l31 31l1 7h105l-125 66l13 146l31 31l1 6l160 75l152 -78l-12 -147l-10 -5l-28 -28zM62 -122l93 -3q110 95 186 268h-232l-3 -28l47 -20
q-17 -112 -91 -217zM126 302l109 -58l128 61l8 100l-112 58l-124 -58z" />
    <glyph glyph-name="equal" unicode="=" horiz-adv-x="393" 
d="M403 415l-40 -120h29l-41 -124h-5l-32 -32h-304l41 120h-30l39 118l30 30l3 8h310zM109 257l-16 -48h231l16 48h-231zM120 377l-16 -48h231l16 48h-231z" />
    <glyph glyph-name="question" unicode="?" horiz-adv-x="682" 
d="M364 522q-42 63 -122 69l-42 -130h-5l-32 -32h-86v272l17 38h619l-6 -83l-8 -2l-30 -30l-60 -16l25 -138q-2 -2 -5 -2.5t-5 -2.5l-28 -28q-69 -34 -116 -63t-67 -59q-2 -4 -5 -7l-7 -7l1 -1q-8 -15 -10.5 -29.5t-2.5 -18.5q0 -8 14 -44q-5 -3 -8.5 -5.5t-7.5 -4.5l-2 -2
q11 -60 34 -116t68 -118h-8l-32 -32h-273l-33 23q-9 23 -17 55t-14 72q-8 -2 -12 -2q8 24 12 48.5t9 50.5t15 54.5t30 59.5l1 1q4 6 8.5 12l9.5 13l-3 2l25 25q2 2 3.5 4t3.5 4l-2 1l22 22q5 5 10 11t11 12l2 -1l32 28t27 21.5t27 18.5t33 20zM672 701h-538v-202h39l53 162
h38q112 0 168 -90l23 -87q-63 -31 -104.5 -58.5t-71.5 -57.5l99 -37q2 2 3 5q24 35 74 75t137 82l-23 130l3 38l99 26zM367 314l-103 39q-25 -26 -40 -52.5t-23.5 -52t-13 -49l-8.5 -44.5q40 5 88.5 23.5t88.5 44.5q-5 13 -5 29q0 26 16 62zM209 0h206q-23 34 -36.5 69.5
t-21.5 77.5l-48 -24q-32 -17 -63 -28t-52 -11q-2 0 -4 0.5t-4 0.5q6 -40 23 -85z" />
    <glyph glyph-name="A" unicode="A" horiz-adv-x="1008" 
d="M496 699l30 30l3 8l253 24l48 -38q-1 -14 -1.5 -35t-0.5 -34q0 -54 4.5 -111.5t15.5 -122.5h1q20 -124 74.5 -256t142.5 -276l-10 3l-32 -33l-156 41l-28 -29l-263 20l-6 11l-41 -29q-106 57 -305 59l9 27h-135l28 121l10 9q-4 5 -4 14q0 14 2 15t4 6l91 140l-259 49
l-12 72l33 32l-1 5l254 133l-24 -77l299 41l10 38l10 39l-64 39zM470 389l-223 -19l-1 -14l76 -16q6 -2 6 -6q0 -3 -1 -4l-122 -188q-2 -4 -2 -5q0 -27 228 -27l-10 -19q-6 -12 -12 -22t-17.5 -19t-30 -17.5t-48.5 -16.5l-5 -15q159 -2 255 -53l24 17l-43 66q10 19 19 38.5
l18 39.5h170q-19 38 -31.5 82.5t-17.5 98.5h-20l-8 -91q-4 -52 -78 -52q77 195 119 449q2 -51 5.5 -97t8.5 -91l79 23q-18 108 -18 223v25q0 13 1 27l-20 16l-214 -21l-5 -16l57 -34q6 -3 6 -8q0 -1 -2 -5q-37 -151 -78 -272.5t-86 -218.5h-91q-21 0 -21 12q0 6 5 16
l144 200zM811 411l-80 -36q13 -88 33.5 -165t48.5 -137v-3q0 -21 -59 -21q-18 0 -42 2t-53 6l-14 -19l339 -89q-131 214 -173 462zM181 386l326 30l22 64l-361 -49l14 47l-149 -78l4 -24l178 -33zM870 -59l-277 86l39 -68zM380 84h-190l-12 -51l81 -6z" />
    <glyph glyph-name="B" unicode="B" horiz-adv-x="896" 
d="M595 461l-2 -60q12 -5 26 2q-9 28 -24 58zM359 -24l-32 -33l-194 195l-22 -33l-2 3l-32 -32l-104 250l47 61l26 28l3 36l31 31l1 7q7 2 13 2.5t12 1.5l-59 128h1q-10 17 -10 32q0 22 13 35l23 23q12 28 60 30l690 20l-7 -100q-3 -1 -7 -1l-31 -31q-2 -1 -7 -1l6 -10.5
t7 -10.5l1 1l19.5 -30.5t22 -37t17.5 -39.5t7 -39q0 -41 -25 -81.5t-62 -68.5q9 -11 21 -21v2q10 -10 25.5 -23.5t30.5 -32.5t25.5 -43.5t10.5 -55.5q0 -42 -20 -80.5t-55 -61.5l-12 -12q-20 -20 -48 -32t-59 -18.5t-60.5 -8.5t-52.5 -2q-62 0 -114 15t-93 38v-5zM691 148
q5 -11 5 -25q0 -17 -9.5 -30t-25 -22t-34.5 -13.5t-37 -4.5q-20 0 -37 5.5t-26 16.5l10 125h-147l-11 -136q33 -27 89 -48.5t137 -21.5q35 0 76 5t76.5 20t59 43.5t23.5 75.5q0 39 -18 65t-40.5 45.5l-42 37t-23.5 40.5q19 9 37 23.5t31.5 33t21.5 39t8 40.5t-9 38
q-35 65 -61 102.5t-26 57.5q0 14 14 21.5t49 13.5l2 27l-648 -19q-27 0 -27 -15q0 -7 6 -17l88 -188q2 -8 -85 -26l-1 -14l219 -19l18 14l-108 200q0 1 -0.5 1.5t-0.5 1.5q0 25 166 25q20 -3 20 -20q0 -2 -0.5 -4t-0.5 -4l-37 -418h147l8 86q2 0 12.5 1t26.5 -4q2 -15 6 -25
t13 -22t24.5 -29l40.5 -45q14 -17 21 -34zM333 57l26 319l-38 -5l-18 -193l-113 102l49 40l-172 60l-19 -25l71 -171l36 53zM668 458q6 -17 6 -30q0 -17 -7.5 -29t-20 -20t-27.5 -12t-30 -4q-17 0 -22.5 5.5t-12.5 16.5l23 272l41 6q-10 -27 -10 -52q0 -24 7.5 -44.5
t17.5 -39l20 -35.5t15 -34zM324 570l53 -84l4 73zM575 222l-12 -114h90z" />
    <glyph glyph-name="C" unicode="C" horiz-adv-x="1026" 
d="M296 116l-30 -49l-277 -40l-40 55l127 209q-3 10 -3 25q0 16 9 42l150 228l-66 14l5 74l31 31l1 7l271 23l54 -47l-81 -112l243 182l31 -28l31 32l1 7l271 23l54 -46l-144 -216h15l-9 -94h-6l-32 -32q-194 0 -223 44l-23 -21q-14 -11 -14 -18l44 -82l79 -142l155 121
l74 -109l-39 -34l-324 -266l-18 31l-109 -39l-119 221zM239 677l-1 -14l76 -16q6 -2 6 -6q0 -3 -1 -4l-170 -258q-6 -17 -6 -28q0 -32 40 -32q12 0 29 3l415 269q5 1 10 1.5t9 0.5q15 0 19 -7v-1q0 -16 -199 -191q-11 -11 -11 -23t11 -22l83 -146l114 85l-57 105
q-2 10 -2 16q0 26 25 45l169 156l-110 99l-334 -250q-2 0 -4.5 -0.5t-4.5 -0.5q-15 0 -15 11q0 6 4 13l144 200l-16 14zM556 -33l53 19l-216 379l-266 -169l-18 59l-83 -137l13 -18l167 24l-54 37l223 143zM558 186l118 -201l267 219l-32 47l-158 -124l-80 144zM1012 753
l-223 -19l-1 -14l76 -16q6 -2 6 -6q0 -3 -1 -4l-122 -188q-3 -5 -3 -7q0 -25 161 -25l2 18h-9q-21 0 -21 12q0 5 5 15l146 220zM359 259l-123 -79h171z" />
    <glyph glyph-name="D" unicode="D" horiz-adv-x="1098" 
d="M255 246l12 -76l-32 -32l-230 136l10 60l31 31l1 6l255 118l50 77l-67 14l5 74l31 31l1 7l271 23l25 -23l47 47h281v-87l-13 -2l-30 -30l-41 -8l89 -73l200 -169l-7 -76l-38 -34l-442 -370l-182 103h-95l23 253h-155zM581 676l-223 -19l-1 -14l76 -16q6 -2 6 -6
q0 -3 -1 -4l-121 -188q-2 -4 -2 -5q0 -27 256 -27l-30 -342l154 -88l412 345l4 42l-159 134l-110 -101l126 -114l-217 -178l-75 62l24 277h-231q-21 0 -21 12q0 6 5 16l144 200zM681 701l-86 -86l233 -215l109 100l-156 132l16 32l108 20l1 17h-225zM461 61l43 2l26 298
h-318l42 63l-172 -79l-3 -18l138 -82l-17 71h284zM740 387l-10 -193l133 72zM561 528l-58 -57l130 -12z" />
    <glyph glyph-name="E" unicode="E" horiz-adv-x="955" 
d="M988 746l-144 -216h15l-9 -94h-6l-32 -32q-107 0 -162 13l173 -88l-13 -6l-29 -29l-200 -92l13 -5l368 158l-20 -227l-9 -4l-29 -29l-370 -166l-234 103q-3 2 -6 4.5t-6 5.5l-278 -49l-29 66l99 145l8 45h-3q-75 0 -75 67q0 16 9 42l150 228l-66 14l5 74l31 31l1 7
l271 23l18 -17l17 21h155l14 10l10 -10h14l23 23l1 7l271 23zM176 677l-1 -14l76 -16q6 -2 6 -6q0 -3 -1 -4l-170 -258q-6 -17 -6 -28q0 -32 40 -32q12 0 29 3l397 267q9 3 16 3q8 0 13 -6v-1q0 -16 -199 -191q-10 -9 -10 -17t8 -15l82 -40l138 80l-53 28q-2 2 -2 3
q0 23 169 177l-95 90l-322 -241q-2 0 -4.5 -0.5t-4.5 -0.5q-15 0 -15 11q0 6 4 13l144 200l-16 14zM477 312l60 -28l-161 -77q-26 -13 -38 -29t-12 -33q0 -26 27 -48l216 -95l337 151l13 142l-324 -139l-128 52l268 123l-120 61zM922 753l-223 -19l-1 -14l76 -16q6 -2 6 -6
q0 -3 -1 -4l-122 -188q-3 -5 -3 -7q0 -25 161 -25l2 18h-9q-21 0 -21 12q0 5 5 15l146 220zM215 155l215 135l-65 24l-186 -122l-18 51l-105 -153l10 -23l199 35zM546 701h-82l-156 -203z" />
    <glyph glyph-name="F" unicode="F" horiz-adv-x="1039" 
d="M186 653q0 22 13 35l23 23q12 28 59 30l444 20l43 -39l289 72l57 -48l-144 -216h15l-8 -77h7l-103 -257h-5l-32 -32h-82l2 42t2.5 39t3.5 31t6 17l4 4h-48l-9 -94l-13 -159l75 -81l-39 -35l-63 -56q-63 28 -140 43t-172 16l3 52l42 49l-59 -13l20 263l-160 23l4 -65l-5 4
l-33 -33l-200 153l12 67l31 31l1 7l214 51l-46 101q-5 9 -7 16.5t-2 15.5zM343 473l-78 -16l-1 -14l219 -19l18 14l-108 200q0 1 -0.5 1.5t-0.5 1.5q0 25 152 25h3q29 0 30 -28l-35 -397h147l11 126h120q18 0 18 -67q0 -27 -3 -66h20l72 181h-223l20 224l163 40q6 -2 6 -7
l-110 -166q-3 -5 -3 -7q0 -25 161 -25l2 18h-9q-21 0 -21 12q0 5 5 15l146 220l-16 14l-321 -80l3 33l-18 16l-429 -19q-27 0 -27 -15q0 -7 6 -17l88 -190q0 -6 -7 -8zM444 16l-1 -15q155 -1 269 -53l19 17l-60 66l16 190h-147l-13 -147q-1 -34 -83 -58zM431 98l47 10
l19 278l-303 38l54 58l-188 -45l-4 -23l123 -94v68l271 -41z" />
    <glyph glyph-name="G" unicode="G" horiz-adv-x="1084" 
d="M973 534l-1 -191l-7 -1l-17 -17q32 -54 64.5 -124t67.5 -157l-39 -34l-175 -133v-100l-14 -3l-30 -30l-67 -25l-85 163l10 25q-130 83 -177.5 184.5t-51 113.5t-4.5 15h-214l37 -98l-32 -32l-257 154v57l35 31v6l195 103l8 -9l65 100l-70 15l11 74l31 31l1 7l268 22
l45 -40l156 117l31 -28l31 32l1 7l271 23l54 -46zM668 302l-139 -77q64 -164 183 -240l167 137q11 -20 20.5 -43.5t16.5 -49.5l-166 -122l57 -109l16 6l6 96l205 157q-37 96 -74 169.5t-74 127.5l4 16l47 7l2 22h-227q32 -40 67 -95.5t73 -127.5l-63 -49q-42 32 -69 76.5
t-52 98.5zM513 642l-222 -19l-2 -14l76 -16q6 -2 6 -6q0 -3 -1 -4l-121 -188q-2 -2 -2 -5q0 -27 241 -27q7 -32 15.5 -62t18.5 -58l140 77q-8 21 -15 45t-7 44q0 26 25 45l169 156l-110 99l-204 -153l10 -19l142 52q9 3 16 3q8 0 13 -6v-1q0 -16 -193 -185h-107
q-21 0 -21 12q0 6 5 16l144 200zM1064 739l-16 14l-223 -19l-1 -14l76 -16q6 -2 6 -6q0 -3 -1 -4l-122 -188q-3 -5 -3 -7q0 -25 161 -25l2 18h-9q-21 0 -21 12q0 5 5 15zM476 290l-15 37h-296l47 71l-159 -84l-1 -16l144 -86l-35 78h315z" />
    <glyph glyph-name="H" unicode="H" horiz-adv-x="932" 
d="M690 574q0 -1 0.5 -0.5t0.5 1.5zM663 252q0 17 -21 27.5t-46 13.5l-15 -184q5 11 14 23t18 26l-2 1q1 1 3.5 6.5t6 11.5l7.5 12.5t7 9.5l1 1q13 20 20 32.5t7 19.5zM87 110l45 -52h-10l-32 -32h-297l-19 90l33 33l-1 3l219 165l97 150l-65 14l5 74l31 31l1 7l243 20v8
l32 36q20 15 58.5 32.5t87 33.5t103.5 26.5t108 10.5q45 0 88.5 -9.5t78 -26t56 -38t21.5 -46.5q0 -23 -11 -36.5t-27 -22.5l-17 -17q-5 -5 -9 -8t-9 -6l-1 -72l-5 1l-33 -33l-215 32q-10 6 -17 11.5t-12 11.5l-4 -51q19 2 37.5 3t36.5 1q50 0 93.5 -6.5t75.5 -23
t50.5 -45.5t18.5 -75q0 -61 -39 -114h1l-14.5 -21l-17.5 -24.5l-17 -23.5t-13 -17l-2 -2q-13 -17 -21.5 -29.5t-10.5 -19.5h1q13 0 64 -9l-6 -107l-6 1l-32 -33l-215 26q-32 14 -45 29l-17 -18l-45 -34l-251 25v71l35 31l1 6q17 8 30 13.5t23 10.5l9 109zM352 577l-222 -19
l-1 -14l75 -16q6 -2 6 -6q0 -3 -1 -4l-134 -204q-10 -20 -10 -34q0 -26 40 -26h10t11 1q29 9 64 18.5l73 19.5t77 19l75 17l-23 -266q-2 -9 -83 -47l-1 -16l204 -21l21 16l30 351q8 9 22.5 13.5t31.5 4.5q19 0 39.5 -5t37.5 -15t28 -24.5t11 -32.5t-13 -40l-24 -39l114 -56
l25 32.5t24 37t18 40.5t7 42q0 39 -18.5 61.5t-47.5 34t-64.5 14t-69.5 2.5q-30 0 -59.5 -3t-56.5 -8l20 224q11 12 35.5 18.5t51.5 6.5q16 0 32 -3t28 -8.5t19.5 -12t7.5 -13.5q0 -9 -13.5 -17t-29 -14.5t-29 -13t-13.5 -13.5q0 -6 10 -12l172 -25l1 32q-21 10 -21 19
q0 8 14.5 15t32 14.5t32 17t14.5 21.5q0 15 -19 29.5t-49 26t-66.5 18.5t-70.5 7q-50 0 -100.5 -8.5t-94 -21.5t-76.5 -27t-49 -26v-28h8q10 -5 23 -17l-20 -227q-45 -10 -92 -22l-98 -26q-21 0 -21 12q0 6 5 16l156 216zM376 247l-8 45l-371 -104l13 71l-161 -122l7 -27
h189l-43 41zM788 122l11 29l-112 40l-61.5 -99t-21.5 -55q0 -12 8.5 -20.5t26.5 -16.5l172 -21l2 32q-63 10 -63 38q0 13 10 31t28 42zM251 347l103 23l14 131z" />
    <glyph glyph-name="I" unicode="I" 
d="M413 427l-24 -270l21 41l34 39l70 -49l-55 -226h-6l-32 -32h-389l-15 227l33 32l-1 5l4 2l-153 67l9 85l209 89l-73 42l55 222l30 30l2 8h395l15 -232l-38 -33l-70 -42l-16 45l-4 -50h-1zM198 67h-39l-20 11l-36 104l-15 -9l12 -173h329l42 172l-13 9l-54 -104l-22 -11
h-38l33 379h-146zM379 465l14 169h39l21 -11l35 -104l15 9l-12 172l-329 1l-42 -172l13 -9l55 104l22 11h39l-16 -170h146zM196 310l3 40h-81l33 58l-177 -66l-2 -22l165 -72l-23 62h82z" />
    <glyph glyph-name="J" unicode="J" horiz-adv-x="787" 
d="M171 10q65 41 135 93.5t148 133.5q-5 41 -6.5 82.5t-1.5 85.5q0 46 2 97t6 105l-76 39l9 68l31 31l1 7l255 26l31 -30l11 -29q-11 -81 -15.5 -152t-4.5 -133q0 -55 4.5 -112.5t18.5 -111.5q13 -49 34 -86.5t41 -65.5q-76 -106 -170.5 -194.5t-199.5 -143.5l-129 141
l-6 -1l-30 -31l-302 -53l-20 71l33 33l-1 3l194 196zM678 722l-17 16l-208 -21l-2 -16l66 -34q7 -4 7 -18v-6q-4 -55 -6 -105.5t-2 -97.5q0 -185 32 -307l130 84q-11 43 -15.5 93t-4.5 108q0 66 5.5 141.5t14.5 162.5zM601 8q-31 -50 -84 -76l-111 123q-38 -34 -81.5 -66
t-94.5 -63l14 -13l95 26l127 -140q164 90 281 258q-42 52 -65 140l-129 -83q19 -64 48 -106zM135 -4l-123 -124l6 -21l189 33l-44 32q97 54 180 120.5t158 139.5l-8 44q-41 -46 -85 -84.5t-89 -72t-90 -62.5l-88 -56z" />
    <glyph glyph-name="K" unicode="K" horiz-adv-x="1035" 
d="M309 358l-8 -13l114 -7q2 13 3.5 25.5t2.5 23.5l-44 -34zM431 537q0 38 -6 59q0 3 2 5l1 1q-16 -1 -28.5 -1.5t-23.5 -0.5l54 -101q1 11 1 20v18zM926 241l7 12h88l-25 -291h-6l-32 -32h-54l-13 -13l-253 -26l-6 9l-31 -28q-78 36 -145 48h-176l9 107l5 5l-44 82
l-251 128l13 70l31 30l1 8l102 23l-35 3l5 75l31 31l1 7l25 5l-59 127q-5 9 -7 16.5t-2 15.5q0 22 13 35l23 23q12 28 59 30l443 20l18 -17l1 5l55 -35l18 18l1 7h327v-70l-267 -322q20 -34 47 -69t56 -64zM262 473l-78 -16l-1 -14l219 -19l18 14l-108 200q0 1 -0.5 1.5
t-0.5 1.5q0 25 154 31q23 0 29.5 -23.5t6.5 -76.5q0 -69 -14 -193t-42 -305q-1 -27 -51 -47h-38l-3 -37h138q76 -13 139 -42l19 17l-60 66l15.5 119.5l14.5 107.5q41 -73 99 -134l100 121q-19 23 -35.5 50t-31.5 56l271 332l1 18h-251l-1 -13l90 -55l-2 -22l-237 -323
q17 129 24.5 218t7.5 140q0 45 -6 60l-18 16l-428 -19q-27 0 -27 -15q0 -7 6 -17l88 -190q0 -6 -7 -8zM859 0h102l19 215h-25l-37 -63q-48 33 -87 78l-99 -120q28 -29 60 -56.5t67 -53.5zM226 263h213l4 35l-209 14l31 49l-188 -43l-4 -22l163 -84zM782 572l-92 83l-26 -253
zM650 147l-19 -104l58 -80l148 15l-49 39.5l-51.5 41.5t-48 43t-38.5 45zM431 227h-152l96 -170l44 29z" />
    <glyph glyph-name="L" unicode="L" horiz-adv-x="923" 
d="M838 243q-9 -1 -17.5 -1.5t-16.5 -1.5q4 -24 13.5 -55.5t24 -68t35 -76t47.5 -78.5h-8l-32 -32h-580l14 97l31 31l3 7l17 194l-287 44v-52l-5 4l-33 -33l-200 159l26 63l30 29l3 9l199 28l-50 106q-9 18 -9 32q0 22 13 35l23 23q12 28 60 30l589 16q0 -36 0.5 -63.5
t4.5 -61.5l-7 -1l-31 -31l-45 -4l-11 -125l-10 -110l224 17q7 -19 12.5 -42.5t10.5 -55.5q-2 0 -3.5 -0.5t-3.5 -0.5zM565 51l38 433h-147l-38 -440l-13 -9.5t-13 -7.5h-8l-4 -27h472q-24 35 -41 76t-27.5 79t-15.5 70.5t-5 51.5q0 11 8 17.5t19 10t23 5t20 1.5q-1 10 -6 22
l-199 -15q-2 -10 -3 -21t-1 -25q0 -29 4.5 -63.5t13.5 -67.5t23 -61.5t33 -46.5q-8 -1 -16 -1h-16q-75 0 -101 19zM201 468l-78 -16l-2 -14l220 -19l18 14l-109 200q0 1 -0.5 1.5t-0.5 1.5q0 25 184 30q34 -3 37 -28l-12 -134h147l13 153l73 5q-1 7 -1 19v32l-550 -15
q-27 0 -27 -15q0 -7 6 -17l89 -190q0 -6 -7 -8zM412 329l-1 42l-353 53l35 47l-164 -24l-8 -20l123 -98v57zM299 600l103 -161l12 167z" />
    <glyph glyph-name="M" unicode="M" horiz-adv-x="1556" 
d="M286 732zM1037 764l118 14l26 -24h157q4 4 6 7l162 16l41 -39q1 -16 1.5 -40t0.5 -42q0 -79 -7 -183.5t-21 -235.5h-1l-11 -85l-12.5 -93l-13 -91.5l-11.5 -79.5q-2 1 -2.5 1.5t-2.5 1.5l-32 -33q-75 36 -153.5 62.5t-160.5 43.5l33 90l30 30l3 8l32.5 -5.5t24.5 -3.5
l11 86l10 86l1 1q5 46 8.5 85.5t5.5 72.5q-53 -88 -125.5 -221l-165.5 -313l-5 2l-32 -33l-62 19q23 185 37.5 318.5t20.5 218.5q-35 -67 -76.5 -157.5t-89.5 -206.5l72 -78l-68 -61l-35 -31q-63 30 -139.5 44.5t-167.5 14.5l3 89l32 32v5l27 9t22 7l21 228l-294 33l11 -66
l-6 4l-33 -33l-210 146l20 58l30 30l3 8l221 55l-44 95q-5 9 -7 16.5t-2 15.5q0 22 13 35l23 23q12 28 59 30l463 27l28 -27l215 17zM396 482l-78 -16l-1 -14l219 -19l18 14l-108 203q0 1 -0.5 1.5t-0.5 1.5q0 25 187 31q16 -7 16 -21q0 -4 -1 -6l-51 -583q-1 -19 -80 -45
l-1 -29q156 0 266 -52l19 17l-60 66l1 10q184 447 280 543q1 -7 1.5 -16.5t0.5 -23.5q0 -70 -15 -227t-46 -406q299 576 392 673q1 -8 1.5 -17t0.5 -20q0 -42 -5.5 -109.5t-16.5 -162.5h152q13 116 19 211t6 170v34t-1 32l-17 16l-130 -13q-120 -155 -239 -415
q39 204 39 339q0 38 -3 73l-17 16l-113 -13q-159 -213 -276 -536l46 533l-17 16l-448 -26q-27 0 -27 -15q0 -7 6 -17l89 -190q0 -6 -7 -8zM1309 71q-3 -27 -51 -27q-10 0 -21 1.5l-25 3.5l-9 -24q66 -13 125 -33t114 -46q25 169 42 309h-152l-10.5 -87.5t-12.5 -96.5z
M974 724l-142 -12l-32 -328zM598 369l6 37l-380 37l46 47l-171 -43l-5 -14l120 -84l-10 65zM509 616l66 -118l6 116zM1313 716h-108l-27 -238z" />
    <glyph glyph-name="N" unicode="N" horiz-adv-x="1142" 
d="M867 384q3 30 5.5 57.5t4.5 54.5q-32 -45 -66.5 -108t-72.5 -146l-13 -152q46 -8 60 -8q55 129 82 302zM424 69q14 1 25 1q12 0 21 1l19 213l-246 22l3 -39l-5 3l-33 -33l-211 118l19 73l30 30l2 8l213 29l-53 116q-5 9 -7 16.5t-2 15.5q0 22 13 35l23 23q12 28 59 30
l442 30l24 -22h148q2 2 4 3.5t4 3.5l159 15l43 -38q2 -29 3.5 -65.5t1.5 -65.5q0 -98 -12 -224h-3q-16 -122 -43.5 -240.5t-69.5 -237.5q-2 1 -2.5 1.5t-2.5 1.5l-32 -33q-42 24 -89 43.5t-101 34.5l-40 -36l-34 -31q-57 27 -134.5 41.5t-176.5 18.5l9 100l31 31zM357 463
l-79 -16l-1 -14l219 -19l18 14l-108 200q0 1 -0.5 2t-0.5 2q0 29 157 40q25 -7 26 -34l-50 -564q-4 -39 -79 -42l-3 -32q169 -6 267 -52l19 17l-60 66l19 221q143 314 248 367q0 -57 -3 -109.5t-10 -103.5h140q9 93 9 186q0 29 -1 57t-3 57l-18 16l-132 -13
q-119 -99 -218 -317l28 314l-18 16l-427 -29q-27 0 -27 -15q0 -7 6 -17l88 -191q0 -6 -6 -7zM838 71q-3 -27 -51 -27q-10 0 -21 1.5l-25 3.5l-9 -24q148 -25 242 -79q75 218 99 440h-141q-13 -85 -36.5 -162.5t-57.5 -152.5zM541 353l5 31l-335 34l25 35l-157 -22l-6 -23
l130 -73l-4 49zM436 639l99 -188h14v194zM865 701h-92l-32 -207z" />
    <glyph glyph-name="O" unicode="O" horiz-adv-x="1067" 
d="M791 92q-16 38 -29 79t-23 85l-14 -174q5 -1 11 -1h15q20 0 42 5q0 2 -1 3t-1 2v1zM1009 538q-26 -8 -33 -35.5t-7 -58.5q0 -30 4.5 -63t12.5 -65.5t19 -63.5t25 -56q9 -20 14.5 -41t5.5 -44q0 -42 -16.5 -79.5t-51.5 -59.5l-15 -15q-17 -17 -41.5 -27t-52.5 -15.5
t-56.5 -7.5t-53.5 -2q-53 0 -104 9t-94.5 23.5t-77.5 31.5t-55 34q0 16 1 26.5t2.5 18.5t4 16t4.5 19l30 30l15 163l-264 39v-49l-5 4l-33 -33l-188 148l26 59l29 29l4 9l194 31l-50 108q-5 9 -7 16.5t-2 15.5q0 22 13 35l23 23q12 28 60 30l775 20l-17 -191q-6 -2 -8 -2z
M859 138q5 -15 5 -24q0 -18 -10.5 -31.5t-27 -22t-36.5 -13t-39 -4.5q-22 0 -40.5 5.5t-25.5 16.5l24 280h-147l-21 -245l-13 -9.5t-13 -7.5h-8q-1 -7 -2.5 -14t-2.5 -14q17 -14 46.5 -28t68.5 -25t85.5 -18.5t96.5 -7.5q42 0 80.5 5t68 20t47 41.5t17.5 69.5q0 37 -16 68
q-29 56 -47 127.5t-18 137.5q0 62 18.5 105.5t61.5 51.5l11 120l-732 -19q-27 0 -27 -15q0 -7 6 -17l88 -188q2 -8 -85 -26l-1 -14l219 -19l18 14l-108 200q0 1 -0.5 1.5t-0.5 1.5q0 24 158 29q18 -6 18 -103q0 -38 -3 -88t-8 -114h147l25 292l81 6q-17 -34 -25 -77t-8 -92
q0 -87 21 -180.5t54 -175.5zM536 345l2 41l-332 47l29 38l-151 -24l-7 -16l110 -86v53zM511 610l-61 4l75 -147z" />
    <glyph glyph-name="P" unicode="P" horiz-adv-x="1108" 
d="M465 56l10 4l20 220l-263 36l18 -70l-7 5l-33 -33l-216 151l11 62l31 31l1 7l218 48l-48 104q-5 9 -7 16.5t-2 15.5q0 22 13 35l23 23q12 28 59 30l449 20l41 -37q19 10 40 19t40.5 15.5t36.5 10.5t28 4q5 0 11 -0.5t14 -4.5l84 -42q-7 -4 -14 -7l-28 -28q-19 -9 -33 -17
l-25 -14q0 -20 19 -40.5t46 -36.5t57 -26t51 -10h123l-9.5 -6.5t-11.5 -8.5l-23 -23l-96.5 -68l-104.5 -73l-116 -79l-132 -87l-13 -158l75 -81l-68 -61l-34 -31q-129 58 -312 60l5 77l31 31zM714 301l-3 -4l14 158h-147l-34 -381q-1 -34 -83 -58l-1 -15q157 -2 269 -53
l19 17l-60 66l17 202l143 93.5l110.5 74.5l86 59l69.5 49h-4q-26 0 -62 13.5t-69 35t-56.5 48.5t-23.5 54q0 18 12 35t41 31l-16 8q-2 1 -8 1q-15 0 -41.5 -8t-54 -20t-52.5 -26t-38 -27l5 52l-18 16l-434 -19q-27 0 -27 -15q0 -7 6 -17l88 -188q2 -8 -85 -26l-1 -14
l219 -19l18 14l-108 200q0 1 -0.5 1.5t-0.5 1.5q0 25 162 33q20 -5 20 -88q0 -45 -6 -111h147l9 110q16 -23 40.5 -40.5t54 -30.5t63.5 -22.5t69 -16.5zM544 349l3 35l-361 47l71 47l-187 -41l-3 -17l122 -85l-16 65zM467 583l61 -96l-8 108zM757 473l-14 -104l97 59
q-57 8 -83 45z" />
    <glyph glyph-name="Q" unicode="Q" horiz-adv-x="1096" 
d="M806 92q-32 77 -52 162l-7 -74l-8 -98q5 -1 12 -1h15q20 0 42 5q0 2 -1 3t-1 2v1zM1024 538q-12 -4 -20 -13.5t-12 -22.5t-5.5 -28.5t-1.5 -30.5q0 -30 4 -62.5t12 -65t19 -63t25 -56.5q9 -20 14.5 -41t5.5 -44q0 -30 -9 -58.5t-7 -35.5l70 -67l-183 -228q-2 2 -2 3
l-33 -33l-39.5 54l-43.5 57.5l-43 55l-38 48.5q-47 3 -91.5 12.5t-82 23.5t-67.5 30t-49 31q0 15 1 25.5t2.5 18.5t4 16t4.5 19l30 30l8 85l4 44.5l4 41.5l-262 28l20 -88l-7 5l-33 -33l-215 163l20 54l30 30l3 8l198 60l-46 100q-5 9 -7 16.5t-2 15.5q0 22 13 35l23 23
q12 28 60 30l779 31l-17 -192q-6 -2 -8 -2zM874 138q5 -15 5 -24q0 -18 -10.5 -31.5t-27 -22t-36.5 -13t-39 -4.5q-22 0 -40.5 5.5t-25.5 16.5l11 133h-147l-8 -98l-13 -9.5t-13 -7.5h-8q-1 -7 -2.5 -14t-2.5 -14q16 -13 43 -26.5t62.5 -24.5t78 -19t89.5 -9l71 -90.5
l76 -101.5l131 163l-21 20q-61 -49 -88 -49q-9 0 -15 7l-51 56q68 8 101 39.5t33 90.5q0 38 -16 69q-29 57 -46.5 128.5t-17.5 136.5q0 62 18.5 105.5t60.5 51.5l11 120l-736 -29q-27 0 -27 -15q0 -7 6 -17l88 -188q2 -9 -85 -26l-1 -14l219 -19l18 14l-108 200
q0 1 -0.5 1.5t-0.5 1.5q0 25 170 34q10 -1 10 -73q0 -107 -24 -374h147l38 439l81 6q-17 -34 -25 -77t-8 -92q0 -87 21 -180.5t54 -175.5zM562 353l4 29l-360 38l58 53l-174 -53l-5 -14l119 -90l-17 78zM459 606l72 -131l5 139z" />
    <glyph glyph-name="R" unicode="R" horiz-adv-x="1005" 
d="M847 215l28 28l5 10h91l-25 -291h-6l-32 -32h-226l-106 177l-5 -63l75 -81l-39 -35l-63 -56q-63 28 -140 43t-172 16l3 52l43 50l16 20q7 2 13.5 3.5t11.5 3.5l21 225l-228 26l18 -56l-8 4l-32 -32l-229 130l11 69l31 31l1 6l186 64l-43 94h1q-10 17 -10 32q0 22 13 35
l23 23q12 28 59 30l453 20l40 -36q19 10 40 19t40.5 15.5t36 10t28.5 3.5q5 0 11.5 -0.5t14.5 -4.5l89 -44q-5 -2 -13 -6l-29 -29l-40.5 -18t-30.5 -15q2 -20 24.5 -39.5t53.5 -35t65 -25t58 -9.5h97q-8 -6 -13.5 -11t-12.5 -10l-17 -17l-77.5 -60l-83.5 -61l-102 -70
l73 -121zM195 473l-78 -16l-1 -14l219 -19l18 14l-108 200q0 1 -0.5 1.5t-0.5 1.5q0 25 163 31q22 -3 22 -90q0 -47 -6 -117h147l10 120q16 -23 45.5 -40.5t65 -30t74 -22t73.5 -16.5l-280 -175l179 -301h174l19 215h-26l-44 -91h-22l-128 211q267 173 268 174h-4
q-30 0 -71 13.5t-78.5 35t-63.5 48.5t-26 54q0 18 14 35t47 31l-16 8q-2 1 -9 1q-16 0 -41.5 -7.5t-53 -19t-52 -26t-38.5 -28.5l5 52l-18 16l-438 -19q-27 0 -27 -15q0 -7 6 -17l88 -190q0 -6 -7 -8zM305 16l-1 -15q155 -1 269 -53l19 17l-60 66l36 414h-147l-33 -371
q-1 -34 -83 -58zM395 353l3 35l-334 41l47 65l-172 -59l-4 -25l132 -75l-18 59zM359 613l-71 3l74 -133zM600 469l-9 -110l102 63q-63 14 -93 47z" />
    <glyph glyph-name="S" unicode="S" horiz-adv-x="1065" 
d="M804 193q0 16 -1.5 33t-3.5 35h-61l66 -73v5zM735 464q0 10 2 15t7 11l58 91l-31 -9.5t-23 -17.5l-53 -116h54q-14 10 -14 26zM1041 111q-5 -37 -18 -74t-33 -75h-5l-32 -32h-260l-12 13h-194l-5 -11h-94l30 337l18 18l-10 11l-193 26l15 -73l-7 5l-33 -33l-203 161
l14 61l31 30l1 8l162 42l-43 94q-10 18 -10 33q0 21 12 33l23 23q12 31 62 31h533l23 23l1 7l271 23l54 -46l-144 -216h15l-9 -94h-6l-11 -11q29 -76 44.5 -141t15.5 -119v-54h-3zM318 471l-78 -16l-1 -14l219 -19l18 14l-108 202q0 26 211 26l11 -3l-3 -38l-96 -270l20 -22
h353q10 -56 10 -103v-20t-2 -18l134 -31v6q0 53 -13.5 111t-39.5 124h-316l77 171q20 44 69.5 64.5t121.5 21.5l-97 -151q-3 -5 -3 -7q0 -25 161 -25l2 18h-9q-21 0 -21 12q0 5 5 15l146 220l-16 14l-223 -19l-1 -14l76 -16q4 -1 4 -3h-672q-27 0 -27 -14q0 -6 7 -18
l88 -190q0 -6 -7 -8zM1006 137l-137 33q-9 -45 -35 -71l-155 170h-194l-24 -267h31l68 189l13 -4l171 -187h223q33 61 39 137zM473 367l8 29l-302 33l73 67l-169 -45l-4 -18l111 -88l-13 63zM429 594l57 -99l34 99h-91zM582 116l-23 -108h118z" />
    <glyph glyph-name="T" unicode="T" horiz-adv-x="1039" 
d="M268 601l31 35l160 141l164 -87l197 103l-7 -82l140 67l141 -147l-109 -119l22 2l25 -71l-39 -33l-219 -143l-19 -223l75 -81l-68 -61l-34 -31q-127 59 -273 59q-332 0 -332 63q4 15 6 20l100 156l-65 14l2 29h-6l6 6l3 39l31 31l1 7l10 1l-218 72l50 106l28 28l5 11
l228 -85l15 31l9 16l19 19zM618 593l-10 -116h147l10 115l61 30l59 -69l-114 -189l23 -31l192 126l-5 14l-91 -9l152 167l-96 100l-176 -84l7 81l-154 -80l-159 83l-114 -100l124 -167l-91 9l-7 -14l170 -126l29 31l-82 189l71 69zM459 279l-222 -19l-1 -14l75 -16
q6 -2 6 -6q0 -3 -1 -4l-121 -188q-2 -4 -2 -18t297 -14q154 0 267 -52l19 17l-60 66l37 426h-147l-34 -383q-1 -20 -30 -37h-195q-21 0 -21 12q0 5 6 16l143 200zM507 322l-118 98v-63l-293 108l-19 -41l294 -97l-50 -35l175 14zM540 67l17 223l-178 -223h161z" />
    <glyph glyph-name="U" unicode="U" horiz-adv-x="1025" 
d="M683 81l17 197q-1 -5 -3.5 -9t-10.5 -12l2 -3q-17 -38 -34.5 -73t-33.5 -63v1q-4 -8 -4 -14q0 -12 20 -18t43 -6h4zM1027 627q-14 -8 -25.5 -12.5t-20.5 -8.5l-42 -485h28v-52q0 -3 0.5 -7.5t5.5 -22.5q-62 -51 -100 -68.5t-84.5 -32t-98.5 -24t-105 -9.5q-46 0 -87.5 6
t-73 22t-50 44.5t-18.5 72.5q0 29 10 59.5t29 56.5l-1 -1q15 22 28 50.5t23 54.5t16.5 45t6.5 22l-203 33l9 -66l-6 4l-33 -33l-213 159l32 56l33 38l170 37l-47 103q-5 9 -7 16.5t-2 15.5q0 22 12 34l24 24q13 30 65 30l416 -51q15 -21 25 -41l25 29l46 36l255 -25l-4 -76
q-3 -2 -5.5 -3t-4.5 -2zM653 268l-130 47l-31.5 -73.5t-33.5 -61.5q-16 -21 -24 -46t-8 -49q0 -38 18.5 -60t47 -33t62.5 -14t66 -3q50 0 97.5 7.5t88 19t72.5 25.5t52 28q-1 4 -1 14v14h-8q-9 4 -22 17l47 538q2 9 82 47l1 16l-204 21l-20 -16l-56 -641q-9 -11 -28.5 -16.5
t-41.5 -5.5q-18 0 -36 4t-32.5 11.5t-23.5 19t-9 27.5q0 12 8.5 31.5t20.5 42.5l24.5 46t21.5 43zM358 520l-78 -16l-1 -14l219 -19l18 14l-103 189q-3 7 -3 12q0 16 23 16l82 -12q28 -9 40.5 -45t12.5 -87q0 -24 -2.5 -52t-7.5 -58t-12 -59.5t-17 -55.5l132 -47q2 2 1 2.5
t1 2.5q32 74 51 147t19 136q0 38 -8 70t-27 57l-400 49q-27 0 -27 -15q0 -7 6 -17l88 -190q0 -6 -7 -8zM519 406v33l-296 39l57 53l-168 -37l-9 -16l121 -90l-9 67zM476 641l-18 3l51 -94q11 58 -33 91z" />
    <glyph glyph-name="V" unicode="V" horiz-adv-x="1052" 
d="M802 435q0 89 -52 167q12 -54 24 -114.5t23 -126.5l2 18t2 19v1q1 10 1 18v18zM206 653q0 21 12 33l23 23q12 31 62 31q20 -1 38 -1h37q255 0 354 60l69 -59l-22 -27l241 83q22 -48 32 -93t10 -89q0 -66 -18 -154h1q-5 -14 -8 -28l-6 -29h-2q-31 -104 -74.5 -212
t-102.5 -222l-38 -34l-39 -28l-249 25l-13 67l32 32l-1 5l21 11.5t18 9.5q-5 60 -11 115t-14 106l-302 46l10 -63l-6 4l-33 -33l-213 142l26 70l30 30l3 8l191 35l-48 103q-10 18 -10 33zM364 472l-78 -16l-1 -14l219 -19l18 14l-108 200q-1 2 -1 5q0 22 95 27
q44 -20 47 -43q76 -206 101 -564v-1q0 -9 -69 -46l3 -16l210 -21l22 16q64 124 107 229.5t66 195.5l-126 -8q-12 -133 -73 -313q-40 343 -102 571l54 66l-20 17q-84 -51 -350 -51h-37q-18 0 -38 1q-27 0 -27 -14q0 -6 7 -18l88 -190q0 -6 -7 -8zM871 431l129 8q24 97 24 175
q0 79 -25 135l-197 -68q70 -70 70 -211v-19t-1 -20zM597 349l-3 35l-380 53l69 45l-182 -33l-10 -27l125 -83l-10 69zM500 617l-42 -4l94 -164z" />
    <glyph glyph-name="W" unicode="W" horiz-adv-x="1318" 
d="M1009 81l18 207q-17 -45 -37.5 -87.5t-43.5 -82.5v1q-4 -8 -4 -14q0 -12 20 -18t43 -6h4zM822 516q0 28 -7 50t-22 36q0 -3 0.5 -6.5t0.5 -6.5q0 -68 -20 -145h-1q-3 -15 -8.5 -34t-10.5 -40.5t-12.5 -34.5t-7.5 -18h-1q-5 -11 -5 -13l-10 -25q-20 -44 -40 -83.5
l-40 -75.5q-4 -8 -4 -16q0 -11 16 -16.5t35 -6.5q4 22 12.5 43.5t23.5 41.5l-1 -1q22 31 41 74.5t32.5 91t21 95.5t7.5 90zM1353 627q-14 -8 -25.5 -12.5t-20.5 -8.5l-42 -485h28v-52q0 -4 0.5 -9t4.5 -20q-3 -2 -6 -4.5t-7 -4.5l-25 -25q-24 -17 -61.5 -35t-84 -32.5
t-98.5 -24t-103 -9.5q-39 0 -77.5 5.5t-75.5 16.5q-37 -10 -78 -15.5t-85 -5.5t-84 6t-71 22t-49.5 44t-18.5 72q0 27 7.5 49.5t19.5 44t27 45.5t29 56v1l17 39.5t17 44.5l-233 26l-1 -43l-32 -32l-197 125l19 62l30 30l3 8l202 34l-48 103q-5 9 -7 16.5t-2 15.5q0 22 12 34
l24 24q12 29 59 29l420 -10q8 -11 15.5 -22.5t12.5 -23.5l3 20l31 31l1 7l226 -27q10 -14 18 -28.5t14 -29.5l1 10l32 36l46 36l255 -25l-4 -76q-3 -2 -5.5 -3t-4.5 -2zM524 266q-13 -29 -27 -51.5l-26 -43t-19.5 -41t-7.5 -45.5q0 -39 18.5 -60.5t46.5 -32.5t61 -13.5
t62 -2.5q44 0 85 6t79 17q36 -13 74.5 -18.5t77.5 -5.5q49 0 96 7.5t88 19t73 25.5t51 28q-1 4 -1 14v14h-8q-9 4 -22 17l47 538q2 9 82 47l1 16l-204 21l-20 -16l-56 -641q-9 -11 -28.5 -16.5t-41.5 -5.5q-17 0 -35 4t-33 11.5t-24.5 19t-9.5 27.5t10 33q28 50 52.5 104.5
t42.5 109.5t28.5 108.5t10.5 100.5q0 42 -9 78t-29 62l-172 21l-4 -38q32 -6 45.5 -42.5t13.5 -90.5q0 -44 -8 -95t-22.5 -101t-34.5 -96t-43 -79q-16 -21 -23.5 -45.5t-7.5 -47.5v-13t2 -12q-9 -9 -26.5 -14t-37.5 -5q-17 0 -34 3.5t-31 11t-22.5 19t-8.5 27.5
q0 14 10 36.5t24 48l29 53t25 51.5q5 12 9.5 24t9.5 24l-138 26q-9 -26 -19 -51.5t-21 -49.5zM381 499l-78 -16l-1 -13l215 -19l18 14l-106 196q0 1 -0.5 2t-0.5 2q0 23 127 23q26 -8 39 -36.5t13 -72.5q0 -40 -11 -92t-25 -100l138 -26q20 60 33.5 118t13.5 110q0 38 -8 70
t-26 55l-402 10q-25 0 -25 -14q0 -7 6 -17l86 -187q0 -6 -6 -7zM550 398l8 26l-330 35l49 43l-168 -29l-5 -16l112 -71l-6 51zM542 622l-56 8l69 -132q12 90 -13 124z" />
    <glyph glyph-name="X" unicode="X" horiz-adv-x="1129" 
d="M879 208q0 14 -21.5 20.5t-44.5 6.5l-12 -123l8 8q14 17 32.5 36.5t32.5 37.5l2 2q3 6 3 12zM853 547l1 19q-15 -23 -36 -50t-40 -59q-4 -7 -4 -13q0 -12 20 -18t43 -6h4zM943 761l255 -25l-4 -76q-3 -2 -5.5 -3t-4.5 -2l-28 -28q-14 -7 -25 -12t-21 -9l-6 -77l-7 -69h29
v-85q-10 -9 -16 -12l-6 -6q20 -20 27.5 -44.5t7.5 -53.5q0 -32 -12.5 -62t-30.5 -55.5t-37 -46l-32 -35.5l-7 -7h2q20 0 50 -3l-3 -108l-6 1l-32 -33l-212 26q-35 9 -54 26l-57 -48l-251 25v71l35 31l1 6q16 8 29 13l23 9l11 126h-29v80l22 22q-9 9 -15 18l-277 45l7 -61
l-6 4l-33 -33l-189 144l16 63l30 30l2 8l187 36l-48 103q-9 13 -9 30q0 21 13 34l23 23q15 33 78 37l514 -54q24 -11 36 -22l19 23zM371 506l-78 -16l-1 -14l219 -19l18 14l-108 200q-3 7 -3 12q0 16 23 16q78 -8 130.5 -14l85 -10t48.5 -7t22 -5t6 -4v-5q0 -6 -8.5 -15.5
t-24 -25l-37 -38.5t-47.5 -56q-33 -42 -33 -92q0 -18 2.5 -35t18 -31t49.5 -22.5t98 -8.5q-135 -21 -154 -37v-28h8q10 -5 23 -17l-16 -179q-2 -10 -82 -47l-1 -16l204 -21l20 16l25 282q9 11 28.5 16.5t41.5 5.5q18 0 36 -4t32.5 -11.5t23.5 -19t9 -27.5q0 -9 -2 -17
t-10.5 -19.5t-24.5 -29l-43 -46.5q-23 -23 -39 -45t-16 -40q0 -13 10.5 -23t35.5 -17l172 -21l1 30q-39 4 -57 7t-18 11q0 6 8 15.5l22 25.5l34.5 39t46.5 55q15 20 23.5 44t8.5 47q0 19 -5.5 37.5t-16.5 32.5q-13 22 -139 22q55 9 82.5 15t39.5 10.5t15.5 8.5t10.5 9v28h-8
q-11 4 -23 17l10 108h-147l-13 -143q-9 -11 -28.5 -16.5t-41.5 -5.5q-18 0 -36 3.5t-32.5 11t-23.5 19t-9 27.5q0 15 10 34q21 38 42 66t38 48.5t27.5 35t10.5 26.5q0 17 -31 33l-507 54q-42 -3 -42 -21q0 -6 6 -15l88 -188q0 -9 -7 -10zM934 706l-12 -139h147l6 71
q2 9 82 47l1 16l-204 21zM481 635l69 -135q14 81 99 125zM563 388l-9 34l-331 43l57 49l-164 -32l-5 -19l106 -81l-6 63z" />
    <glyph glyph-name="Y" unicode="Y" horiz-adv-x="1092" 
d="M767 85h12l9 104q-6 -12 -17.5 -25t-24 -25.5l-23 -23.5t-14.5 -20q5 -5 21.5 -7.5t36.5 -2.5zM747 398q10 -10 25.5 -15.5t31.5 -7.5l16 180q-14 -25 -33.5 -56l-43.5 -72v1q-5 -10 -5 -14v-3q3 -6 5.5 -9t3.5 -4zM1123 627q-14 -8 -25.5 -12.5t-20.5 -8.5l-42 -478h29
v-84l-6.5 -4.5l-6.5 -4.5l-25 -25q-23 -17 -60 -34t-83 -31.5t-98 -23.5t-104 -9q-38 0 -81 5.5t-80 19.5t-61 39.5t-24 66.5q0 20 8 42t28 42l14 14q10 17 27 31q-2 0 -3 1l5 90q-4 4 -17.5 16t-16.5 60l-220 29l6 -51l-6 4l-33 -33l-190 136l14 60l30 30l2 8l175 41
l-47 104q-5 8 -7 16t-2 16q0 21 15 36l22 22q15 28 65 43l501 -62q31 -15 45 -31l14 18l46 36l255 -25l-4 -76q-3 -2 -5.5 -3t-4.5 -2zM705 391l-146 -45q9 -21 30 -33t48 -18.5t56.5 -8t55.5 -1.5q30 0 59.5 3t56.5 8l-20 -224q-11 -13 -32.5 -19t-45.5 -6q-17 0 -33 3
t-29.5 8t-23 13t-11.5 18v3q0 17 14 35t31.5 35.5t31.5 34t14 31.5q0 9 -6 18l-172 25l-2 -32q20 -2 28 -6.5t8 -11.5q0 -10 -13.5 -22.5t-31 -26l-33.5 -27t-22 -25.5q-12 -23 -12 -42q0 -31 21.5 -49.5t53.5 -28.5t69 -13.5t68 -3.5q50 0 97.5 7t88 18.5t72.5 25.5t51 28
v28h-8q-11 4 -23 17l47 531q2 9 82 47l1 16l-204 21l-20 -16l-31 -351q-8 -9 -22 -13.5t-31 -4.5q-32 0 -63.5 13t-48.5 41zM359 519l-78 -16l-1 -14l219 -19l18 14l-108 200q-3 7 -3 12q0 16 23 16l206 -26q49 -12 49 -34q0 -21 -29 -58.5t-74 -103.5q-15 -22 -23 -47
t-8 -49q0 -8 0.5 -13t2.5 -16l147 45v4q0 18 10 34l50 83l37.5 60.5t23.5 43t8 29.5t-8.5 20.5t-26.5 16.5l-487 60q-35 -9 -35 -27q0 -8 6 -17l88 -190q0 -6 -7 -8zM526 408l2 31l-309 34l58 56l-162 -39l-4 -17l108 -77l-6 55zM468 657l63 -139l74 118z" />
    <glyph glyph-name="Z" unicode="Z" horiz-adv-x="1045" 
d="M542 583l80 -147q74 36 125 57q-64 107 -205 90zM971 437q-71 -30 -132 -59.5t-106.5 -61t-71.5 -65t-26 -71.5q0 -37 29 -72l203 199h158l-30 -343h-6l-32 -32h-92l-29 162l-145 -132l-35 -32h-258q-47 88 -47 160q0 68 30.5 123.5t52.5 81.5l-160 17l-39 -45l-217 103
l39 71l33 38l243 24l-53 115q-5 9 -7 16.5t-2 15.5q0 22 13 35q35 53 84 53l720 1l-6 -83l-8 -2l-30 -30l-60 -16l26 -138q-4 -2 -10 -4zM429 470l-78 -16l-2 -14l220 -19l18 14l-108 200q0 1 -0.5 1.5t-0.5 1.5q0 23 161 23q57 0 98.5 -23t69.5 -67l23 -87
q-260 -92 -350 -194l132 -35q50 114 355 238l-23 130l3 38l99 26l1 14l-679 -1q-27 0 -27 -15q0 -7 6 -17l89 -190q0 -6 -7 -8zM606 235l-140 37q-23 -30 -34 -72t-11 -75q0 -64 33 -125h223l203 187l15 4l34 -189h31l24 267h-102l-219 -214q-66 55 -66 125q0 26 9 55z
M516 357l38 31l-295 39l36 34l-181 -18l-12 -22l139 -66l5 37z" />
    <glyph glyph-name="grave" unicode="`" horiz-adv-x="435" 
d="M67 882l24 24l9 15l289 -114l-51 -100h-343l52 77l-30 12zM103 849l32 -12l-40 -60h265l-243 96z" />
    <glyph glyph-name="a" unicode="a" horiz-adv-x="699" 
d="M520 705q-1 -13 -1 -25v-23q0 -87 11.5 -176.5t39.5 -184t73.5 -196t113.5 -212.5l-10 3l-32 -33l-388 102l3 -4l-39 -35l-70 -49q-106 57 -305 59l26 79l31 30l2 8q45 12 70 24q58 125 104 254.5t82 268.5l-64 39l20 65l30 30l3 8l253 24l34 -27zM482 706l-20 16
l-214 -21l-5 -16l57 -34q6 -3 6 -8q0 -1 -2 -5q-74 -299 -201 -564q-10 -34 -99 -58l-5 -15q159 -2 255 -53l24 17l-43 66q10 19 19 38.5l18 39.5h170q-19 38 -31.5 82.5t-17.5 98.5h-20l-8 -91q-4 -52 -78 -52q77 195 119 449q5 -106 15 -197l79 22q-10 57 -14.5 116
t-4.5 120v24t1 25zM503 401l-80 -23q25 -186 81 -305v-3q0 -21 -59 -21q-18 0 -42 2t-53 6l-14 -19l339 -89q-64 106 -107 217t-65 235z" />
    <glyph glyph-name="b" unicode="b" horiz-adv-x="633" 
d="M330 401q14 -2 14.5 16t-12.5 58zM346 124l-21 22t-16 17l-5 -70q5 -2 10.5 -2h19t17.5 9.5t-5 23.5zM516 629q-2 -1 -7 -1l6 -10.5t7 -10.5l1 1l19.5 -30.5t22 -37t17.5 -39.5t7 -39q0 -41 -25 -81.5t-62 -68.5q9 -11 21 -21v2q10 -10 25.5 -23.5t30.5 -32.5t25.5 -43.5
t10.5 -55.5q0 -42 -20 -80.5t-55 -61.5l-12 -12q-20 -20 -48 -32t-59 -18.5t-60.5 -8.5t-52.5 -2q-44 0 -83 8t-72.5 20.5t-60.5 29t-48 33.5l51 577l-74 39v69l35 31l1 7h504l-7 -76q-3 -1 -7 -1zM405 458q6 -17 6 -30q0 -17 -7.5 -29t-20 -20t-27.5 -12t-30 -4
q-17 0 -22.5 5.5t-12.5 16.5l7 85h-147l-35 -406q33 -27 89 -48.5t137 -21.5q35 0 76 5t76.5 20t59 43.5t23.5 75.5q0 39 -18 65t-40.5 45.5l-42 37t-23.5 40.5q19 9 37 23.5t31.5 33t21.5 39t8 40.5t-9 38q-35 65 -61 102.5t-26 57.5q0 14 14 21.5t49 13.5l2 27h-427
l-1 -37l66 -34q4 -1 4 -28q0 -39 -9 -133h147l14 167l41 6q-10 -27 -10 -52q0 -24 7.5 -44.5t17.5 -39l20 -35.5t15 -34zM428 148q5 -11 5 -25q0 -17 -9.5 -30t-25 -22t-34.5 -13.5t-37 -4.5q-20 0 -37 5.5t-26 16.5l20 231q2 0 12.5 1t26.5 -4q2 -15 6 -25t13 -22t24.5 -29
l40.5 -45q14 -17 21 -34z" />
    <glyph glyph-name="c" unicode="c" horiz-adv-x="662" 
d="M538 404q-194 0 -223 44l-23 -21q-14 -11 -14 -18l56 -104l67 -120l155 121l74 -109l-39 -34l-324 -266l-226 394q-20 19 -20 45q0 11 5 23.5t17 24.5l18 18q17 25 43 45.5t44 36.5l-70 -25l-38 72l32 32l-1 4l255 191l31 -28l31 32l1 7l271 23l54 -46l-144 -216h15
l-9 -94h-6zM434 610l-110 99l-204 -153l10 -19l142 52q9 3 16 3q8 0 13 -6v-1q0 -16 -199 -191q-11 -11 -11 -23t11 -22l94 -165l115 83l-69 126q-2 10 -2 16q0 26 25 45zM206 167l106 -182l267 219l-32 47l-158 -124l-68 123zM648 753l-223 -19l-1 -14l76 -16q6 -2 6 -6
q0 -3 -1 -4l-122 -188q-3 -5 -3 -7q0 -25 161 -25l2 18h-9q-21 0 -21 12q0 5 5 15l146 220z" />
    <glyph glyph-name="d" unicode="d" horiz-adv-x="645" 
d="M279 374l-17 -201l36 -30l122 101l-113 104l-4 4zM493 739v-87l-13 -2l-30 -30l-41 -8l289 -242l-7 -76l-38 -34l-442 -370l-195 111l30 347l-42 19l21 68l30 30l3 8h113l-115 106l33 33l-2 2l125 125h281zM223 157l24 278h-162l-4 -13l37 -17l-30 -350l154 -88l412 345
l4 42l-166 139l-103 -105l126 -115l-217 -178zM228 701l-86 -86l233 -214l102 105l-149 126l16 32l108 20l1 17h-225z" />
    <glyph glyph-name="e" unicode="e" horiz-adv-x="704" 
d="M737 746l-144 -216h15l-9 -94h-6l-32 -32q-104 0 -161 12l171 -87l-13 -6l-29 -29l-199 -92l13 -5l368 158l-20 -227l-9 -4l-29 -29l-370 -166l-234 103q-44 36 -44 78q0 17 7 33.5t22 31.5l17 17q17 28 57 49l37 18l-74 37q-14 12 -20 23.5t-6 22.5q0 24 17 40l22 22
q6 10 21 23v-1q21 18 37 33t30 26l-71 -26l-38 72l32 32l-1 4l255 191l31 -28l31 32l1 7l271 23zM218 316l68 -32l-161 -77q-26 -13 -38 -29t-12 -33q0 -26 27 -48l216 -95l337 151l13 142l-324 -139l-128 52l268 123l-129 66zM457 610l-102 99l-212 -153l10 -19l142 52
q9 3 16 3q8 0 13 -6v-1q0 -16 -199 -191q-10 -9 -10 -17t8 -15l75 -36l137 81l-45 23q-10 4 -10 11q0 6 8 13zM671 753l-223 -19l-1 -14l76 -16q6 -2 6 -6q0 -3 -1 -4l-122 -188q-3 -5 -3 -7q0 -25 161 -25l2 18h-9q-21 0 -21 12q0 5 5 15l146 220z" />
    <glyph glyph-name="f" unicode="f" horiz-adv-x="637" 
d="M499 196h-5l-32 -32h-82l2 42t2.5 39t3.5 31t6 17l4 4h-48l-22 -253l75 -81l-39 -35l-63 -56q-63 28 -140 43t-172 16l5 77l32 31v6q16 5 28 8t22 7l37 411h-1q5 48 7.5 77.5t2.5 41.5l1 1l-73 39v68l35 31l1 7l256 26l43 -39l270 72l57 -49l-144 -216h15l-8 -77h27z
M545 415h-223l10 106h-147l-40 -447q-1 -34 -83 -58l-1 -15q155 -1 269 -53l19 17l-60 66l29 336h120q18 0 18 -67q0 -27 -3 -66h20zM348 706l-18 16l-208 -21l-1 -16l66 -34q5 -2 5 -26q0 -29 -6 -84h147l9 98l143 38q6 -2 6 -6q0 -3 -1 -4l-109 -161q-3 -5 -3 -7
q0 -25 161 -25l2 18h-9q-21 0 -21 12q0 5 5 15l146 220l-16 14l-301 -80z" />
    <glyph glyph-name="g" unicode="g" horiz-adv-x="680" 
d="M575 534l-7 -191l-24 -18q32 -54 64.5 -124t67.5 -157l-39 -34l-175 -133v-100l-14 -3l-30 -30l-67 -25l-85 163l10 25q-50 33 -91 72.5t-73.5 92.5t-58.5 122.5t-46 162.5l134 126l-67 -24l-38 72l32 32l-1 4l255 191l31 -28l31 32l1 7l271 23l54 -46zM486 370l47 7
l2 22h-227q32 -40 67 -95.5t73 -127.5l-63 -49q-56 48 -93 115l-129 -96q58 -105 145 -161l167 137q11 -20 20.5 -43.5t16.5 -49.5l-166 -122l57 -109l16 6l6 96l205 157q-37 96 -74 169.5t-74 127.5zM153 163l131 96q-7 14 -15 32t-15.5 38t-12.5 40.5t-5 39.5q0 26 25 45
l169 156l-110 99l-204 -153l10 -19l142 52q9 3 16 3q8 0 13 -6v-1q0 -16 -217 -206q13 -63 31.5 -116.5t41.5 -99.5zM660 739l-16 14l-223 -19l-1 -14l76 -16q6 -2 6 -6q0 -3 -1 -4l-122 -188q-3 -5 -3 -7q0 -25 161 -25l2 18h-9q-21 0 -21 12q0 5 5 15z" />
    <glyph glyph-name="h" unicode="h" horiz-adv-x="698" 
d="M401 585l-13 -2l-3 -28l26 29zM429 252q0 17 -21 27.5t-46 13.5l-15 -185l6 11l8 13.5t11 17.5l-1 1l15 24l17.5 27.5l14.5 23t6 10.5l1 1q4 7 4 15zM409 478q-10 6 -17 11.5t-12 11.5l-4 -51q19 2 37.5 3t36.5 1q50 0 93.5 -6.5t75.5 -23t50.5 -45.5t18.5 -75
q0 -27 -8.5 -51.5t-23 -49t-32.5 -49.5t-36 -53l-4 -2l-20 -28.5t-10 -17.5h1q13 0 64 -9l-6 -107l-38 -32l-215 26q-32 14 -45 29l-62 -52l-251 25v71l88 61l42 476h-29v80q52 51 90.5 68.5t87 33.5t103.5 26.5t108 10.5q45 0 88.5 -9.5t78 -26t56 -38t21.5 -46.5
q0 -23 -11 -36.5t-27 -22.5l-17 -17q-5 -5 -9 -8t-9 -6l-1 -72l-5 1l-33 -33zM147 50l-72 -34l-1 -16l204 -21l21 16l30 351q8 9 22.5 13.5t31.5 4.5q19 0 39.5 -5t37.5 -15t28 -24.5t11 -32.5q0 -9 -4 -20.5t-10.5 -23t-13.5 -22.5l-13 -20l117 -52l25 35t24 37.5t18.5 40
t7.5 42.5q0 39 -18.5 61.5t-47.5 34t-64.5 14t-69.5 2.5q-30 0 -59.5 -3t-56.5 -8l20 224q11 12 35.5 18.5t51.5 6.5q16 0 32 -3t28 -8.5t19.5 -12t7.5 -13.5q0 -9 -13.5 -17t-29 -14.5t-29 -13t-13.5 -13.5q0 -6 10 -12l172 -25l1 32q-21 10 -21 19q0 8 14.5 15t32 14.5
t32 17t14.5 21.5q0 15 -19 29.5t-49 26t-66.5 18.5t-70.5 7q-50 0 -100.5 -8.5t-94 -21.5t-76.5 -27t-49 -26v-28h8q10 -5 23 -17l-46 -531q-1 -8 -11 -13zM563 133l-116 50q-37 -57 -57 -93t-20 -53q0 -12 8.5 -20.5t26.5 -16.5l172 -21l2 32q-63 10 -63 38q0 14 12 35
t35 49z" />
    <glyph glyph-name="i" unicode="i" horiz-adv-x="370" 
d="M344 419l-9 -14l-8 -80l-24 -281l75 -81l-102 -91q-63 28 -140 43t-172 16l5 77l32 31q16 11 28.5 14t21.5 7l28 318l-4 14l-32 39l9 92l11 120l32 37l159 75l153 -78l-13 -148l-5 -69zM324 -35l-60 66l27 312h-147l-24 -269q-1 -34 -83 -58l-1 -15q155 -1 269 -53z
M131 655l-9 -103l109 -58l128 61l8 100l-113 58zM352 477l2 26l-125 -49l-113 50l-2 -27l27 -33l9 -27l-4 -54h147l5 56l15 23z" />
    <glyph glyph-name="j" unicode="j" horiz-adv-x="475" 
d="M385 419l-9 -14l-17 -180l-2 -28l107 -115l3 -46q-67 -95 -158 -177t-197 -139l-131 145l-94 -26l-61 56q162 123 263 220l31 263l-4 14l-32 39l9 92l11 120l32 37l159 75l153 -78l-13 -148l-5 -69zM435 57l-117 127l5 59h-147l-9 -103l122 -132q-31 -50 -84 -76
l-118 129q-79 -76 -169 -135l14 -13l95 26l127 -140q164 90 281 258zM172 655l-9 -103l109 -58l128 61l8 100l-113 58zM393 477l2 26l-125 -49l-113 50l-2 -27l27 -33l9 -27l-13 -154h147l14 156l15 23z" />
    <glyph glyph-name="k" unicode="k" horiz-adv-x="730" 
d="M399 701l31 31l1 7h327v-70l-268 -323q19 -32 46 -68t59 -63l33 38h88l-25 -291h-6l-32 -32h-134l-21 7l-58.5 46t-61.5 55l-1 -1q-13 13 -24.5 26l-22.5 26q-2 -11 -3 -23t-3 -23l74 -80l-39 -35l-63 -56q-63 28 -140 43t-172 16l5 77l32 31v6q32 9 51 16q26 174 40 292
t14 184q0 30 -5 53l-76 40v68l35 31l1 7l256 26l38 -34q12 -30 12 -82q0 -35 -3.5 -87t-10.5 -123l107 146l-86 52zM717 683l1 18h-251l-1 -13l90 -55l-2 -22l-237 -323q17 129 24.5 218t7.5 140q0 45 -6 60l-18 16l-208 -21l-1 -16l66 -34q8 -4 8 -11v-2q6 -21 6 -66
q0 -69 -14 -193t-42 -305q-1 -34 -83 -58l-1 -15q155 -1 269 -53l19 17l-60 66l15.5 119.5l14.5 107.5q20 -35 45 -68.5t54 -65.5l107 113q-22 25 -40 53.5t-34 60.5zM554 0h102l19 215h-25l-37 -63q-41 28 -80 70l-106 -113q28 -29 60 -56t67 -53z" />
    <glyph glyph-name="l" unicode="l" horiz-adv-x="660" 
d="M599 348q3 -8 6 -25t8 -48q-2 0 -3.5 -0.5t-3.5 -0.5l-31 -31q-9 -1 -17.5 -1.5t-16.5 -1.5q4 -24 13.5 -55.5t24 -68t35 -76t47.5 -78.5h-8l-32 -32h-580l14 97l31 31l3 7l37 418h-1l10 108l-73 39v70l35 31l1 7l367 14q0 -36 0.5 -63.5t4.5 -61.5l-7 -1l-31 -31l-45 -4
l-6 -76l-14 -159l196 15zM564 333l-199 -15q-2 -10 -3 -21t-1 -25q0 -29 4.5 -63.5t13.5 -67.5t23 -61.5t33 -46.5q-8 -1 -16 -1h-16q-75 0 -101 19l43 482h-147l-43 -489l-13 -9.5t-13 -7.5h-8l-4 -27h472q-24 35 -41 76t-27.5 79t-15.5 70.5t-5 51.5q0 11 8 17.5t19 10
t23 5t20 1.5q-1 10 -6 22zM207 638l-8 -85h147l9 104l73 5q-1 7 -1 19v32l-293 -12l-1 -16l66 -34q8 -4 8 -11v-2z" />
    <glyph glyph-name="m" unicode="m" horiz-adv-x="1118" 
d="M1110 725q1 -17 1.5 -36t0.5 -39q0 -248 -78 -762q-2 1 -2.5 1.5t-2.5 1.5l-32 -33q-75 36 -153.5 62.5t-160.5 43.5l33 90l30 30l3 8l32.5 -5.5t24.5 -3.5q14 106 23 188t14 143q-54 -88 -126.5 -221l-165.5 -313l-5 2l-32 -33l-62 19q23 185 37.5 318.5t20.5 218.5
q-35 -67 -76.5 -157.5t-89.5 -206.5l72 -78l-39 -35l-63 -56q-63 28 -140 43t-172 16l5 77l32 31v6q16 5 28 8t22 7l49 547l-76 39l9 68l31 31l1 7l255 26l43 -42l-23 -262l-1 -10q37 72 77 136t84 123l23 23q2 4 5 7.5t6 7.5l145 17l42 -39q2 -23 3 -45t1 -45q0 -21 -1 -44
t-3 -48q28 46 56 87t57 79l20 20q3 5 6.5 9l7.5 9l162 16l31 -29zM1072 722l-17 16l-130 -13q-120 -155 -239 -415q39 204 39 339q0 38 -3 73l-17 16l-113 -13q-159 -213 -276 -536l26 303h-147l-37 -418q-1 -34 -83 -58l-1 -15q155 -1 269 -53l19 17l-60 66l1 10
q184 447 280 543q1 -7 1.5 -16.5t0.5 -23.5q0 -70 -15 -227t-46 -406q299 576 392 673q1 -8 1.5 -18.5t0.5 -22.5q0 -64 -12 -181t-35 -291q-3 -27 -51 -27q-10 0 -21 1.5l-25 3.5l-9 -24q66 -13 125 -33t114 -46q35 232 52.5 407t17.5 297q0 20 -0.5 37.5t-1.5 34.5z
M209 654l-12 -142h147l18 210l-17 16l-208 -21l-2 -16l66 -34q8 -4 8 -11v-2z" />
    <glyph glyph-name="n" unicode="n" horiz-adv-x="782" 
d="M428 80q1 0 1 1zM409 82q40 94 61.5 201t30.5 212q-65 -89 -138 -253l-13 -152q21 -4 36.5 -6t22.5 -2zM744 709q3 -57 3 -116q0 -75 -7 -158t-21 -177q-2 -3 -2.5 -8.5t-0.5 -9.5q-15 -80 -38.5 -166.5t-57.5 -183.5q-2 1 -2.5 1.5t-2.5 1.5l-32 -33q-42 24 -89 43.5
t-102 34.5l-10 -10l-63 -56q-63 28 -140 43t-172 16l5 77l32 31v6q16 5 28 8t22 7q20 223 31 356t12 178l-69 36v68l35 31l1 7l256 26l46 -41l-13 -137q34 47 72 88.5t76 73.5l159 15l32 -28zM706 706l-18 16l-132 -13q-119 -99 -218 -317l28 314l-18 16l-208 -21l-1 -16
l66 -34q2 -2 2 -17q0 -42 -11 -181.5t-33 -378.5q-1 -34 -83 -58l-1 -15q155 -1 269 -53l19 17l-60 66l19 221q143 314 248 367v-14q0 -78 -8 -151.5t-23 -145.5l142 -24q24 153 24 309q0 56 -3 113zM681 263l-143 25q-27 -115 -75 -217q-3 -27 -51 -27q-10 0 -21 1.5
l-25 3.5l-9 -24q148 -25 242 -79q28 78 48 157t34 160z" />
    <glyph glyph-name="o" unicode="o" horiz-adv-x="662" 
d="M387 90q-16 38 -29.5 79.5t-23.5 85.5l-14 -173q5 -1 11 -1h15q20 0 42 5q0 1 -0.5 2t-0.5 2zM604 538q-26 -8 -33 -35.5t-7 -58.5q0 -30 4.5 -63t12.5 -65.5t19 -63.5t25 -56q9 -20 14.5 -41t5.5 -44q0 -42 -16.5 -79.5t-51.5 -59.5l-15 -15q-17 -17 -41.5 -27
t-52.5 -15.5t-56.5 -7.5t-53.5 -2q-53 0 -104 9t-94.5 23.5t-77.5 31.5t-55 34q0 16 1 26.5t2.5 18.5t4 16t4.5 19l30 30q0 2 1 3q18 199 27 318t10 160l-69 36v70l35 31l1 7h585l-17 -168q-6 -2 -8 -2zM454 138q5 -15 5 -24q0 -18 -10.5 -31.5t-27 -22t-36.5 -13t-39 -4.5
q-22 0 -40.5 5.5t-25.5 16.5l8 90h-147l-5 -55l-13 -9.5t-13 -7.5h-8q-1 -7 -2.5 -14t-2.5 -14q17 -14 46.5 -28t68.5 -25t85.5 -18.5t96.5 -7.5q42 0 80.5 5t68 20t47 41.5t17.5 69.5q0 37 -16 68q-29 56 -47 127.5t-18 137.5q0 62 18.5 105.5t61.5 51.5l11 120h-507
l-1 -37l66 -34q2 -2 2 -19q0 -38 -9 -152t-26 -305h147l42 482l81 6q-17 -34 -25 -77t-8 -92q0 -87 21 -180.5t54 -175.5z" />
    <glyph glyph-name="p" unicode="p" horiz-adv-x="698" 
d="M349 419l-3 -43l74 52q-38 11 -67 27l-3 -36h-1zM534 337l-90.5 -61l-113.5 -74l-13 -158l75 -81l-68 -61l-34 -31q-129 58 -312 60l5 77l32 31v6q16 5 28 8t22 7l32 360l2 17l8 97.5t3 54.5l2 3l-73 38v68l35 31l1 7l256 26l42 -38q19 10 40 19t40.5 15.5t36.5 10.5
t28 4q5 0 11 -0.5t14 -4.5l84 -42q-7 -4 -14 -7l-28 -28q-19 -9 -33 -17l-25 -14q0 -20 19 -40.5t46 -36.5t57 -26t51 -10h123l-9.5 -6.5t-11.5 -8.5l-23 -23l-46.5 -33l-67.5 -47.5l-71.5 -50.5zM304 301l-3 -4l12 140h-147l-32 -363q-1 -34 -83 -58l-1 -15q157 -2 269 -53
l19 17l-60 66l17 202l143 93.5l110.5 74.5l86 59l69.5 49h-4q-26 0 -62 13.5t-69 35t-56.5 48.5t-23.5 54q0 18 12 35t41 31l-16 8q-2 1 -8 1q-15 0 -41.5 -8t-54 -20t-52.5 -26t-38 -27l5 52l-18 16l-208 -21l-1 -16l66 -34q4 -2 4 -27q0 -46 -12 -167h147l11 128
q16 -23 40.5 -40.5t54 -30.5t63.5 -22.5t69 -16.5z" />
    <glyph glyph-name="q" unicode="q" horiz-adv-x="669" 
d="M379 92q-16 37 -28.5 77.5t-23.5 82.5l-14 -170q5 -1 11 -1h15q20 0 42 5q0 1 -0.5 2t-0.5 2zM597 538q-12 -4 -20 -13.5t-12 -22.5t-5.5 -28.5t-1.5 -30.5q0 -30 4 -62.5t12 -65t19 -63t25 -56.5q9 -20 14.5 -41t5.5 -44q0 -30 -9 -58.5t-27 -51.5q5 4 10 7.5t10 8.5
l70 -67l-183 -228q-2 2 -2 3l-33 -33l-39.5 54l-43.5 57.5l-43 55l-38 48.5q-47 3 -91.5 12.5t-82 23.5t-67.5 30t-49 31q0 15 1 25.5t2.5 18.5t4 16t4.5 19l30 30l36 405h-2q4 32 6 50.5t2 23.5l-73 38v70l35 31l1 7h585l-17 -168q-6 -2 -8 -2zM447 138q5 -15 5 -24
q0 -18 -10.5 -31.5t-27 -22t-36.5 -13t-39 -4.5q-22 0 -40.5 5.5t-25.5 16.5l44 503h-147l-41 -468l-13 -9.5t-13 -7.5h-8q-1 -7 -2.5 -14t-2.5 -14q16 -13 43 -26.5t62.5 -24.5t78 -19t89.5 -9l71 -90.5l76 -101.5l131 163l-21 20q-61 -49 -88 -49q-9 0 -15 7l-51 56
q68 8 101 39.5t33 90.5q0 38 -16 69q-29 57 -46.5 128.5t-17.5 136.5q0 62 18.5 105.5t60.5 51.5l11 120h-507l-1 -37l66 -34q6 -3 6 -24q0 -15 -3 -39h147l6 69l81 6q-17 -34 -25 -77t-8 -92q0 -87 21 -180.5t54 -175.5z" />
    <glyph glyph-name="r" unicode="r" horiz-adv-x="745" 
d="M342 405l-3 -32l92 58q-22 6 -43 13.5t-41 15.5l-4 -55h-1zM347 -71l-4 -26l-59 -31q-63 28 -140 43t-172 16l5 77l32 31v6q16 5 28.5 8t21.5 7l33 363l8.5 102t3.5 63l2 3l-73 39v68l35 31l1 7l256 26l41 -37q19 10 40 19t40.5 15.5t36 10t28.5 3.5q5 0 11.5 -0.5
t14.5 -4.5l87 -43q-5 -2 -13 -6l-29 -29l-39.5 -19t-29.5 -15q2 -20 24.5 -39.5t53.5 -35t65 -25t58 -9.5h97q-8 -6 -13.5 -11t-12.5 -10l-17 -17l-77.5 -60l-83.5 -61l-102 -70l73 -121l9 18l28 28l5 10h91l-25 -291h-6l-32 -32h-226l-106 177l-5 -63l75 -81zM331 706
l-18 16l-208 -21l-1 -16l66 -34q4 -2 4 -28q0 -24 -3.5 -69t-9.5 -111h147l12 142q16 -23 45.5 -40.5t65 -30t74 -22t73.5 -16.5l-280 -175l179 -301h174l19 215h-26l-44 -91h-22l-128 211q267 173 268 174h-4q-30 0 -71 13.5t-78.5 34.5t-63.5 48t-26 54q0 18 14.5 35
t46.5 32l-16 8q-2 1 -9 1q-16 0 -41.5 -7.5t-53 -19t-52 -26t-38.5 -28.5zM332 -35l-60 66l34 392h-147l-31 -349q-1 -34 -83 -58l-1 -15q155 -1 269 -53z" />
    <glyph glyph-name="s" unicode="s" horiz-adv-x="661" 
d="M401 192q0 31 -6 69h-61l67 -74v5zM317 496l-26 -58h54q-14 10 -14 26q0 10 2 15t7 11l52 81q-14 -5 -27 -10.5t-24 -12.5l-23 -52h-1zM735 746l-144 -216h15l-9 -94h-6l-16 -16l9 -6q57 -138 57 -251q0 -100 -55 -201h-5l-32 -32h-260l-134 146l-40 -112h-5l-32 -32h-94
l30 337l19 18l-21 23l68 194l33 91l1 5l-95 26l5 75l31 31l1 7h330l23 23l1 7l271 23zM549 400h-316l51 114h-140l-57 -161l20 -22h353q11 -61 11 -104q0 -89 -41 -128l-155 170h-194l-24 -267h31l68 189l13 -4l171 -187h223q40 74 40 163q0 106 -54 237zM669 753l-223 -19
l-1 -14l76 -16q4 -1 4 -3h-433l-1 -14l95 -26l-3 -38l-32 -89h142l17 37q56 71 191 86l-97 -151q-3 -5 -3 -7q0 -25 161 -25l2 18h-9q-21 0 -21 12q0 5 5 15l146 220z" />
    <glyph glyph-name="t" unicode="t" horiz-adv-x="792" 
d="M481 -128q-63 28 -140 43t-172 16l5 77l31 31l1 6q16 5 28 8t22 7l18 196l-5 -5l-219 162l31 62l19 19l-79 107l31 35l160 141l164 -87l197 103l-7 -82l140 67l141 -147l-109 -119l22 2l25 -71l-39 -33l-218 -143l-8 -79l-12 -144l75 -81zM699 731l-176 -84l7 81
l-154 -80l-159 83l-114 -100l124 -167l-91 9l-7 -14l170 -126l29 31l-82 189l71 69l54 -29l-32 -367h147l32 366l61 30l59 -69l-114 -189l23 -31l192 126l-5 14l-91 -9l152 167zM529 -35l-60 66l15 175h-147l-12 -132q-1 -34 -83 -58l-1 -15q155 -1 269 -53z" />
    <glyph glyph-name="u" unicode="u" horiz-adv-x="633" 
d="M315 81l15 198q-26 -62 -44 -98t-34 -63v1q-4 -8 -4 -14q0 -12 20 -18t43 -6h4zM687 655l-28 -28l-46 -22l-42 -484h28v-52q0 -3 0.5 -7.5t5.5 -22.5q-62 -51 -100 -68.5t-84.5 -32t-98.5 -24t-105 -9.5q-46 0 -87.5 6t-73 22t-50 44.5t-18.5 72.5q0 29 10 59.5t29 56.5
l-1 -1q25 35 44.5 81t40.5 108l-1 2q6 21 11.5 45t9 48t6 47t2.5 41q0 38 -14 62.5t-43 30.5l10 96l31 31l1 7l226 -27l13.5 -20.5t11.5 -20.5l25 29l46 36l255 -25v-76zM588 651l72 34l1 16l-204 21l-20 -16l-56 -641q-9 -11 -28.5 -16.5t-41.5 -5.5q-17 0 -35 4t-33 11.5
t-24.5 19t-9.5 27.5q0 15 9.5 36t24 47l30.5 56.5t30 64.5l-130 52q-17 -50 -38 -98t-45 -83q-16 -21 -24 -46t-8 -49q0 -38 18.5 -60t47 -33t62.5 -14t66 -3q50 0 97.5 7.5t88 19t72.5 25.5t52 28q-1 4 -1 14v14h-8q-9 4 -22 17l47 538q1 8 10 13zM178 381l133 -53
q24 66 38.5 130t14.5 118q0 38 -8 69.5t-26 55.5l-172 21l-3 -30q28 -6 41 -38t13 -82q0 -42 -7.5 -91.5t-23.5 -99.5z" />
    <glyph glyph-name="v" unicode="v" horiz-adv-x="686" 
d="M435 438q0 90 -51 165q13 -54 24.5 -114.5t22.5 -127.5q2 9 2 17q0 9 2 18v42zM20 700l32 32l-1 6q96 0 174.5 14.5t142.5 45.5l67 -58l-22 -27l242 84q20 -50 30.5 -96t10.5 -91q0 -22 -2.5 -48t-7.5 -58l2 1l-13 -59l-2 -1q-30 -114 -76 -231t-111 -244l-38 -34
l-39 -29l-249 25l-13 67l32 32l-1 5l21 11.5t18 9.5q-27 328 -98 527q-2 15 -84 37zM430 98q-40 343 -102 571l54 66l-20 17q-108 -52 -265 -52l3 -16q85 -24 89 -58q76 -206 101 -564v-1q0 -9 -69 -46l3 -16l210 -21l22 16q70 138 115 251.5t67 210.5l-133 -27
q-9 -137 -75 -331zM505 450l138 28q15 72 15 132q0 40 -6.5 74.5t-18.5 64.5l-197 -68q69 -68 69 -208v-23z" />
    <glyph glyph-name="w" unicode="w" horiz-adv-x="926" 
d="M627 200l8 86q-17 -45 -37.5 -87t-43.5 -81v1q-4 -8 -4 -14q0 -12 20 -18t43 -6h4zM430 516q0 52 -22 80v-5q0 -52 -13 -111t-35 -121t-51.5 -123.5t-62.5 -117.5h-1q-4 -8 -4 -15q0 -11 16 -16t36 -6q4 22 12.5 43.5t23.5 41.5l-1 -1q22 31 41 74.5t32.5 91t21 95.5
t7.5 90zM637 737q10 -14 18 -28.5t14 -30.5l1 11l32 36l46 36l255 -25v-76l-14 -5l-28 -28l-46 -22l-38 -423l-4 -61h28v-52q0 -4 0.5 -9t4.5 -20q-3 -2 -6 -4.5t-7 -4.5l-25 -25q-24 -17 -61.5 -35t-84 -32.5t-98.5 -24t-103 -9.5q-39 0 -77.5 5.5t-75.5 16.5
q-37 -10 -78 -15.5t-85 -5.5t-84 6t-71 22t-49.5 44t-18.5 72q0 29 10 59.5t29 56.5l-1 -1q24 34 46 81.5t39 99t27.5 103t10.5 93.5q0 31 -12.5 52t-41.5 27l11 105l31 31l1 7l226 -27q10 -13 18 -29l3 18l31 31l1 7zM833 100l8 100h-147l-11 -135q-9 -11 -28.5 -16.5
t-41.5 -5.5q-17 0 -35 4t-33 11.5t-24.5 19t-9.5 27.5t10 33q28 50 52.5 104.5t42.5 109.5t28.5 108.5t10.5 100.5q0 42 -9 78t-29 62l-172 21l-4 -38q32 -6 45.5 -42.5t13.5 -90.5q0 -44 -8 -95t-22.5 -101t-34.5 -96t-43 -79q-16 -21 -23.5 -45.5t-7.5 -47.5v-13t2 -12
q-9 -9 -26.5 -14t-37.5 -5q-17 0 -34.5 3.5t-31.5 11t-22.5 19t-8.5 26.5t11 35q31 55 59 113.5t50 117t35 114.5t13 105v3q0 66 -32 110l-172 21l-4 -38q27 -5 39 -33.5t12 -73.5q0 -44 -10.5 -98t-28.5 -109t-41.5 -105t-48.5 -85q-16 -22 -24 -47t-8 -49
q0 -38 18.5 -59.5t46 -32.5t60.5 -13.5t63 -2.5q44 0 85 6t79 17q36 -13 74.5 -18.5t77.5 -5.5q49 0 96 7.5t88 19t73 25.5t51 28q-1 4 -1 14v14h-8q-9 4 -22 17zM890 651l72 34l1 16l-204 21l-20 -16l-43 -486h147l37 418q1 8 10 13z" />
    <glyph glyph-name="x" unicode="x" horiz-adv-x="645" 
d="M327 235l-10 -120l9 9q11 14 24 27.5l27 27.5l18 29q0 14 -21.5 20.5t-44.5 6.5h-2zM362 471l8 102q-14 -21 -33.5 -47.5t-39.5 -64.5q-7 -11 -7 -17q0 -12 20 -18t43 -6h4zM459 761l255 -25l-4 -76q-3 -2 -5.5 -3t-4.5 -2l-28 -28q-14 -8 -25.5 -12.5t-20.5 -8.5l-4 -47
h1l-10 -99h29v-85q-5 -3 -8 -5.5t-6 -4.5l-7 -7q17 -23 25.5 -45.5t8.5 -49.5q0 -33 -12.5 -63.5t-30 -56t-36.5 -47l-33 -36.5l-7 -7h2q20 0 50 -3l-3 -108l-6 1l-32 -33l-210 26q-38 11 -55 26l-58 -48l-251 25v71l36 31v6l51 24l12 124h-29v80l22 22q-19 24 -27 44.5
t-8 47.5q0 30 10.5 58t26.5 52.5t33.5 45.5l31.5 38l3 3l32 38q-8 -3 -21 -3q-9 0 -20.5 1t-26.5 3l3 102l32 32v6l220 -27q28 -12 44 -32l15 19zM118 56l-72 -34l-1 -16l204 -21l20 16l25 282q9 11 28.5 16.5t41.5 5.5q18 0 36 -4t32.5 -11.5t23.5 -19t9 -27.5
q0 -22 -21 -48t-46.5 -52.5t-46.5 -51.5t-21 -45q0 -13 10.5 -23t35.5 -17l172 -21l1 30q-39 4 -57 7t-18 11q0 6 8 15.5l22 25.5l34.5 39t46.5 55q16 21 24 46t8 49q0 38 -22 66q-16 22 -139 22q58 10 85.5 16t39 10.5t13.5 8t10 8.5v28h-8q-11 4 -23 17l8 82h-147
l-11 -117q-9 -11 -28.5 -16.5t-41.5 -5.5q-18 0 -36 4t-32.5 11.5t-23.5 19t-9 27.5t10 33q21 37 41 66l36 51.5t26 39.5t10 30q0 11 -7.5 20t-24.5 17l-172 21l-1 -30q38 -4 56 -9t18 -16q0 -16 -30 -49.5t-82 -98.5q-16 -21 -24 -46t-8 -49q0 -20 6 -36.5t22 -33.5
q22 -25 139 -25q-135 -21 -154 -36v-28h8q10 -5 23 -17l-16 -179q-1 -8 -10 -13zM450 706l-15 -165h147l9 97q2 9 82 47l1 16l-204 21z" />
    <glyph glyph-name="y" unicode="y" horiz-adv-x="640" 
d="M315 85h12l9 104q-6 -12 -17.5 -25t-24 -25.5l-23 -23.5t-14.5 -20q5 -5 21.5 -7.5t36.5 -2.5zM286 414q0 -17 21 -27t45 -12l16 180l-57.5 -83.5t-24.5 -57.5zM699 655l-28 -28l-46 -22l-42 -477h29v-84l-6.5 -4.5l-6.5 -4.5l-25 -25q-23 -17 -60 -34t-83 -31.5
t-98 -23.5t-104 -9q-37 0 -80 5t-80 19.5t-61.5 40t-24.5 66.5q0 20 8 42t28 42l14 14q9 14 27 31q-2 0 -3 1l5 90q-17 18 -25.5 42.5t-8.5 53.5t9.5 59.5t27.5 56.5l3 3q2 3 3.5 6t3.5 5l24 34q27 35 44.5 61.5t17.5 31.5h-1q-3 0 -18.5 3t-45.5 8l6 99l31 31l1 7l219 -26
q15 -8 26 -15t19 -16l14 18l46 36l255 -25v-76zM600 651l72 34l1 16l-204 21l-20 -16l-31 -351q-8 -9 -22.5 -13.5t-31.5 -4.5q-19 0 -39.5 5t-37.5 15t-28 24.5t-11 32.5q0 13 7 28t16 28l-122 49l-10 -14q-18 -29 -29.5 -54.5t-11.5 -56.5q0 -38 18 -59.5t46.5 -32.5
t64 -14t70.5 -3q30 0 59.5 3t56.5 8l-20 -224q-11 -13 -32.5 -19t-45.5 -6q-17 0 -33 3t-29.5 8t-23 13t-11.5 18v3q0 17 14 35t31.5 35.5t31.5 34t14 31.5q0 9 -6 18l-172 25l-2 -32q20 -2 28 -6.5t8 -11.5q0 -10 -13.5 -22.5t-31 -26l-33.5 -27t-22 -25.5q-12 -23 -12 -42
q0 -31 21.5 -49.5t53.5 -28.5t69 -13.5t68 -3.5q50 0 97.5 7t88 18.5t72.5 25.5t51 28v28h-8q-11 4 -23 17l47 531q1 8 10 13zM161 536l121 -49l70 115t25 61q0 13 -8.5 21.5t-26.5 16.5l-172 21l-2 -32q33 -6 48 -15t15 -24q0 -17 -19 -45t-51 -70z" />
    <glyph glyph-name="z" unicode="z" horiz-adv-x="692" 
d="M735 739l-6 -83l-8 -2l-30 -30l-60 -16l26 -138q-4 -2 -10 -4l-29 -29q-87 -35 -150.5 -66.5t-105 -61.5t-61.5 -61.5t-20 -66.5l2 -15q4 -28 28 -58l203 199h158l-30 -343h-6l-32 -32h-92l-29 162l-145 -132l-35 -32h-258q-35 65 -43.5 114t-0.5 93.5t31 89.5h1
q17 36 49 68l9 9q81 101 302 189l-7 29q-42 63 -122 69l-42 -130h-5l-32 -32h-86v272l17 38h619zM156 701v-202h39l53 162h38q112 0 168 -90l23 -87q-115 -41 -192 -81t-124.5 -82t-68.5 -87t-24 -94l175 36v5q0 40 19.5 78t63.5 76t114.5 77t173.5 81l-23 130l3 38l99 26
l1 14h-538zM246 156l-179 -36q2 -61 34 -120h223l203 187l15 4l34 -189h31l24 267h-102l-219 -214q-54 46 -64 101z" />
    <glyph glyph-name="ellipsis" unicode="&#x2026;" horiz-adv-x="1596" 
d="M17 123l32 31v6l159 75l153 -78l-13 -147l-10 -5l-28 -28l-160 -77l-146 74zM76 32l109 -58l127 61l9 100l-113 58l-123 -58zM624 123l32 31v6l159 75l153 -78l-13 -147l-10 -5l-28 -28l-160 -77l-146 74zM683 32l109 -58l127 61l9 100l-113 58l-123 -58zM1231 123l32 31
v6l159 75l153 -78l-13 -147l-10 -5l-28 -28l-160 -77l-146 74zM1290 32l109 -58l127 61l9 100l-113 58l-123 -58z" />
    <glyph glyph-name="circumflex" unicode="&#x2c6;" horiz-adv-x="425" 
d="M495 717h-15l-32 -32h-543l32 32h-9l285 174zM213 846l-149 -91h296z" />
    <glyph glyph-name="Scaron" unicode="&#x160;" horiz-adv-x="1065" 
d="M804 193q0 16 -1.5 33t-3.5 35h-61l66 -73v5zM748 554l-53 -116h54q-14 10 -14 26q0 10 2 15t7 11l58 91q-16 -4 -32.5 -9t-20.5 -16zM1132 883l-23 -14l-24 -24l-102 -62l102 9l54 -46l-144 -216h15l-9 -94h-6l-11 -11q29 -76 44.5 -141t15.5 -119v-54h-3
q-5 -37 -18 -74t-33 -75h-5l-32 -32h-260l-12 13h-194l-5 -11h-94l30 337l18 18l-10 11l-193 26l15 -73l-7 5l-33 -33l-203 161l14 61l31 30l1 8l162 42l-43 94q-10 18 -10 33q0 21 12 33l23 23q12 31 62 31h456l-171 106l32 32l-9 6h567zM318 471l-78 -16l-1 -14l219 -19
l18 14l-108 202q0 26 211 26l11 -3l-3 -38l-96 -270l20 -22h353q10 -56 10 -103v-20t-2 -18l134 -31v6q0 53 -13.5 111t-39.5 124h-316l77 171q20 44 69.5 64.5t121.5 21.5l-97 -151q-3 -5 -3 -7q0 -25 161 -25l2 18h-9q-21 0 -21 12q0 5 5 15l146 220l-16 14l-223 -19
l-1 -14l76 -16q4 -1 4 -3h-672q-27 0 -27 -14q0 -6 7 -18l88 -190q0 -6 -7 -8zM1006 137l-137 33q-9 -45 -35 -71l-155 170h-194l-24 -267h31l68 189l13 -4l171 -187h223q33 61 39 137zM473 367l8 29l-302 33l73 67l-169 -45l-4 -18l111 -88l-13 63zM700 845l147 -91l149 91
h-296zM402 641l93 -168l64 164zM582 116l-23 -108h118z" />
    <glyph glyph-name="OE" unicode="&#x152;" horiz-adv-x="1604" 
d="M970 434q17 16 31.5 28t25.5 23l-57 -21v-22v-8zM791 92q-16 38 -29 79t-23 85l-14 -174q5 -1 11 -1h15q19 0 41 5q0 2 -0.5 2.5t-0.5 2.5v1zM1449 530h15l-9 -94h-6l-32 -32q-104 0 -161 12l171 -87l-13 -6l-29 -29l-199 -92l13 -5l368 158l-20 -227l-9 -4l-29 -29
l-370 -166l-136 61q-9 -9 -24 -19l-14 -15q-17 -17 -41 -27t-51.5 -15t-56 -7t-53.5 -2q-53 0 -104 9t-94.5 23.5t-77.5 31.5t-55 34q0 16 1 26.5t2.5 18.5t4 16t4.5 19l30 30l15 163l-264 39v-49l-5 4l-33 -33l-188 148l26 59l29 29l4 9l194 31l-50 108q-5 9 -7 16.5
t-2 15.5q0 22 13 35l23 23q12 28 60 30l775 20l-11 -117l152 114l31 -28l31 32l1 7l271 23l54 -46zM1211 397l-137 -81l68 -32l-160 -77q-23 56 -36.5 116.5t-13.5 118.5q0 63 18.5 107.5t60.5 52.5l11 120l-732 -19q-27 0 -27 -15q0 -7 6 -17l88 -188q2 -8 -85 -26l-1 -14
l219 -19l18 14l-108 200q0 1 -0.5 1.5t-0.5 1.5q0 24 158 29q18 -6 18 -103q0 -38 -3 -88t-8 -114h147l25 292l81 6q-17 -34 -25 -76t-8 -90q0 -87 21.5 -181t53.5 -178q5 -15 5 -24q0 -18 -11 -31.5t-27.5 -22t-36.5 -13t-38 -4.5q-22 0 -40.5 5.5t-25.5 16.5l24 280h-147
l-21 -245l-13 -9.5t-13 -7.5h-8q-1 -7 -2.5 -14t-2.5 -14q17 -14 46.5 -28t68.5 -25.5t85 -19t96 -7.5q29 0 61.5 2.5t61.5 11.5t51.5 27t32.5 50l3 9l166 -73l337 151l13 142l-324 -139l-128 52l268 123zM1144 454l169 156l-110 99l-204 -153l10 -19l142 52q9 3 16 3
q8 0 13 -6v-1q0 -16 -199 -191q-10 -9 -10 -17t8 -15l75 -36l137 81l-45 23q-10 4 -10 11q0 6 8 13zM1543 739l-16 14l-223 -19l-1 -14l76 -16q6 -2 6 -6q0 -3 -1 -4l-122 -188q-3 -5 -3 -7q0 -25 161 -25l2 18h-9q-21 0 -21 12q0 5 5 15zM187 398l349 -53l2 41l-332 47
l29 38l-151 -24l-7 -16l110 -86v53zM545 467v170h-105l85 -170h20z" />
    <glyph glyph-name="quoteleft" unicode="&#x2018;" horiz-adv-x="337" 
d="M164 487q-117 100 -217 329l33 32l-3 6h318l6 -94l-30 -25q14 -49 42 -103.5t73 -116.5l-9 -1l-31 -31h-158zM222 548l93 3q-74 105 -91 217l37 16l-2 32h-223q76 -173 186 -268z" />
    <glyph glyph-name="quoteright" unicode="&#x2019;" horiz-adv-x="355" 
d="M326 768q-38 -80 -86 -143.5t-106 -114.5h-2l-17 -16.5l-17 -15.5l-171 5q95 134 117 229l-45 19l9 85l32 31v7h284l6 -68zM292 784l-3 32h-214l-3 -28l47 -20q-17 -112 -91 -217l93 -3q98 86 171 236z" />
    <glyph glyph-name="quotedblleft" unicode="&#x201c;" horiz-adv-x="546" 
d="M482 730q15 -48 42.5 -101t71.5 -114h-8l-32 -32l-171 -5l-12 10.5l-11 10.5l-16 -16h-158l-24 4q-117 100 -217 329l33 32l-3 6h536l9 -90l-9 -4l-29 -29zM222 548l93 3q-74 105 -91 217l37 16q73 -150 171 -236l93 3q-74 105 -91 217l47 20l-3 28h-442
q76 -173 186 -268z" />
    <glyph glyph-name="quotedblright" unicode="&#x201d;" horiz-adv-x="563" 
d="M8 816l32 31v7h536q-51 -118 -109 -203t-123 -141l-6 -4l-15 -14.5l-15 -13.5l-106 3l-28 55q13 19 25 39q-32 -36 -65 -65h-2l-17 -16.5l-17 -15.5l-171 5q95 134 117 229l-45 19zM238 551l93 -3q110 95 186 268h-442l-3 -28l47 -20q-17 -112 -91 -217l93 -3
q98 86 171 236l37 -16q-17 -112 -91 -217z" />
    <glyph glyph-name="bullet" unicode="&#x2022;" horiz-adv-x="577" 
d="M303 544l235 -120l-20 -219l-10 -5l-28 -28l-251 -121l-225 119l19 220l31 31l1 6zM91 402l-15 -177l188 -100l218 105l16 172l-195 100z" />
    <glyph glyph-name="endash" unicode="&#x2013;" horiz-adv-x="609" 
d="M596 355l-41 -124h-5l-32 -32h-502l39 118l30 30l3 8h508zM115 317l-16 -48h429l16 48h-429z" />
    <glyph glyph-name="emdash" unicode="&#x2014;" horiz-adv-x="838" 
d="M806 355l-41 -124h-5l-32 -32h-712l39 118l30 30l3 8h718zM115 317l-16 -48h639l16 48h-639z" />
    <glyph glyph-name="tilde" unicode="&#x2dc;" horiz-adv-x="439" 
d="M263 848l97 57l46 -54l-132 -153l-35 -31l-87 57l-102 -52l-39 54l33 32l-2 3l138 133zM185 847l-107 -104l111 56l78 -51l100 117l-104 -60z" />
    <glyph glyph-name="scaron" unicode="&#x161;" horiz-adv-x="661" 
d="M401 192q0 31 -6 69h-61l67 -74v5zM317 496l-26 -58h54q-14 10 -14 26q0 10 2 15t7 11l52 81q-14 -5 -27 -10.5t-24 -12.5l-23 -52h-1zM591 530h15l-9 -94h-6l-16 -16l9 -6q57 -138 57 -251q0 -100 -55 -201h-5l-32 -32h-260l-134 146l-40 -112h-5l-32 -32h-94l30 337
l19 18l-21 23l68 194l33 91l1 5l-95 26l5 75l31 31l1 7h193l-171 106l32 32l-9 6h567l-23 -14l-24 -24l-109 -68l169 15l54 -46zM549 400h-316l51 114h-140l-57 -161l20 -22h353q11 -61 11 -104q0 -89 -41 -128l-155 170h-194l-24 -267h31l68 189l13 -4l171 -187h223
q40 74 40 163q0 106 -54 237zM685 739l-16 14l-223 -19l-1 -14l76 -16q4 -1 4 -3h-433l-1 -14l95 -26l-3 -38l-32 -89h142l17 37q56 71 191 86l-97 -151q-3 -5 -3 -7q0 -25 161 -25l2 18h-9q-21 0 -21 12q0 5 5 15zM236 845l147 -91l149 91h-296z" />
    <glyph glyph-name="oe" unicode="&#x153;" horiz-adv-x="1177" 
d="M781 447q0 1 -1 1zM565 441q15 14 27.5 24.5l22.5 19.5l-49 -18q-1 -6 -1 -13v-12v-1zM386 91q-16 38 -29 79.5t-23 84.5l-14 -173q5 -1 11 -1h15q19 0 41 5q0 2 -0.5 2.5t-0.5 2.5zM1036 530h15l-9 -94h-6l-32 -32q-104 0 -161 12l171 -87l-13 -6l-29 -29l-199 -92
l13 -5l368 158l-20 -227l-9 -4l-29 -29l-370 -166l-133 58l-34 -31q-17 -17 -41.5 -27t-51.5 -15.5t-55.5 -7t-52.5 -1.5q-53 0 -104 9t-94.5 23.5t-77.5 31.5t-55 34q0 16 1 26.5t2.5 18.5t4 16t4.5 19l30 30q0 2 1 3q18 199 27 318t10 160l-69 36v70l35 31l1 7h585
l-10 -87l143 107l31 -28l31 32l1 7l271 23l54 -46zM798 397l-137 -81l68 -32l-153 -73q-24 51 -36.5 113t-12.5 118q0 63 18.5 107.5t60.5 52.5l11 120h-507l-1 -37l66 -34q2 -2 2 -19q0 -38 -9 -152t-26 -305h147l42 482l81 6q-17 -34 -25 -76t-8 -90q0 -87 21.5 -181
t53.5 -178q5 -15 5 -24q0 -18 -11 -31.5t-27.5 -22t-36.5 -13t-38 -4.5q-22 0 -40.5 5.5t-25.5 16.5l8 90h-147l-5 -55l-13 -9.5t-13 -7.5h-8q-1 -7 -2.5 -14t-2.5 -14q17 -14 46.5 -28t68.5 -25.5t85 -19t96 -7.5q29 0 61.5 2.5t61.5 11.5t51.5 27t32.5 50q1 2 1 3t1 3
l159 -70l337 151l13 142l-324 -139l-128 52l268 123zM731 454l169 156l-110 99l-204 -153l10 -19l142 52q9 3 16 3q8 0 13 -6v-1q0 -16 -199 -191q-10 -9 -10 -17t8 -15l75 -36l137 81l-45 23q-10 4 -10 11q0 6 8 13zM1130 739l-16 14l-223 -19l-1 -14l76 -16q6 -2 6 -6
q0 -3 -1 -4l-122 -188q-3 -5 -3 -7q0 -25 161 -25l2 18h-9q-21 0 -21 12q0 5 5 15z" />
    <glyph glyph-name="Ydieresis" unicode="&#x178;" horiz-adv-x="1092" 
d="M767 85h12l9 104q-6 -12 -17.5 -25t-24 -25.5l-23 -23.5t-14.5 -20q5 -5 21.5 -7.5t36.5 -2.5zM746 399q10 -10 25.5 -16t32.5 -8l16 180q-14 -25 -33.5 -56l-43.5 -72v1q-5 -10 -5 -14v-3q2 -5 4 -7.5t4 -4.5zM1053 880l-12 -132l124 -12l-4 -76q-3 -2 -5.5 -3t-4.5 -2
l-28 -28q-14 -8 -25.5 -12.5t-20.5 -8.5l-42 -478h29v-84l-6.5 -4.5l-6.5 -4.5l-25 -25q-23 -17 -60 -34t-83 -31.5t-98 -23.5t-104 -9q-70 0 -133 16h-1q-46 11 -79 40.5t-33 74.5q0 20 8 42t28 42l14 14q10 17 27 31q-2 0 -3 1l5 90q-4 4 -7.5 9t-8.5 15l-15 -4v7t-0.5 14
t-2 16t-3.5 13l3 6l-220 29l6 -51l-6 4l-33 -33l-190 136l14 60l30 30l2 8l175 41l-47 104q-5 8 -7 16t-2 16q0 21 15 36l22 22q15 28 65 43l338 -43l8 85l31 31l1 7h371zM705 391l-146 -45q9 -21 30 -33t48 -18.5t56.5 -8t55.5 -1.5q30 0 59.5 3t56.5 8l-20 -224
q-11 -13 -32.5 -19t-45.5 -6q-17 0 -33 3t-29.5 8t-23 13t-11.5 18v3q0 17 14 35t31.5 35.5t31.5 34t14 31.5q0 9 -6 18l-172 25l-2 -32q20 -2 28 -6.5t8 -11.5q0 -10 -13.5 -22.5t-31 -26l-33.5 -27t-22 -25.5q-12 -23 -12 -42q0 -31 21.5 -49.5t53.5 -28.5t69 -13.5
t68 -3.5q50 0 97.5 7t88 18.5t72.5 25.5t51 28v28h-8q-11 4 -23 17l47 531q2 9 82 47l1 16l-204 21l-20 -16l-31 -351q-8 -9 -22 -13.5t-31 -4.5q-32 0 -63.5 13t-48.5 41zM359 519l-78 -16l-1 -14l219 -19l18 14l-108 200q-3 7 -3 12q0 16 23 16l206 -26q49 -12 49 -34
q0 -21 -29 -58.5t-74 -103.5q-15 -22 -23 -47t-8 -49q0 -8 0.5 -13t2.5 -16l147 45v4q0 18 10 34l50 83l37.5 60.5t23.5 43t8 29.5t-8.5 20.5t-26.5 16.5l-487 60q-35 -9 -35 -27q0 -8 6 -17l88 -190q0 -6 -7 -8zM213 451l313 -43l2 31l-309 34l58 56l-162 -39l-4 -17
l108 -77zM653 651l-207 37l85 -170zM900 842l-9 -98h112l9 98h-112zM825 842h-108l-9 -98h108z" />
    <glyph glyph-name="exclamdown" unicode="&#xa1;" horiz-adv-x="435" 
d="M393 349l-40 -40l-7 -14l-17 -186l-14 -170q0 -4 75 -27l-5 -82h-6l-32 -32q-185 0 -321 -57l-57 60l33 33l-2 2l57 54l34 376l-6 12l-38 41l8 90l11 123l31 31l1 6l159 75l153 -78l-10 -114zM277 -57l16 184h-147l-20 -227l-72 -66l16 -17q121 51 279 51l1 17
q-73 23 -73 54v4zM125 444l116 -61l120 58l9 103l-113 58l-123 -58zM358 393l-121 -50l-117 49l-2 -26l33 -35l11 -23l-14 -161h147l14 159l14 27l33 33z" />
    <glyph glyph-name="dieresis" unicode="&#xa8;" horiz-adv-x="443" 
d="M416 880l-15 -174h-6l-32 -32h-182v5l-5 -5h-178l15 168l32 31v7h371zM254 744h112l9 98h-112zM80 842l-9 -98h108l9 98h-108z" />
    <glyph glyph-name="acute" unicode="&#xb4;" horiz-adv-x="435" 
d="M386 826l-16 -16l48 -71h-8l-32 -32h-343l-12 63l32 32l-1 5l289 114l53 -91zM308 837l32 12l-14 24l-243 -96h265z" />
    <glyph glyph-name="cedilla" unicode="&#xb8;" horiz-adv-x="330" 
d="M192 7l98 -104l-7 -58l-38 -34l-160 -107l-94 106l33 33l-2 2l47 39l-12 15v137l32 32v6h103v-67zM154 -7v43h-27v-88l74 -87l-32 -22l-41 44l-52 -42l50 -56l121 81l3 25z" />
    <glyph glyph-name="questiondown" unicode="&#xbf;" horiz-adv-x="682" 
d="M508 140q3 2 6 5.5t6 6.5zM568 525q16 -46 29 -125q4 1 7.5 1.5t8.5 1.5q-12 -29 -16.5 -54.5l-9.5 -52t-15 -56t-33 -66.5v2l-5.5 -7.5t-6.5 -8.5l4 -1l-23 -23l-10 -10.5l-10 -11.5l-3 1l-9 -9t-9 -8l-17 -15q-18 -17 -32.5 -29.5t-27.5 -22t-26.5 -17.5l-29.5 -17
l10 -40q41 -63 123 -68l41 124l30 30l3 8h91v-278h9l-32 -32h-613l6 77l32 32v6l64 17l-23 132l32 32v5q69 33 114.5 62t72.5 55q1 0 1 1l2 2l4.5 6.5t5.5 6.5v2q7 14 10 28t3 20q0 8 -13 42l16 16q-11 58 -33.5 112.5t-65.5 116.5l33 33q-1 2 -1.5 2.5t-1.5 2.5h279z
M69 -189h538v202h-39l-53 -162h-38q-113 0 -168 90l-23 87q63 31 104.5 58.5t71.5 57.5l-99 37q-2 -2 -3 -5q-24 -35 -74 -75t-137 -82l23 -130l-3 -38l-99 -26zM374 198l103 -39q25 26 40 52.5t23.5 52t13 49l8.5 44.5q-40 -5 -88.5 -23.5t-88.5 -44.5q5 -13 5 -29
q0 -26 -16 -62zM532 512h-206q23 -34 36.5 -69.5t21.5 -77.5l48 24q32 17 63 28t52 11q2 0 4 -0.5t4 -0.5q-6 40 -23 85z" />
    <glyph glyph-name="Agrave" unicode="&#xc0;" horiz-adv-x="838" 
d="M358 882l24 24l9 15l289 -114l-13 -68h-6l-10 -10l9 -6q-1 -14 -1.5 -35t-0.5 -34q0 -54 4.5 -111.5t15.5 -122.5h1q20 -124 74.5 -256t142.5 -276l-10 3l-32 -33l-156 41l-28 -29l-263 20l-6 11l-41 -29q-106 57 -305 59l9 27h-135l28 121l10 9q-4 5 -4 14q0 14 2 15
t4 6l91 140l-259 49l-12 72l33 32l-1 5l254 133l-24 -77l299 41l10 38l10 39l-64 39l20 65l8 8h-48l52 77l-30 12zM316 375l-8 14l-231 -19l-1 -14l76 -16q6 -2 6 -6q0 -3 -1 -4l-122 -188q-2 -4 -2 -5q0 -27 228 -27l-10 -19q-6 -12 -12 -22t-17.5 -19t-30 -17.5
t-48.5 -16.5l-5 -15q159 -2 255 -53l24 17l-43 66q10 19 19 38.5l18 39.5h170q-19 38 -31.5 82.5t-17.5 98.5h-20l-8 -91q-4 -52 -78 -52q77 195 119 449q2 -51 5.5 -97t8.5 -91l79 23q-18 108 -18 223v25q0 13 1 27l-20 16l-214 -21l-5 -16l57 -34q6 -3 6 -8q0 -1 -2 -5
q-37 -151 -78 -272.5t-86 -218.5h-91q-21 0 -21 12q0 6 5 16zM641 411l-80 -23q13 -98 33.5 -176.5t48.5 -138.5v-3q0 -21 -59 -21q-18 0 -42 2t-53 6l-14 -19l339 -89q-131 214 -173 462zM45 343l-34 43l326 30l22 64l-361 -49l14 47l-149 -78l4 -24zM408 873l-14 -24
l32 -12l-40 -60h265zM462 -41l189 -18l-228 86zM89 27l121 57h-190l-12 -51zM215 182l43 2l70 165z" />
    <glyph glyph-name="Aacute" unicode="&#xc1;" horiz-adv-x="838" 
d="M659 707q-1 -14 -1 -29v-24q0 -54 4.5 -111.5t15.5 -122.5h1q20 -124 74.5 -256t142.5 -276l-10 3l-32 -33l-156 41l-28 -29l-263 20l-6 11l-41 -29q-106 57 -305 59l9 27h-135l28 121l10 9q-4 5 -4 14q0 14 2 15t4 6l91 140l-259 49l-12 72l33 32l-1 5l254 133l-24 -77
l299 41l10 38l10 39l-64 39l20 65l20 20l-10 51l32 32l-1 5l289 114l53 -91l-10 -4l-16 -16l48 -71h-8l-32 -32h-32zM316 375l-16 14l-223 -19l-1 -14l76 -16q6 -2 6 -6q0 -3 -1 -4l-122 -188q-2 -4 -2 -5q0 -27 228 -27l-10 -19q-6 -12 -12 -22t-17.5 -19t-30 -17.5
t-48.5 -16.5l-5 -15q159 -2 255 -53l24 17l-43 66q10 19 19 38.5l18 39.5h170q-19 38 -31.5 82.5t-17.5 98.5h-20l-8 -91q-4 -52 -78 -52q77 195 119 449q2 -51 5.5 -97t8.5 -91l79 23q-18 108 -18 223v25q0 13 1 27l-20 16l-214 -21l-5 -16l57 -34q6 -3 6 -8q0 -1 -2 -5
q-37 -151 -78 -272.5t-86 -218.5h-91q-21 0 -21 12q0 6 5 16zM641 411l-80 -23q13 -98 33.5 -176.5t48.5 -138.5v-3q0 -21 -59 -21q-18 0 -42 2t-53 6l-14 -19l339 -89q-131 214 -173 462zM45 343l-34 43l326 30l22 64l-361 -49l14 47l-149 -78l4 -24zM661 777l-40 60l32 12
l-14 24l-243 -96h265zM462 -41l238 -18l-277 86zM89 27l121 57h-190l-12 -51zM215 182l43 2l70 165z" />
    <glyph glyph-name="Acircumflex" unicode="&#xc2;" horiz-adv-x="838" 
d="M658 685v-31q0 -54 4.5 -111.5t15.5 -122.5h1q20 -124 74.5 -256t142.5 -276l-10 3l-32 -33l-156 41l-28 -29l-263 20l-6 11l-41 -29q-106 57 -305 59l9 27h-135l28 121l10 9q-4 5 -4 14q0 14 2 15t4 6l91 140l-259 49l-12 72l33 32l-1 5l254 133l-24 -77l299 41l10 38
l10 39l-64 39l15 51h-118l32 32h-9l285 174l282 -174h-15l-32 -32h-88zM316 375l-16 14l-223 -19l-1 -14l76 -16q6 -2 6 -6q0 -3 -1 -4l-122 -188q-2 -4 -2 -5q0 -27 228 -27l-10 -19q-6 -12 -12 -22t-17.5 -19t-30 -17.5t-48.5 -16.5l-5 -15q159 -2 255 -53l24 17l-43 66
q10 19 19 38.5l18 39.5h170q-19 38 -31.5 82.5t-17.5 98.5h-20l-8 -91q-4 -52 -78 -52q77 195 119 449q2 -51 5.5 -97t8.5 -91l79 23q-18 108 -18 223v25q0 13 1 27l-20 16l-214 -21l-5 -16l57 -34q6 -3 6 -8q0 -1 -2 -5q-37 -151 -78 -272.5t-86 -218.5h-91q-21 0 -21 12
q0 6 5 16zM641 411l-80 -23q13 -98 33.5 -176.5t48.5 -138.5v-3q0 -21 -59 -21q-18 0 -42 2t-53 6l-14 -19l339 -89q-131 214 -173 462zM45 343l-34 43l326 30l22 64l-361 -49l14 47l-149 -78l4 -24zM658 755l-147 91l-149 -91h296zM462 -41l238 -18l-277 86zM89 27l121 57
h-190l-12 -51zM215 182l43 2l70 165z" />
    <glyph glyph-name="Atilde" unicode="&#xc3;" horiz-adv-x="838" 
d="M306 726l31 35l138 133l83 -46l97 57l46 -54l-83 -96l42 -32q-1 -14 -1.5 -35t-0.5 -34q0 -54 4.5 -111.5t15.5 -122.5h1q20 -124 74.5 -256t142.5 -276l-10 3l-32 -33l-156 41l-28 -29l-263 20l-6 11l-41 -29q-106 57 -305 59l9 27h-135l28 121l10 9q-4 5 -4 14
q0 14 2 15t4 6l91 140l-259 49l-12 72l33 32l-1 5l254 133l-24 -77l299 41l10 38l10 39l-64 39l20 64zM316 375l-16 14l-223 -19l-1 -14l76 -16q6 -2 6 -6q0 -3 -1 -4l-122 -188q-2 -4 -2 -5q0 -27 228 -27l-10 -19q-6 -12 -12 -22t-17.5 -19t-30 -17.5t-48.5 -16.5l-5 -15
q159 -2 255 -53l24 17l-43 66q10 19 19 38.5l18 39.5h170q-19 38 -31.5 82.5t-17.5 98.5h-20l-8 -91q-4 -52 -78 -52q77 195 119 449q2 -51 5.5 -97t8.5 -91l79 23q-18 108 -18 223v25q0 13 1 27l-20 16l-214 -21l-5 -16l57 -34q6 -3 6 -8q0 -1 -2 -5q-37 -151 -78 -272.5
t-86 -218.5h-91q-21 0 -21 12q0 6 5 16zM641 411l-80 -23q13 -98 33.5 -176.5t48.5 -138.5v-3q0 -21 -59 -21q-18 0 -42 2t-53 6l-14 -19l339 -89q-131 214 -173 462zM45 343l-34 43l326 30l22 64l-361 -49l14 47l-149 -78l4 -24zM558 805l-78 42l-107 -104l111 56l78 -51
l100 117zM462 -41l200 -18l-239 86zM89 27l121 57h-190l-12 -51zM215 182l43 2l70 165z" />
    <glyph glyph-name="Adieresis" unicode="&#xc4;" horiz-adv-x="838" 
d="M308 842l31 31l1 7h371l-15 -174h-6l-32 -32v-20q0 -54 4.5 -111.5t15.5 -122.5h1q20 -124 74.5 -256t142.5 -276l-10 3l-32 -33l-156 41l-28 -29l-263 20l-6 11l-41 -29q-106 57 -305 59l9 27h-135l28 121l10 9q-4 5 -4 14q0 14 2 15t4 6l91 140l-259 49l-12 72l33 32
l-1 5l254 133l-24 -77l299 41l10 38l10 39l-64 39l12 40h-25zM316 375l-23 14l-216 -19l-1 -14l76 -16q6 -2 6 -6q0 -3 -1 -4l-122 -188q-2 -4 -2 -5q0 -27 228 -27l-10 -19q-6 -12 -12 -22t-17.5 -19t-30 -17.5t-48.5 -16.5l-5 -15q159 -2 255 -53l24 17l-43 66
q10 19 19 38.5l18 39.5h170q-19 38 -31.5 82.5t-17.5 98.5h-20l-8 -91q-4 -52 -78 -52q77 195 119 449q2 -51 5.5 -97t8.5 -91l79 23q-18 108 -18 223v25q0 13 1 27l-20 16l-214 -21l-5 -16l57 -34q6 -3 6 -8q0 -1 -2 -5q-37 -151 -78 -272.5t-86 -218.5h-91q-21 0 -21 12
q0 6 5 16zM641 411l-80 -23q13 -98 33.5 -176.5t48.5 -138.5v-3q0 -21 -59 -21q-18 0 -42 2t-53 6l-14 -19l339 -89q-131 214 -173 462zM45 343l-34 43l326 30l22 64l-361 -49l14 47l-149 -78l4 -24zM558 842l-9 -98h112l9 98h-112zM483 842h-108l-9 -98h108zM462 -41
l238 -18l-277 86zM89 27l121 57h-190l-12 -51zM215 182l43 2l70 165z" />
    <glyph glyph-name="Aring" unicode="&#xc5;" horiz-adv-x="838" 
d="M-211 384l33 32l-1 5l254 133l-24 -77l299 41l10 38l10 39l-64 39l20 65l20 20q-12 25 -12 58q0 29 11.5 56t31.5 47l15 15q20 29 52.5 47.5t70.5 18.5q30 0 57.5 -12t47.5 -32t32 -47.5t12 -57.5q0 -21 -5.5 -40t-15.5 -36l17 -13q-1 -14 -1.5 -35t-0.5 -34
q0 -54 4.5 -111.5t15.5 -122.5h1q20 -124 74.5 -256t142.5 -276l-10 3l-32 -33l-156 41l-28 -29l-263 20l-6 11l-41 -29q-106 57 -305 59l9 27h-135l28 121l10 9q-4 5 -4 14q0 14 2 15t4 6l91 140l-259 49zM404 812q0 -35 19 -62t50 -41l-86 -8l-5 -16l57 -34q6 -3 6 -8
q0 -1 -2 -5q-37 -151 -78 -272.5t-86 -218.5h-91q-21 0 -21 12q0 6 5 16l144 200l-16 14l-223 -19l-1 -14l76 -16q6 -2 6 -6q0 -3 -1 -4l-122 -188q-2 -4 -2 -5q0 -27 228 -27l-10 -19q-6 -12 -12 -22t-17.5 -19t-30 -17.5t-48.5 -16.5l-5 -15q159 -2 255 -53l24 17l-43 66
q10 19 19 38.5l18 39.5h170q-19 38 -31.5 82.5t-17.5 98.5h-20l-8 -91q-4 -52 -78 -52q77 195 119 449q2 -51 5.5 -97t8.5 -91l79 23q-18 108 -18 223v25q0 13 1 27l-20 16l-26 -3q23 17 37 40t14 53q0 22 -9 42.5t-24 35.5t-35.5 24t-42.5 9q-23 0 -43 -9t-35 -24
t-24 -35.5t-9 -42.5zM641 411l-80 -23q13 -98 33.5 -176.5t48.5 -138.5v-3q0 -21 -59 -21q-18 0 -42 2t-53 6l-14 -19l339 -89q-131 214 -173 462zM45 343l-34 43l326 30l22 64l-361 -49l14 47l-149 -78l4 -24zM455 813q0 26 17 43.5t43 17.5t43.5 -17.5t17.5 -43.5
t-17.5 -43t-43.5 -17t-43 17t-17 43zM462 -41l238 -18l-277 86zM89 27l121 57h-190l-12 -51zM215 182l43 2l70 165z" />
    <glyph glyph-name="AE" unicode="&#xc6;" horiz-adv-x="1304" 
d="M889 447q0 1 -1 1zM675 442l25.5 23.5t21.5 18.5l-51 -18q1 -6 1.5 -12t2.5 -12zM702 -97l-32 -33l-263 20l-6 11l-41 -29q-106 57 -305 59l9 27h-135l28 121l10 9q-4 5 -4 14q0 14 2 15t4 6l91 140l-259 49l-12 72l33 32l-1 5l254 133l-24 -77l299 41l10 38l10 39
l-64 39l20 65l30 30l3 8l253 24l48 -38q-1 -14 -1.5 -35t-0.5 -34q0 -19 0.5 -37.5t1.5 -38.5l240 180l31 -28l31 32l1 7l271 23l54 -46l-144 -216h15l-9 -94h-6l-32 -32q-104 0 -161 12l171 -87l-13 -6l-29 -29l-199 -92l13 -5l368 158l-20 -227l-9 -4l-29 -29l-369 -166
q-79 29 -136 57t-93 57l-4 -4h-90l209 -65l-13 -72zM300 389l-223 -19l-1 -14l76 -16q6 -2 6 -6q0 -3 -1 -4l-122 -188q-2 -4 -2 -5q0 -27 228 -27l-10 -19q-6 -12 -12 -22t-17.5 -19t-30 -17.5t-48.5 -16.5l-5 -15q159 -2 255 -53l24 17l-43 66q10 19 19 38.5l18 39.5h170
q-19 38 -31.5 82.5t-17.5 98.5h-20l-8 -91q-4 -52 -78 -52q77 195 119 449q2 -51 5.5 -97t8.5 -91l79 23q-18 108 -18 223v25q0 13 1 27l-20 16l-214 -21l-5 -16l57 -34q6 -3 6 -8q0 -1 -2 -5q-37 -151 -78 -272.5t-86 -218.5h-91q-21 0 -21 12q0 6 5 16l144 200zM769 316
l68 -32l-153 -73q-11 35 -21.5 84.5t-21.5 115.5l-80 -23q22 -169 67 -243q44 -72 241 -143l337 151l13 142l-324 -139l-128 52l268 123l-129 66zM1008 610l-102 99l-212 -153l10 -19l142 52q9 3 16 3q8 0 13 -6v-1q0 -16 -199 -191q-10 -9 -10 -17t8 -15l75 -36l137 81
l-45 23q-10 4 -10 11q0 6 8 13zM1222 753l-223 -19l-1 -14l76 -16q6 -2 6 -6q0 -3 -1 -4l-122 -188q-3 -5 -3 -7q0 -25 161 -25l2 18h-9q-21 0 -21 12q0 5 5 15l146 220zM11 386l326 30l22 64l-361 -49l14 47l-149 -78l4 -24l178 -33zM700 -59l-277 86l39 -68zM210 84h-190
l-12 -51l81 -6zM258 184l70 165l-113 -167z" />
    <glyph glyph-name="Ccedilla" unicode="&#xc7;" horiz-adv-x="1026" 
d="M424 401q2 2 3 4t3 4l-14 -8l3 -5zM826 -155l-38 -34l-160 -107l-94 106l33 33l-2 2l47 39l-12 15v24l-96 -34l-119 221h-91l15 -10l-12 -2l-31 -31l-277 -40l-40 55l127 209q-3 10 -3 25q0 16 9 42l150 228l-66 14l5 74l31 31l1 7l271 23l54 -47l-81 -112l243 182
l31 -28l31 32l1 7l271 23l54 -46l-144 -216h15l-9 -94h-6l-32 -32q-194 0 -223 44l-23 -21q-14 -11 -14 -18l44 -82l79 -142l155 121l74 -109l-39 -34l-207 -169l85 -91zM462 696l-223 -19l-1 -14l76 -16q6 -2 6 -6q0 -3 -1 -4l-170 -258q-6 -17 -6 -28q0 -32 40 -32
q12 0 29 3l415 269q5 1 10 1.5t9 0.5q15 0 19 -7v-1q0 -16 -199 -191q-11 -11 -11 -23t11 -22l83 -146l114 85l-57 105q-2 10 -2 16q0 26 25 45l169 156l-110 99l-334 -250q-2 0 -4.5 -0.5t-4.5 -0.5q-15 0 -15 11q0 6 4 13l144 200zM793 -109l-96 102v9l246 202l-32 47
l-158 -124l-80 144l-115 -85l112 -191v-47l74 -87l-32 -22l-41 44l-52 -42l50 -56l121 81zM375 304l181 -337l53 19l-216 379l-266 -169l-18 59l-83 -137l13 -18l167 24l-54 37zM1028 739l-16 14l-223 -19l-1 -14l76 -16q6 -2 6 -6q0 -3 -1 -4l-122 -188q-3 -5 -3 -7
q0 -25 161 -25l2 18h-9q-21 0 -21 12q0 5 5 15zM407 180l-48 79l-123 -79h171z" />
    <glyph glyph-name="Egrave" unicode="&#xc8;" horiz-adv-x="955" 
d="M197 253l1 -3l103 68q-1 2 -2 4.5t-1 4.5zM988 746l-144 -216h15l-9 -94h-6l-32 -32q-107 0 -162 13l173 -88l-13 -6l-29 -29l-200 -92l13 -5l368 158l-20 -227l-9 -4l-29 -29l-370 -166l-234 103q-3 2 -6 4.5t-6 5.5l-278 -49l-29 66l99 145l8 45h-3q-75 0 -75 67
q0 16 9 42l150 228l-66 14l5 74l31 31l1 7l228 19l36 53l-30 12l50 86l24 24l9 15l289 -114l-6 -32l194 17zM176 677l-1 -14l76 -16q6 -2 6 -6q0 -3 -1 -4l-170 -258q-6 -17 -6 -28q0 -32 40 -32q12 0 29 3l397 267q9 3 16 3q8 0 13 -6v-1q0 -16 -199 -191q-10 -9 -10 -17
t8 -15l82 -40l138 80l-53 28q-2 2 -2 3q0 23 169 177l-95 90l-322 -241q-2 0 -4.5 -0.5t-4.5 -0.5q-15 0 -15 11q0 6 4 13l144 200l-16 14zM477 312l60 -28l-161 -77q-26 -13 -38 -29t-12 -33q0 -26 27 -48l216 -95l337 151l13 142l-324 -139l-128 52l268 123l-120 61z
M922 753l-223 -19l-1 -14l76 -16q6 -2 6 -6q0 -3 -1 -4l-122 -188q-3 -5 -3 -7q0 -25 161 -25l2 18h-9q-21 0 -21 12q0 5 5 15l146 220zM215 155l215 135l-65 24l-186 -122l-18 51l-105 -153l10 -23l199 35zM474 873l-14 -24l32 -12l-40 -60h265zM546 701h-82l-156 -203z
M502 529l6 14l-345 -235l-5 -30z" />
    <glyph glyph-name="Eacute" unicode="&#xc9;" horiz-adv-x="955" 
d="M197 253l1 -3l103 68q-1 2 -2 4.5t-1 4.5zM988 746l-144 -216h15l-9 -94h-6l-32 -32q-107 0 -162 13l173 -88l-13 -6l-29 -29l-200 -92l13 -5l368 158l-20 -227l-9 -4l-29 -29l-370 -166l-234 103q-3 2 -6 4.5t-6 5.5l-278 -49l-29 66l99 145l8 45h-3q-75 0 -75 67
q0 16 9 42l150 228l-66 14l5 74l31 31l1 7l273 21l-7 37l32 32l-1 5l289 114l53 -91l-10 -4l-16 -16l22 -32l159 14zM176 677l-1 -14l76 -16q6 -2 6 -6q0 -3 -1 -4l-170 -258q-6 -17 -6 -28q0 -32 40 -32q12 0 29 3l397 267q9 3 16 3q8 0 13 -6v-1q0 -16 -199 -191
q-10 -9 -10 -17t8 -15l82 -40l138 80l-53 28q-2 2 -2 3q0 23 169 177l-95 90l-322 -241q-2 0 -4.5 -0.5t-4.5 -0.5q-15 0 -15 11q0 6 4 13l144 200l-16 14zM477 312l60 -28l-161 -77q-26 -13 -38 -29t-12 -33q0 -26 27 -48l216 -95l337 151l13 142l-324 -139l-128 52
l268 123l-120 61zM922 753l-223 -19l-1 -14l76 -16q6 -2 6 -6q0 -3 -1 -4l-122 -188q-3 -5 -3 -7q0 -25 161 -25l2 18h-9q-21 0 -21 12q0 5 5 15l146 220zM215 155l215 135l-65 24l-186 -122l-18 51l-105 -153l10 -23l199 35zM731 777l-40 60l32 12l-14 24l-243 -96h265z
M546 701h-80l-158 -203zM502 529l6 14l-345 -235l-5 -30z" />
    <glyph glyph-name="Ecircumflex" unicode="&#xca;" horiz-adv-x="955" 
d="M197 253l1 -3l103 68q-1 2 -2 4.5t-1 4.5zM988 746l-144 -216h15l-9 -94h-6l-32 -32q-107 0 -162 13l173 -88l-13 -6l-29 -29l-200 -92l13 -5l368 158l-20 -227l-9 -4l-29 -29l-370 -166l-234 103q-3 2 -6 4.5t-6 5.5l-278 -49l-29 66l99 145l8 45h-3q-75 0 -75 67
q0 16 9 42l150 228l-66 14l5 74l31 31l1 7l210 18l264 161l179 -111l141 12zM176 677l-1 -14l76 -16q6 -2 6 -6q0 -3 -1 -4l-170 -258q-6 -17 -6 -28q0 -32 40 -32q12 0 29 3l397 267q9 3 16 3q8 0 13 -6v-1q0 -16 -199 -191q-10 -9 -10 -17t8 -15l82 -40l138 80l-53 28
q-2 2 -2 3q0 23 169 177l-95 90l-322 -241q-2 0 -4.5 -0.5t-4.5 -0.5q-15 0 -15 11q0 6 4 13l144 200l-16 14zM477 312l60 -28l-161 -77q-26 -13 -38 -29t-12 -33q0 -26 27 -48l216 -95l337 151l13 142l-324 -139l-128 52l268 123l-120 61zM922 753l-223 -19l-1 -14l76 -16
q6 -2 6 -6q0 -3 -1 -4l-122 -188q-3 -5 -3 -7q0 -25 161 -25l2 18h-9q-21 0 -21 12q0 5 5 15l146 220zM215 155l215 135l-65 24l-186 -122l-18 51l-105 -153l10 -23l199 35zM761 755l-147 91l-149 -91h296zM546 701h-81l-157 -203zM502 529l6 14l-345 -235l-5 -30z" />
    <glyph glyph-name="Edieresis" unicode="&#xcb;" horiz-adv-x="955" 
d="M197 253l1 -3l103 68q-1 2 -2 4.5t-1 4.5zM988 746l-144 -216h15l-9 -94h-6l-32 -32q-107 0 -162 13l173 -88l-13 -6l-29 -29l-200 -92l13 -5l368 158l-20 -227l-9 -4l-29 -29l-370 -166l-234 103q-3 2 -6 4.5t-6 5.5l-278 -49l-29 66l99 145l8 45h-3q-75 0 -75 67
q0 16 9 42l150 228l-66 14l5 74l31 31l1 7l258 22l10 108l31 31l1 7h371l-9 -99l132 11zM176 677l-1 -14l76 -16q6 -2 6 -6q0 -3 -1 -4l-170 -258q-6 -17 -6 -28q0 -32 40 -32q12 0 29 3l397 267q9 3 16 3q8 0 13 -6v-1q0 -16 -199 -191q-10 -9 -10 -17t8 -15l82 -40l138 80
l-53 28q-2 2 -2 3q0 23 169 177l-95 90l-322 -241q-2 0 -4.5 -0.5t-4.5 -0.5q-15 0 -15 11q0 6 4 13l144 200l-16 14zM477 312l60 -28l-161 -77q-26 -13 -38 -29t-12 -33q0 -26 27 -48l216 -95l337 151l13 142l-324 -139l-128 52l268 123l-120 61zM922 753l-223 -19l-1 -14
l76 -16q6 -2 6 -6q0 -3 -1 -4l-122 -188q-3 -5 -3 -7q0 -25 161 -25l2 18h-9q-21 0 -21 12q0 5 5 15l146 220zM215 155l215 135l-65 24l-186 -122l-18 51l-105 -153l10 -23l199 35zM658 842l-9 -98h112l9 98h-112zM583 842h-108l-9 -98h108zM546 701h-82l-156 -203zM502 529
l6 14l-345 -235l-5 -30z" />
    <glyph glyph-name="Igrave" unicode="&#xcc;" 
d="M474 807l-13 -68l-7 -1h73l15 -231l-38 -33l-70 -42l-16 47l-5 -52l-24 -270l21 41l34 39l70 -49l-55 -226h-6l-32 -32h-389l-15 227l33 32l-1 5l4 2l-153 67l6 69l32 31v6l168 63h-44l13 26l-30 21l55 222l6 6h-26l52 77l-30 12l50 86l24 24l9 15zM231 445l-46 -378h-26
l-20 11l-36 104l-15 -9l12 -173h329l42 172l-13 9l-54 -104l-22 -11h-38l33 379h-146zM233 465h146l14 169h39l21 -11l35 -104l15 9l-12 172h-329l-42 -171l13 -9l55 104l22 11h39zM114 310h82l3 40h-81l33 58l-177 -66l-2 -22l165 -72zM202 873l-14 -24l32 -12l-40 -60h265
zM219 602h-18l-48 -100h57z" />
    <glyph glyph-name="Iacute" unicode="&#xcd;" 
d="M510 739l-1 -1h18l15 -231l-38 -33l-70 -42l-16 45l-5 -50l-24 -270l21 41l34 39l70 -49l-55 -226h-6l-32 -32h-389l-15 227l33 32l-1 5l4 2l-153 67l6 69l32 31v6l168 63h-44l13 26l-30 21l55 222l30 30l-7 39l32 32l-1 5l289 114l53 -91l-10 -4l-16 -16l48 -71h-8z
M231 445l-33 -378h-39l-20 11l-36 104l-15 -9l12 -173h329l42 172l-13 9l-54 -104l-22 -11h-38l33 379h-146zM233 465h146l14 169h39l21 -11l35 -104l15 9l-12 172h-329l-42 -171l13 -9l55 104l22 11h39zM114 310h82l3 40h-81l33 58l-177 -66l-2 -22l165 -72zM448 777
l-40 60l32 12l-14 24l-243 -96h265zM219 602h-18l-48 -100h57z" />
    <glyph glyph-name="Icircumflex" unicode="&#xce;" 
d="M593 717l-32 -32h-31l12 -178l-38 -33l-70 -42l-16 45l-5 -50l-24 -270l21 41l34 39l70 -49l-55 -226h-6l-32 -32h-389l-15 227l33 32l-1 5l4 2l-153 67l6 69l32 31v6l168 63h-44l13 26l-30 21l51 206h-78l32 32h-9l285 174l282 -174h-15zM231 445l-33 -378h-39l-20 11
l-36 104l-15 -9l12 -173h329l42 172l-13 9l-54 -104l-22 -11h-38l33 379h-146zM233 465h146l14 169h39l21 -11l35 -104l15 9l-12 172h-329l-42 -171l13 -9l55 104l22 11h39zM114 310h82l3 40h-81l33 58l-177 -66l-2 -22l165 -72zM473 755l-147 91l-149 -91h296zM219 602h-18
l-48 -100h57z" />
    <glyph glyph-name="Idieresis" unicode="&#xcf;" 
d="M510 738h17l15 -231l-38 -33l-70 -42l-16 47l-5 -52l-24 -270l21 41l34 39l70 -49l-55 -226h-6l-32 -32h-389l-15 227l33 32l-1 5l4 2l-153 67l6 69l32 31v6l168 63h-44l13 26l-30 21l55 222l7 7l12 134l31 31l1 7h371zM231 445l-33 -378h-39l-20 11l-36 104l-15 -9
l12 -173h329l42 172l-13 9l-54 -104l-22 -11h-38l33 379h-146zM233 465h146l14 169h39l21 -11l35 -104l15 9l-12 172h-329l-42 -171l13 -9l55 104l22 11h39zM114 310h82l3 40h-81l33 58l-177 -66l-2 -22l165 -72zM369 842l-9 -98h112l9 98h-112zM294 842h-108l-9 -98h108z
M219 602h-18l-48 -100h57z" />
    <glyph glyph-name="Eth" unicode="&#xd0;" horiz-adv-x="1098" 
d="M751 144l47 38l-54 -34zM941 652l-8 -2l-30 -30l-41 -8l89 -73l200 -169l-7 -76l-38 -34l-442 -370l-182 103h-95l23 253h-155l20 -80l-8 4l-32 -32l-230 136l10 60l31 31l1 6l255 118l50 77l-67 14l5 74l31 31l1 7l271 23l25 -23l47 47h281zM597 662l-16 14l-223 -19
l-1 -14l76 -16q6 -2 6 -6q0 -3 -1 -4l-121 -188q-2 -4 -2 -5q0 -27 256 -27l-30 -342l154 -88l412 345l4 42l-159 134l-110 -101l126 -114l-217 -178l-75 62l24 277h-231q-21 0 -21 12q0 6 5 16zM906 701h-225l-86 -86l233 -215l109 100l-156 132l16 32l108 20zM484 316
l-23 -255l43 2l26 298h-318l42 63l-172 -79l-3 -18l138 -82l-17 71h284zM881 290l-132 122l-19 -218zM670 471l-91 102l-76 -102h167z" />
    <glyph glyph-name="Ntilde" unicode="&#xd1;" horiz-adv-x="1142" 
d="M867 384q3 30 5.5 57.5t4.5 54.5q-32 -45 -66.5 -108t-72.5 -146l-13 -152q46 -8 60 -8q55 129 82 302zM424 69q14 1 25 1q12 0 21 1l19 213l-246 22l3 -39l-5 3l-33 -33l-211 118l19 73l30 30l2 8l213 29l-53 116q-5 9 -7 16.5t-2 15.5q0 22 13 35l23 23q12 28 59 30
l169 11l15 19l138 133l83 -46l97 57l46 -54l-90 -105l8 -7h148q2 2 4 3.5t4 3.5l159 15l43 -38q2 -29 3.5 -65.5t1.5 -65.5q0 -98 -12 -224h-3q-16 -122 -43.5 -240.5t-69.5 -237.5q-2 1 -2.5 1.5t-2.5 1.5l-32 -33q-42 24 -89 43.5t-101 34.5l-40 -36l-34 -31
q-57 27 -134.5 41.5t-176.5 18.5l9 100l31 31zM357 463l-79 -16l-1 -14l219 -19l18 14l-108 200q0 1 -0.5 2t-0.5 2q0 29 157 40q25 -7 26 -34l-50 -564q-4 -39 -79 -42l-3 -32q169 -6 267 -52l19 17l-60 66l19 221q143 314 248 367q0 -57 -3 -109.5t-10 -103.5h140
q9 93 9 186q0 29 -1 57t-3 57l-18 16l-132 -13q-119 -99 -218 -317l28 314l-18 16l-427 -29q-27 0 -27 -15q0 -7 6 -17l88 -191q0 -6 -6 -7zM838 71q-3 -27 -51 -27q-10 0 -21 1.5l-25 3.5l-9 -24q148 -25 242 -79q75 218 99 440h-141q-13 -85 -36.5 -162.5t-57.5 -152.5z
M199 384l342 -31l5 31l-335 34l25 35l-157 -22l-6 -23l130 -73zM556 645h-120l99 -194h14zM699 805l-78 42l-107 -104l111 56l78 -51l100 117zM741 494l124 207h-92z" />
    <glyph glyph-name="Ograve" unicode="&#xd2;" horiz-adv-x="1067" 
d="M241 723zM791 92q-16 38 -29 79t-23 85l-14 -174q5 -1 11 -1h15q20 0 42 5q0 2 -1 3t-1 2v1zM946 807l-10 -50h128l-17 -187q-6 -2 -8 -2l-30 -30q-26 -8 -33 -35.5t-7 -58.5q0 -30 4.5 -63t12.5 -65.5t19 -63.5t25 -56q9 -20 14.5 -41t5.5 -44q0 -42 -16.5 -79.5
t-51.5 -59.5l-15 -15q-17 -17 -41.5 -27t-52.5 -15.5t-56.5 -7.5t-53.5 -2q-53 0 -104 9t-94.5 23.5t-77.5 31.5t-55 34q0 16 1 26.5t2.5 18.5t4 16t4.5 19l30 30l15 163l-264 39v-49l-5 4l-33 -33l-188 148l26 59l29 29l4 9l194 31l-50 108q-5 9 -7 16.5t-2 15.5
q0 22 13 35l23 23q12 28 60 30l290 7l24 36l-29 12l50 86l24 24l9 15zM859 138q5 -15 5 -24q0 -18 -10.5 -31.5t-27 -22t-36.5 -13t-39 -4.5q-22 0 -40.5 5.5t-25.5 16.5l24 280h-147l-21 -245l-13 -9.5t-13 -7.5h-8q-1 -7 -2.5 -14t-2.5 -14q17 -14 46.5 -28t68.5 -25
t85.5 -18.5t96.5 -7.5q42 0 80.5 5t68 20t47 41.5t17.5 69.5q0 37 -16 68q-29 56 -47 127.5t-18 137.5q0 62 18.5 105.5t61.5 51.5l11 120l-732 -19q-27 0 -27 -15q0 -7 6 -17l88 -188q2 -8 -85 -26l-1 -14l219 -19l18 14l-108 200q0 1 -0.5 1.5t-0.5 1.5q0 24 158 29
q18 -6 18 -103q0 -38 -3 -88t-8 -114h147l25 292l81 6q-17 -34 -25 -77t-8 -92q0 -87 21 -180.5t54 -175.5zM187 398l349 -53l2 41l-332 47l29 38l-151 -24l-7 -16l110 -86v53zM674 873l-14 -24l32 -12l-40 -60h265zM545 467v170h-105l85 -170h20z" />
    <glyph glyph-name="Oacute" unicode="&#xd3;" horiz-adv-x="1067" 
d="M792 90q-16 38 -29.5 80t-23.5 86l-14 -174q5 -1 11 -1h15q20 0 42 5q0 1 -0.5 2t-0.5 2zM1009 538q-26 -8 -33 -35.5t-7 -58.5q0 -30 4.5 -63t12.5 -65.5t19 -63.5t25 -56q9 -20 14.5 -41t5.5 -44q0 -42 -16.5 -79.5t-51.5 -59.5l-15 -15q-17 -17 -41.5 -27t-52.5 -15.5
t-56.5 -7.5t-53.5 -2q-53 0 -104 9t-94.5 23.5t-77.5 31.5t-55 34q0 16 1 26.5t2.5 18.5t4 16t4.5 19l30 30l15 163l-264 39v-49l-5 4l-33 -33l-188 148l26 59l29 29l4 9l194 31l-50 108q-5 9 -7 16.5t-2 15.5q0 22 13 35l23 23q12 28 60 30l303 8l-3 21l32 32l-1 5l289 114
l53 -91l-10 -4l-16 -16l35 -52h93l-17 -188q-6 -2 -8 -2zM859 138q5 -15 5 -24q0 -18 -10.5 -31.5t-27 -22t-36.5 -13t-39 -4.5q-22 0 -40.5 5.5t-25.5 16.5l24 280h-147l-21 -245l-13 -9.5t-13 -7.5h-8q-1 -7 -2.5 -14t-2.5 -14q17 -14 46.5 -28t68.5 -25t85.5 -18.5
t96.5 -7.5q42 0 80.5 5t68 20t47 41.5t17.5 69.5q0 37 -16 68q-29 56 -47 127.5t-18 137.5q0 62 18.5 105.5t61.5 51.5l11 120l-732 -19q-27 0 -27 -15q0 -7 6 -17l88 -188q2 -8 -85 -26l-1 -14l219 -19l18 14l-108 200q0 1 -0.5 1.5t-0.5 1.5q0 24 158 29q18 -6 18 -103
q0 -38 -3 -88t-8 -114h147l25 292l81 6q-17 -34 -25 -77t-8 -92q0 -87 21 -180.5t54 -175.5zM187 398l349 -53l2 41l-332 47l29 38l-151 -24l-7 -16l110 -86v53zM914 777l-40 60l32 12l-14 24l-243 -96h265zM545 467v170h-105l85 -170h20z" />
    <glyph glyph-name="Ocircumflex" unicode="&#xd4;" horiz-adv-x="1067" 
d="M241 723zM1000 550q-1 -1 -2 -1.5t-2 -2.5zM791 91q-16 38 -29 79.5t-23 85.5l-14 -174q5 -1 11 -1h15q20 0 42 5q0 1 -0.5 2t-0.5 2zM1009 538q-26 -8 -33 -35.5t-7 -58.5q0 -30 4.5 -63t12.5 -65.5t19 -63.5t25 -56q9 -20 14.5 -41t5.5 -44q0 -42 -16.5 -79.5
t-51.5 -59.5l-15 -15q-17 -17 -41.5 -27t-52.5 -15.5t-56.5 -7.5t-53.5 -2q-53 0 -104 9t-94.5 23.5t-77.5 31.5t-55 34q0 16 1 26.5t2.5 18.5t4 16t4.5 19l30 30l15 163l-264 39v-49l-5 4l-33 -33l-188 148l26 59l29 29l4 9l194 31l-50 108q-5 9 -7 16.5t-2 15.5
q0 22 13 35l23 23q12 28 60 30l243 6l236 144l214 -132h82l-17 -189q-6 -2 -8 -2zM859 138q5 -15 5 -24q0 -18 -10.5 -31.5t-27 -22t-36.5 -13t-39 -4.5q-22 0 -40.5 5.5t-25.5 16.5l24 280h-147l-21 -245l-13 -9.5t-13 -7.5h-8q-1 -7 -2.5 -14t-2.5 -14q17 -14 46.5 -28
t68.5 -25t85.5 -18.5t96.5 -7.5q42 0 80.5 5t68 20t47 41.5t17.5 69.5q0 37 -16 68q-29 56 -47 127.5t-18 137.5q0 62 18.5 105.5t61.5 51.5l11 120l-732 -19q-27 0 -27 -15q0 -7 6 -17l88 -188q2 -8 -85 -26l-1 -14l219 -19l18 14l-108 200q0 1 -0.5 1.5t-0.5 1.5
q0 24 158 29q18 -6 18 -103q0 -38 -3 -88t-8 -114h147l25 292l81 6q-17 -34 -25 -77t-8 -92q0 -87 21 -180.5t54 -175.5zM187 398l349 -53l2 41l-332 47l29 38l-151 -24l-7 -16l110 -86v53zM915 755l-147 91l-149 -91h296zM545 467v170h-105l85 -170h20z" />
    <glyph glyph-name="Otilde" unicode="&#xd5;" horiz-adv-x="1067" 
d="M241 723zM791 92q-16 38 -29 79t-23 85l-14 -174q5 -1 11 -1h15q20 0 42 5q0 1 -0.5 2t-0.5 2zM1009 538q-26 -8 -33 -35.5t-7 -58.5q0 -30 4.5 -63t12.5 -65.5t19 -63.5t25 -56q9 -20 14.5 -41t5.5 -44q0 -42 -16.5 -79.5t-51.5 -59.5l-15 -15q-17 -17 -41.5 -27
t-52.5 -15.5t-56.5 -7.5t-53.5 -2q-53 0 -104 9t-94.5 23.5t-77.5 31.5t-55 34q0 16 1 26.5t2.5 18.5t4 16t4.5 19l30 30l15 163l-264 39v-49l-5 4l-33 -33l-188 148l26 59l29 29l4 9l194 31l-50 108q-5 9 -7 16.5t-2 15.5q0 22 13 35l23 23q12 28 60 30l288 7l9 13l138 133
l83 -46l97 57l46 -54l-82 -95h196l-17 -186q-6 -2 -8 -2zM859 138q5 -15 5 -24q0 -18 -10.5 -31.5t-27 -22t-36.5 -13t-39 -4.5q-22 0 -40.5 5.5t-25.5 16.5l24 280h-147l-21 -245l-13 -9.5t-13 -7.5h-8q-1 -7 -2.5 -14t-2.5 -14q17 -14 46.5 -28t68.5 -25t85.5 -18.5
t96.5 -7.5q42 0 80.5 5t68 20t47 41.5t17.5 69.5q0 37 -16 68q-29 56 -47 127.5t-18 137.5q0 62 18.5 105.5t61.5 51.5l11 120l-732 -19q-27 0 -27 -15q0 -7 6 -17l88 -188q2 -8 -85 -26l-1 -14l219 -19l18 14l-108 200q0 1 -0.5 1.5t-0.5 1.5q0 24 158 29q18 -6 18 -103
q0 -38 -3 -88t-8 -114h147l25 292l81 6q-17 -34 -25 -77t-8 -92q0 -87 21 -180.5t54 -175.5zM187 398l349 -53l2 41l-332 47l29 38l-151 -24l-7 -16l110 -86v53zM545 467v170h-105l85 -170h20zM807 805l-78 42l-107 -104l111 56l78 -51l100 117z" />
    <glyph glyph-name="Odieresis" unicode="&#xd6;" horiz-adv-x="1067" 
d="M791 91q-16 38 -29 79.5t-23 85.5l-14 -174q5 -1 11 -1h15q20 0 42 5q0 1 -0.5 2t-0.5 2zM967 880l-11 -122h108l-17 -188q-6 -2 -8 -2l-30 -30q-26 -8 -33 -35.5t-7 -58.5q0 -30 4.5 -63t12.5 -65.5t19 -63.5t25 -56q9 -20 14.5 -41t5.5 -44q0 -42 -16.5 -79.5
t-51.5 -59.5l-15 -15q-17 -17 -41.5 -27t-52.5 -15.5t-56.5 -7.5t-53.5 -2q-53 0 -104 9t-94.5 23.5t-77.5 31.5t-55 34q0 16 1 26.5t2.5 18.5t4 16t4.5 19l30 30l15 163l-264 39v-49l-5 4l-33 -33l-188 148l26 59l29 29l4 9l194 31l-50 108q-5 9 -7 16.5t-2 15.5
q0 22 13 35l23 23q12 28 60 30l266 6l9 95l31 31l1 7h371zM859 138q5 -15 5 -24q0 -18 -10.5 -31.5t-27 -22t-36.5 -13t-39 -4.5q-22 0 -40.5 5.5t-25.5 16.5l24 280h-147l-21 -245l-13 -9.5t-13 -7.5h-8q-1 -7 -2.5 -14t-2.5 -14q17 -14 46.5 -28t68.5 -25t85.5 -18.5
t96.5 -7.5q42 0 80.5 5t68 20t47 41.5t17.5 69.5q0 37 -16 68q-29 56 -47 127.5t-18 137.5q0 62 18.5 105.5t61.5 51.5l11 120l-732 -19q-27 0 -27 -15q0 -7 6 -17l88 -188q2 -8 -85 -26l-1 -14l219 -19l18 14l-108 200q0 1 -0.5 1.5t-0.5 1.5q0 24 158 29q18 -6 18 -103
q0 -38 -3 -88t-8 -114h147l25 292l81 6q-17 -34 -25 -77t-8 -92q0 -87 21 -180.5t54 -175.5zM187 398l349 -53l2 41l-332 47l29 38l-151 -24l-7 -16l110 -86v53zM545 467v170h-105l85 -170h20zM814 842l-9 -98h112l9 98h-112zM739 842h-108l-9 -98h108z" />
    <glyph glyph-name="Oslash" unicode="&#xd8;" horiz-adv-x="1067" 
d="M241 723zM732 180l-8 -98q5 -1 12 -1h15q19 0 41 5q0 1 -0.5 2t-0.5 2q-11 25 -20 52t-17 56zM1009 538q-26 -8 -33 -35.5t-7 -58.5q0 -30 4.5 -63t12.5 -65.5t19 -63.5t25 -56q9 -20 14.5 -41t5.5 -44q0 -42 -16.5 -79.5t-51.5 -59.5l-15 -15q-17 -17 -41.5 -27
t-52.5 -15.5t-56.5 -7.5t-53.5 -2q-53 0 -104 9t-94.5 23.5t-77.5 31.5t-55 34q0 16 1 26.5t2.5 18.5t4 16t4.5 19l30 30l15 163l-264 39v-49l-5 4l-33 -33l-188 148l26 59l29 29l4 9l194 31l-50 108q-5 9 -7 16.5t-2 15.5q0 22 13 35l23 23q12 28 60 30l775 20l-17 -191
q-6 -2 -8 -2zM706 313l3 32h-147l-21 -245l-13 -9.5t-13 -7.5h-8q-1 -7 -2.5 -14t-2.5 -14q17 -14 46.5 -28t68.5 -25t85.5 -18.5t96.5 -7.5q42 0 80.5 5t68 20t47 41.5t17.5 69.5q0 37 -16 68q-29 56 -47 127.5t-18 137.5q0 62 18.5 105.5t61.5 51.5l11 120l-732 -19
q-27 0 -27 -15q0 -7 6 -17l88 -188q2 -8 -85 -26l-1 -14l219 -19l18 14l-108 200q0 1 -0.5 1.5t-0.5 1.5q0 24 158 29q18 -6 18 -103q0 -38 -3 -88t-8 -114h147l25 292l81 6q-17 -35 -25 -77.5t-8 -91.5q0 -25 1 -55t7 -56zM859 138q5 -15 5 -24q0 -18 -10.5 -31.5t-27 -22
t-36.5 -13t-39 -4.5q-22 0 -40.5 5.5t-25.5 16.5l11 137l112 92q16 -38 26.5 -78t24.5 -78zM536 345l2 41l-332 47l29 38l-151 -24l-7 -16l110 -86v53zM545 637h-105l85 -170h20v170z" />
    <glyph glyph-name="Ugrave" unicode="&#xd9;" horiz-adv-x="1025" 
d="M738 707q2 -3 2.5 -5.5t2.5 -5.5l11 11h-16zM683 81l17 197q-1 -5 -3.5 -9t-10.5 -12l2 -3q-17 -38 -34.5 -73t-33.5 -63v1q-4 -8 -4 -14q0 -12 20 -18t43 -6h4zM885 807l-10 -52l194 -19l-4 -76q-3 -2 -5.5 -3t-4.5 -2l-28 -28q-14 -8 -25.5 -12.5t-20.5 -8.5l-42 -485
h28v-52q0 -3 0.5 -7.5t5.5 -22.5q-8 -6 -12 -8l-26 -26q-24 -17 -62 -34.5t-84.5 -32t-98.5 -24t-105 -9.5q-46 0 -87.5 6t-73 22t-50 44.5t-18.5 72.5q0 29 10 59.5t29 56.5l-1 -1q15 22 28 50.5t23 54.5t16.5 45t6.5 22l-203 33l9 -66l-6 4l-33 -33l-213 159l32 56l33 38
l170 37l-47 103q-5 9 -7 16.5t-2 15.5q0 22 12 34l24 24q13 30 65 30l224 -28l16 24l-29 12l50 86l24 24l9 15zM653 268l-130 47l-31.5 -73.5t-33.5 -61.5q-16 -21 -24 -46t-8 -49q0 -38 18.5 -60t47 -33t62.5 -14t66 -3q50 0 97.5 7.5t88 19t72.5 25.5t52 28q-1 4 -1 14v14
h-8q-9 4 -22 17l47 538q2 9 82 47l1 16l-204 21l-20 -16l-56 -641q-9 -11 -28.5 -16.5t-41.5 -5.5q-18 0 -36 4t-32.5 11.5t-23.5 19t-9 27.5q0 12 8.5 31.5t20.5 42.5l24.5 46t21.5 43zM358 520l-78 -16l-1 -14l219 -19l18 14l-103 189q-3 7 -3 12q0 16 23 16l82 -12
q28 -9 40.5 -45t12.5 -87q0 -24 -2.5 -52t-7.5 -58t-12 -59.5t-17 -55.5l132 -47q2 2 1 2.5t1 2.5q32 74 51 147t19 136q0 38 -8 70t-27 57l-400 49q-27 0 -27 -15q0 -7 6 -17l88 -190q0 -6 -7 -8zM215 455l304 -49v33l-296 39l57 53l-168 -37l-9 -16l121 -90zM613 873
l-14 -24l32 -12l-40 -60h265zM524 655l-79 12l95 -169q1 9 1 19v21q0 27 -3 56.5t-14 60.5z" />
    <glyph glyph-name="Uacute" unicode="&#xda;" horiz-adv-x="1025" 
d="M738 707q2 -3 2.5 -5.5t2.5 -5.5l11 11h-16zM683 81l17 197q-1 -5 -3.5 -9t-10.5 -12l2 -3q-17 -38 -34.5 -73t-33.5 -63v1q-4 -8 -4 -14q0 -12 20 -18t43 -6h4zM1027 627q-14 -8 -25.5 -12.5t-20.5 -8.5l-42 -485h28v-52q0 -3 0.5 -7.5t5.5 -22.5q-8 -6 -12 -8l-26 -26
q-24 -17 -62 -34.5t-84.5 -32t-98.5 -24t-105 -9.5q-46 0 -87.5 6t-73 22t-50 44.5t-18.5 72.5q0 29 10 59.5t29 56.5l-1 -1q15 22 28 50.5t23 54.5t16.5 45t6.5 22l-203 33l9 -66l-6 4l-33 -33l-213 159l32 56l33 38l170 37l-47 103q-5 9 -7 16.5t-2 15.5q0 22 12 34l24 24
q13 30 65 30l262 -33l-2 15l32 32l-1 5l289 114l53 -91l-10 -4l-16 -16l42 -63l118 -11l-4 -76q-3 -2 -5.5 -3t-4.5 -2zM653 268l-130 47l-31.5 -73.5t-33.5 -61.5q-16 -21 -24 -46t-8 -49q0 -38 18.5 -60t47 -33t62.5 -14t66 -3q50 0 97.5 7.5t88 19t72.5 25.5t52 28
q-1 4 -1 14v14h-8q-9 4 -22 17l47 538q2 9 82 47l1 16l-204 21l-20 -16l-56 -641q-9 -11 -28.5 -16.5t-41.5 -5.5q-18 0 -36 4t-32.5 11.5t-23.5 19t-9 27.5q0 12 8.5 31.5t20.5 42.5l24.5 46t21.5 43zM358 520l-78 -16l-1 -14l219 -19l18 14l-103 189q-3 7 -3 12
q0 16 23 16l82 -12q28 -9 40.5 -45t12.5 -87q0 -24 -2.5 -52t-7.5 -58t-12 -59.5t-17 -55.5l132 -47q2 2 1 2.5t1 2.5q32 74 51 147t19 136q0 38 -8 70t-27 57l-400 49q-27 0 -27 -15q0 -7 6 -17l88 -190q0 -6 -7 -8zM215 455l304 -49v33l-296 39l57 53l-168 -37l-9 -16
l121 -90zM887 777l-40 60l32 12l-14 24l-243 -96h265zM524 655l-79 12l95 -169q1 9 1 19v21q0 27 -3 56.5t-14 60.5z" />
    <glyph glyph-name="Ucircumflex" unicode="&#xdb;" horiz-adv-x="1025" 
d="M683 81l17 197q-1 -5 -3.5 -9t-10.5 -12l2 -3q-17 -38 -34.5 -73t-33.5 -63v1q-4 -8 -4 -14q0 -12 20 -18t43 -6h4zM1027 627q-14 -8 -25.5 -12.5t-20.5 -8.5l-42 -485h28v-52q0 -3 0.5 -7.5t5.5 -22.5q-8 -6 -12 -8l-26 -26q-24 -17 -62 -34.5t-84.5 -32t-98.5 -24
t-105 -9.5q-46 0 -87.5 6t-73 22t-50 44.5t-18.5 72.5q0 29 10 59.5t29 56.5l-1 -1q15 22 28 50.5t23 54.5t16.5 45t6.5 22l-203 33l9 -66l-6 4l-33 -33l-213 159l32 56l33 38l170 37l-47 103q-5 9 -7 16.5t-2 15.5q0 22 12 34l24 24q13 30 65 30l216 -27l212 130l234 -145
l105 -10l-4 -76q-3 -2 -5.5 -3t-4.5 -2zM653 268l-130 47l-31.5 -73.5t-33.5 -61.5q-16 -21 -24 -46t-8 -49q0 -38 18.5 -60t47 -33t62.5 -14t66 -3q50 0 97.5 7.5t88 19t72.5 25.5t52 28q-1 4 -1 14v14h-8q-9 4 -22 17l47 538q2 9 82 47l1 16l-204 21l-20 -16l-56 -641
q-9 -11 -28.5 -16.5t-41.5 -5.5q-18 0 -36 4t-32.5 11.5t-23.5 19t-9 27.5q0 12 8.5 31.5t20.5 42.5l24.5 46t21.5 43zM358 520l-78 -16l-1 -14l219 -19l18 14l-103 189q-3 7 -3 12q0 16 23 16l82 -12q28 -9 40.5 -45t12.5 -87q0 -24 -2.5 -52t-7.5 -58t-12 -59.5t-17 -55.5
l132 -47q2 2 1 2.5t1 2.5q32 74 51 147t19 136q0 38 -8 70t-27 57l-400 49q-27 0 -27 -15q0 -7 6 -17l88 -190q0 -6 -7 -8zM215 455l304 -49v33l-296 39l57 53l-168 -37l-9 -16l121 -90zM877 755l-147 91l-149 -91h296zM524 655l-79 12l95 -169q1 9 1 19v21q0 27 -3 56.5
t-14 60.5z" />
    <glyph glyph-name="Udieresis" unicode="&#xdc;" horiz-adv-x="1025" 
d="M683 81l17 197q-1 -5 -3.5 -9t-10.5 -12l2 -3q-17 -38 -34.5 -73t-33.5 -63v1q-4 -8 -4 -14q0 -12 20 -18t43 -6h4zM950 880l-12 -131l131 -13l-4 -76q-3 -2 -5.5 -3t-4.5 -2l-28 -28q-14 -8 -25.5 -12.5t-20.5 -8.5l-42 -485h28v-52q0 -3 0.5 -7.5t5.5 -22.5
q-8 -6 -12 -8l-26 -26q-24 -17 -62 -34.5t-84.5 -32t-98.5 -24t-105 -9.5q-46 0 -87.5 6t-73 22t-50 44.5t-18.5 72.5q0 29 10 59.5t29 56.5l-1 -1q15 22 28 50.5t23 54.5t16.5 45t6.5 22l-203 33l9 -66l-6 4l-33 -33l-213 159l32 56l33 38l170 37l-47 103q-5 9 -7 16.5
t-2 15.5q0 22 12 34l24 24q13 30 65 30l237 -30l8 84l31 31l1 7h371zM653 268l-130 47l-31.5 -73.5t-33.5 -61.5q-16 -21 -24 -46t-8 -49q0 -38 18.5 -60t47 -33t62.5 -14t66 -3q50 0 97.5 7.5t88 19t72.5 25.5t52 28q-1 4 -1 14v14h-8q-9 4 -22 17l47 538q2 9 82 47l1 16
l-204 21l-20 -16l-56 -641q-9 -11 -28.5 -16.5t-41.5 -5.5q-18 0 -36 4t-32.5 11.5t-23.5 19t-9 27.5q0 12 8.5 31.5t20.5 42.5l24.5 46t21.5 43zM358 520l-78 -16l-1 -14l219 -19l18 14l-103 189q-3 7 -3 12q0 16 23 16l82 -12q28 -9 40.5 -45t12.5 -87q0 -24 -2.5 -52
t-7.5 -58t-12 -59.5t-17 -55.5l132 -47q2 2 1 2.5t1 2.5q32 74 51 147t19 136q0 38 -8 70t-27 57l-400 49q-27 0 -27 -15q0 -7 6 -17l88 -190q0 -6 -7 -8zM215 455l304 -49v33l-296 39l57 53l-168 -37l-9 -16l121 -90zM797 842l-9 -98h112l9 98h-112zM722 842h-108l-9 -98
h108zM524 655l-79 12l95 -169q1 9 1 19v21q0 27 -3 56.5t-14 60.5z" />
    <glyph glyph-name="Yacute" unicode="&#xdd;" horiz-adv-x="1092" 
d="M767 85h12l9 104q-6 -12 -17.5 -25t-24 -25.5l-23 -23.5t-14.5 -20q5 -5 21.5 -7.5t36.5 -2.5zM746 398q10 -9 25.5 -15t32.5 -8l16 180q-14 -25 -33.5 -56l-43.5 -72v1q-5 -10 -5 -14v-3q3 -5 5 -8t3 -5zM1123 627q-14 -8 -25.5 -12.5t-20.5 -8.5l-42 -478h29v-84
l-6.5 -4.5l-6.5 -4.5l-25 -25q-23 -17 -60 -34t-83 -31.5t-98 -23.5t-104 -9q-38 0 -81 5.5t-80 19.5t-61 39.5t-24 66.5q0 20 8 42t28 42l14 14q10 17 27 31q-2 0 -3 1l5 90q-4 4 -7.5 9t-8.5 15l-15 -4v7t-0.5 14t-2 16t-3.5 13l3 6l-220 29l6 -51l-6 4l-33 -33l-190 136
l14 60l30 30l2 8l175 41l-47 104q-5 8 -7 16t-2 16q0 21 15 36l22 22q15 28 65 43l359 -45l-2 15l32 32l-1 5l289 114l53 -91l-10 -4l-16 -16l42 -63l115 -11l-4 -76q-3 -2 -5.5 -3t-4.5 -2zM705 391l-146 -45q9 -21 30 -33t48 -18.5t56.5 -8t55.5 -1.5q30 0 59.5 3t56.5 8
l-20 -224q-11 -13 -32.5 -19t-45.5 -6q-17 0 -33 3t-29.5 8t-23 13t-11.5 18v3q0 17 14 35t31.5 35.5t31.5 34t14 31.5q0 9 -6 18l-172 25l-2 -32q20 -2 28 -6.5t8 -11.5q0 -10 -13.5 -22.5t-31 -26l-33.5 -27t-22 -25.5q-12 -23 -12 -42q0 -31 21.5 -49.5t53.5 -28.5
t69 -13.5t68 -3.5q50 0 97.5 7t88 18.5t72.5 25.5t51 28v28h-8q-11 4 -23 17l47 531q2 9 82 47l1 16l-204 21l-20 -16l-31 -351q-8 -9 -22 -13.5t-31 -4.5q-32 0 -63.5 13t-48.5 41zM359 519l-78 -16l-1 -14l219 -19l18 14l-108 200q-3 7 -3 12q0 16 23 16l206 -26
q49 -12 49 -34q0 -21 -29 -58.5t-74 -103.5q-15 -22 -23 -47t-8 -49q0 -8 0.5 -13t2.5 -16l147 45v4q0 18 10 34l50 83l37.5 60.5t23.5 43t8 29.5t-8.5 20.5t-26.5 16.5l-487 60q-35 -9 -35 -27q0 -8 6 -17l88 -190q0 -6 -7 -8zM213 451l313 -43l2 31l-309 34l58 56
l-162 -39l-4 -17l108 -77zM653 651l-207 37l85 -170zM986 777l-40 60l32 12l-14 24l-243 -96h265z" />
    <glyph glyph-name="germandbls" unicode="&#xdf;" horiz-adv-x="1210" 
d="M735 746l-5 -7h207l23 23l1 7l271 23l54 -46l-144 -216h15l-9 -94h-6l-16 -16l9 -6q57 -138 57 -251q0 -101 -55 -201h-5l-32 -32h-260l-134 146l-40 -112h-5l-32 -32h-78l-2 -2h-260l-134 146l-40 -112h-5l-32 -32h-94l30 337l19 18l-21 23l101 285l1 5l-95 26l5 75
l31 31l1 7h330l23 23l1 7l271 23zM631 504l34 96l-23 6l-51 -76h15l-9 -94h-6l-16 -16l9 -6l4 -10.5l4 -10.5zM317 496l-26 -58h54q-14 11 -14 26q0 10 2 15t7 11l52 81q-14 -5 -27 -10.5t-24 -12.5l-23 -52h-1zM868 496l-26 -58h54q-14 11 -14 26q0 10 2 15t7 11l52 81
q-14 -5 -27 -10.5t-24 -12.5l-23 -52h-1zM401 192q0 31 -6 69h-61l67 -74v5zM952 192q0 31 -6 69h-61l67 -74v5zM669 753l-223 -19l-1 -14l76 -16q4 -1 4 -3h-433l-1 -14l95 -26l-3 -38l-32 -89h142l17 37q56 71 191 86l-97 -151q-3 -5 -3 -7q0 -25 161 -25l2 18h-9
q-21 0 -21 12q0 3 5 15l110 166l88 -24l-3 -38l-32 -89h142l17 37q56 71 191 86l-97 -151q-3 -5 -3 -7q0 -25 161 -25l2 18h-9q-21 0 -21 12q0 3 5 15l146 220l-16 14l-223 -19l-1 -14l76 -16q4 -1 4 -3h-417l26 38zM549 400h-316l51 114h-140l-57 -161l20 -22h353
q5 -31 8 -56.5t3 -47.5q0 -89 -41 -128l-155 170h-194l-24 -267h31l68 189l13 -4l171 -187h223q40 73 40 163q0 106 -54 237zM1100 400h-316l51 114h-140l-57 -161l20 -22h353q5 -31 8 -56.5t3 -47.5q0 -89 -41 -128l-155 170h-194l-24 -267h31l68 189l13 -4l171 -187h223
q40 73 40 163q0 106 -54 237z" />
    <glyph glyph-name="agrave" unicode="&#xe0;" horiz-adv-x="699" 
d="M282 39l-3 -6l5 6h-2zM531 807l-13 -68l-11 -5l13 -29q-1 -13 -1 -25v-23q0 -87 11.5 -176.5t39.5 -184t73.5 -196t113.5 -212.5l-10 3l-32 -33l-388 102l3 -4l-39 -35l-70 -49q-106 57 -305 59l26 79l31 30l2 8q45 12 70 24q58 125 104 254.5t82 268.5l-64 39l20 65l8 8
h-58l52 77l-30 12l50 86l24 24l9 15zM482 706l-20 16l-214 -21l-5 -16l57 -34q6 -3 6 -8q0 -1 -2 -5q-74 -299 -201 -564q-10 -34 -99 -58l-5 -15q159 -2 255 -53l24 17l-43 66q10 19 19 38.5l18 39.5h170q-19 38 -31.5 82.5t-17.5 98.5h-20l-8 -91q-4 -52 -78 -52
q77 195 119 449q5 -106 15 -197l79 22q-10 57 -14.5 116t-4.5 120v24t1 25zM503 401l-80 -23q25 -186 81 -305v-3q0 -21 -59 -21q-18 0 -42 2t-53 6l-14 -19l339 -89q-64 106 -107 217t-65 235zM259 873l-14 -24l32 -12l-40 -60h265z" />
    <glyph glyph-name="aacute" unicode="&#xe1;" horiz-adv-x="699" 
d="M282 39l-3 -6l5 6h-2zM563 739l-32 -32h-12l1 -2q-1 -13 -1 -25v-23q0 -87 11.5 -176.5t39.5 -184t73.5 -196t113.5 -212.5l-10 3l-32 -33l-388 102l3 -4l-39 -35l-70 -49q-106 57 -305 59l26 79l31 30l2 8q45 12 70 24q58 125 104 254.5t82 268.5l-64 39l20 65l8 8h-7
l-12 63l32 32l-1 5l289 114l53 -91l-10 -4l-16 -16l48 -71h-8zM482 706l-20 16l-214 -21l-5 -16l57 -34q6 -3 6 -8q0 -1 -2 -5q-74 -299 -201 -564q-10 -34 -99 -58l-5 -15q159 -2 255 -53l24 17l-43 66q10 19 19 38.5l18 39.5h170q-19 38 -31.5 82.5t-17.5 98.5h-20l-8 -91
q-4 -52 -78 -52q77 195 119 449q5 -106 15 -197l79 22q-10 57 -14.5 116t-4.5 120v24t1 25zM503 401l-80 -23q25 -186 81 -305v-3q0 -21 -59 -21q-18 0 -42 2t-53 6l-14 -19l339 -89q-64 106 -107 217t-65 235zM501 777l-40 60l32 12l-14 24l-243 -96h265z" />
    <glyph glyph-name="acircumflex" unicode="&#xe2;" horiz-adv-x="699" 
d="M282 39l-3 -6l5 6h-2zM638 717l-32 -32h-87v-28q0 -87 11.5 -176.5t39.5 -184t73.5 -196t113.5 -212.5l-10 3l-32 -33l-388 102l3 -4l-39 -35l-70 -49q-106 57 -305 59l26 79l31 30l2 8q45 12 70 24q58 125 104 254.5t82 268.5l-64 39l15 51h-119l32 32h-9l285 174
l282 -174h-15zM482 706l-20 11l-214 -16l-5 -16l57 -34q6 -3 6 -8q0 -1 -2 -5q-74 -299 -201 -564q-10 -34 -99 -58l-5 -15q159 -2 255 -53l24 17l-43 66q10 19 19 38.5l18 39.5h170q-19 38 -31.5 82.5t-17.5 98.5h-20l-8 -91q-4 -52 -78 -52q77 195 119 449q5 -106 15 -197
l79 22q-10 57 -14.5 116t-4.5 120v24t1 25zM503 401l-80 -23q25 -186 81 -305v-3q0 -21 -59 -21q-18 0 -42 2t-53 6l-14 -19l339 -89q-64 106 -107 217t-65 235zM518 755l-147 91l-149 -91h296z" />
    <glyph glyph-name="atilde" unicode="&#xe3;" horiz-adv-x="699" 
d="M282 39l-3 -6l5 6h-2zM520 705q-1 -13 -1 -25v-23q0 -87 11.5 -176.5t39.5 -184t73.5 -196t113.5 -212.5l-10 3l-32 -33l-388 102l3 -4l-39 -35l-70 -49q-106 57 -305 59l26 79l31 30l2 8q45 12 70 24q58 125 104 254.5t82 268.5l-64 39l19 63l-20 29l31 35l138 133
l83 -46l97 57l46 -54l-82 -95l28 -22zM482 706l-20 16l-214 -21l-5 -16l57 -34q6 -3 6 -8q0 -1 -2 -5q-74 -299 -201 -564q-10 -34 -99 -58l-5 -15q159 -2 255 -53l24 17l-43 66q10 19 19 38.5l18 39.5h170q-19 38 -31.5 82.5t-17.5 98.5h-20l-8 -91q-4 -52 -78 -52
q77 195 119 449q5 -106 15 -197l79 22q-10 57 -14.5 116t-4.5 120v24t1 25zM503 401l-80 -23q25 -186 81 -305v-3q0 -21 -59 -21q-18 0 -42 2t-53 6l-14 -19l339 -89q-64 106 -107 217t-65 235zM418 805l-78 42l-107 -104l111 56l78 -51l100 117z" />
    <glyph glyph-name="adieresis" unicode="&#xe4;" horiz-adv-x="699" 
d="M282 39l-3 -6l5 6h-2zM578 706h-6l-32 -32h-21v-17q0 -87 11.5 -176.5t39.5 -184t73.5 -196t113.5 -212.5l-10 3l-32 -33l-388 102l3 -4l-39 -35l-70 -49q-106 57 -305 59l26 79l31 30l2 8q45 12 70 24q58 125 104 254.5t82 268.5l-64 39l12 40h-4l15 168l31 31l1 7h371z
M482 706l-20 16l-214 -21l-5 -16l57 -34q6 -3 6 -8q0 -1 -2 -5q-74 -299 -201 -564q-10 -34 -99 -58l-5 -15q159 -2 255 -53l24 17l-43 66q10 19 19 38.5l18 39.5h170q-19 38 -31.5 82.5t-17.5 98.5h-20l-8 -91q-4 -52 -78 -52q77 195 119 449q5 -106 15 -197l79 22
q-10 57 -14.5 116t-4.5 120v24t1 25zM503 401l-80 -23q25 -186 81 -305v-3q0 -21 -59 -21q-18 0 -42 2t-53 6l-14 -19l339 -89q-64 106 -107 217t-65 235zM440 842l-9 -98h112l9 98h-112zM365 842h-108l-9 -98h108z" />
    <glyph glyph-name="aring" unicode="&#xe5;" horiz-adv-x="699" 
d="M282 39l-3 -6l5 6h-2zM327 -40l3 -4l-39 -35l-70 -49q-106 57 -305 59l26 79l31 30l2 8q45 12 70 24q58 125 104 254.5t82 268.5l-64 39l20 65l19 19q-12 27 -12 59q0 29 11.5 56t31.5 47l14 14q20 30 53 48.5t71 18.5q30 0 57.5 -12t47.5 -32t32 -47.5t12 -57.5
q0 -21 -5.5 -39.5t-15.5 -35.5l18 -14q-1 -13 -1.5 -33.5t-0.5 -32.5q0 -87 11.5 -176.5t39.5 -184t73.5 -196t113.5 -212.5l-10 3l-32 -33zM264 812q0 -35 19 -62t50 -41l-85 -8l-5 -16l57 -34q6 -3 6 -8q0 -1 -2 -5q-74 -299 -201 -564q-10 -34 -99 -58l-5 -15
q159 -2 255 -53l24 17l-43 66q10 19 19 38.5l18 39.5h170q-19 38 -31.5 82.5t-17.5 98.5h-20l-8 -91q-4 -52 -78 -52q77 195 119 449q5 -106 15 -197l79 22q-10 57 -14.5 116t-4.5 120v24t1 25l-20 16l-27 -3q23 17 37 40t14 53q0 22 -9 42.5t-24 35.5t-35.5 24t-42.5 9
q-23 0 -43 -9t-35 -24t-24 -35.5t-9 -42.5zM503 401l-80 -23q25 -186 81 -305v-3q0 -21 -59 -21q-18 0 -42 2t-53 6l-14 -19l339 -89q-64 106 -107 217t-65 235zM315 813q0 26 17 43.5t43 17.5t43.5 -17.5t17.5 -43.5t-17.5 -43t-43.5 -17t-43 17t-17 43z" />
    <glyph glyph-name="ae" unicode="&#xe6;" horiz-adv-x="1149" 
d="M743 447q0 1 -1 1zM534 447l22.5 20l19.5 17l-45 -16zM1142 746l-144 -216h15l-9 -94h-6l-32 -32q-104 0 -161 12l171 -87l-13 -6l-29 -29l-199 -92l13 -5l368 158l-20 -227l-9 -4l-29 -29l-367 -165q-158 40 -229 109h-180l-3 -6l51 -77l-39 -35l-70 -49
q-106 57 -305 59l26 79l31 30l2 8q45 12 70 24q58 125 104 254.5t82 268.5l-64 39l20 65l30 30l3 8l253 24l34 -27l13 -29q-1 -13 -1 -25v-23v-37q0 -18 2 -37l233 175l31 -28l31 32l1 7l271 23zM482 706l-20 16l-214 -21l-5 -16l57 -34q6 -3 6 -8q0 -1 -2 -5
q-74 -299 -201 -564q-10 -34 -99 -58l-5 -15q159 -2 255 -53l24 17l-43 66q10 19 19 38.5l18 39.5h170q-19 38 -31.5 82.5t-17.5 98.5h-20l-8 -91q-4 -52 -78 -52q77 195 119 449q5 -106 15 -197l79 22q-10 57 -14.5 116t-4.5 120v24t1 25zM503 401l-80 -23
q12 -86 27.5 -147t47 -104.5t85 -73t140.5 -51.5l337 151l13 142l-324 -139l-128 52l268 123l-129 66l-137 -81l68 -32l-127 -61q-20 34 -35.5 77.5t-25.5 100.5zM862 610l-110 99l-204 -153l10 -19l142 52q9 3 16 3q8 0 13 -6v-1q0 -16 -199 -191q-10 -9 -10 -17t8 -15
l75 -36l137 81l-45 23q-10 4 -10 11q0 6 8 13zM1076 753l-223 -19l-1 -14l76 -16q6 -2 6 -6q0 -3 -1 -4l-122 -188q-3 -5 -3 -7q0 -25 161 -25l2 18h-9q-21 0 -21 12q0 5 5 15l146 220z" />
    <glyph glyph-name="ccedilla" unicode="&#xe7;" horiz-adv-x="662" 
d="M453 -155l-38 -34l-160 -107l-94 106l33 33l-2 2l47 39l-12 15v68l-186 324q-20 19 -20 45q0 11 5 23.5t17 24.5l18 18q17 25 43 45.5t44 36.5l-70 -25l-38 72l32 32l-1 4l255 191l31 -28l31 32l1 7l271 23l54 -46l-144 -216h15l-9 -94h-6l-32 -32q-194 0 -223 44
l-27 -24q-10 -7 -10 -15l56 -104l67 -120l155 121l74 -109l-39 -34l-211 -172l80 -87zM265 454l195 156l-136 99l-204 -153l10 -19l142 52q9 3 16 3q8 0 13 -6v-1q0 -16 -199 -191q-11 -11 -11 -23t11 -22l94 -165l115 83l-69 126q-2 10 -2 16q0 26 25 45zM420 -109l-96 104
l255 209l-32 47l-158 -124l-68 123l-115 -83l91 -156v-63l74 -87l-32 -22l-41 44l-52 -42l50 -56l121 81zM664 739l-16 14l-223 -19l-1 -14l76 -16q6 -2 6 -6q0 -3 -1 -4l-122 -188q-3 -5 -3 -7q0 -25 161 -25l2 18h-9q-21 0 -21 12q0 5 5 15z" />
    <glyph glyph-name="egrave" unicode="&#xe8;" horiz-adv-x="704" 
d="M338 447q0 1 -1 1zM593 530h15l-9 -94h-6l-32 -32q-104 0 -161 12l171 -87l-13 -6l-29 -29l-199 -92l13 -5l368 158l-20 -227l-9 -4l-29 -29l-370 -166l-234 103q-44 36 -44 78q0 17 7 33.5t22 31.5l17 17q17 28 57 49l37 18l-74 37q-14 12 -20 23.5t-6 22.5q0 24 17 40
l22 22q6 10 21 23v-1q21 18 37 33t30 26l-71 -26l-38 72l32 32l-1 4l186 140h-65l52 77l-30 12l50 86l24 24l9 15l289 -114l-4 -22l78 7l54 -46zM355 397l-137 -81l68 -32l-161 -77q-26 -13 -38 -29t-12 -33q0 -26 27 -48l216 -95l337 151l13 142l-324 -139l-128 52l268 123
zM288 454l169 156l-110 99l-204 -153l10 -19l142 52q9 3 16 3q8 0 13 -6v-1q0 -16 -199 -191q-10 -9 -10 -17t8 -15l75 -36l137 81l-45 23q-10 4 -10 11q0 6 8 13zM687 739l-16 14l-223 -19l-1 -14l76 -16q6 -2 6 -6q0 -3 -1 -4l-122 -188q-3 -5 -3 -7q0 -25 161 -25l2 18
h-9q-21 0 -21 12q0 5 5 15zM337 873l-14 -24l32 -12l-40 -60h265z" />
    <glyph glyph-name="eacute" unicode="&#xe9;" horiz-adv-x="704" 
d="M338 447q0 1 -1 1zM593 530h15l-9 -94h-6l-32 -32q-104 0 -161 12l171 -87l-13 -6l-29 -29l-199 -92l13 -5l368 158l-20 -227l-9 -4l-29 -29l-370 -166l-234 103q-44 36 -44 78q0 17 7 33.5t22 31.5l17 17q17 28 57 49l37 18l-74 37q-14 12 -20 23.5t-6 22.5q0 24 17 40
l22 22q6 10 21 23v-1q21 18 37 33t30 26l-71 -26l-38 72l32 32l-1 4l186 140h-23l-12 63l32 32l-1 5l289 114l53 -91l-10 -4l-16 -16l17 -25l74 7l54 -46zM355 397l-137 -81l68 -32l-161 -77q-26 -13 -38 -29t-12 -33q0 -26 27 -48l216 -95l337 151l13 142l-324 -139
l-128 52l268 123zM288 454l169 156l-110 99l-204 -153l10 -19l142 52q9 3 16 3q8 0 13 -6v-1q0 -16 -199 -191q-10 -9 -10 -17t8 -15l75 -36l137 81l-45 23q-10 4 -10 11q0 6 8 13zM687 739l-16 14l-223 -19l-1 -14l76 -16q6 -2 6 -6q0 -3 -1 -4l-122 -188q-3 -5 -3 -7
q0 -25 161 -25l2 18h-9q-21 0 -21 12q0 5 5 15zM570 777l-40 60l32 12l-14 24l-243 -96h265z" />
    <glyph glyph-name="ecircumflex" unicode="&#xea;" horiz-adv-x="704" 
d="M338 447q0 1 -1 1zM593 530h15l-9 -94h-6l-32 -32q-104 0 -161 12l171 -87l-13 -6l-29 -29l-199 -92l13 -5l368 158l-20 -227l-9 -4l-29 -29l-370 -166l-234 103q-44 36 -44 78q0 17 7 33.5t22 31.5l17 17q17 28 57 49l37 18l-74 37q-14 12 -20 23.5t-6 22.5q0 24 17 40
l22 22q6 10 21 23v-1q21 18 37 33t30 26l-71 -26l-38 72l32 32l-1 4l186 140h-167l32 32h-9l285 174l204 -126l58 5l54 -46zM355 397l-137 -81l68 -32l-161 -77q-26 -13 -38 -29t-12 -33q0 -26 27 -48l216 -95l337 151l13 142l-324 -139l-128 52l268 123zM288 454l169 156
l-110 99l-204 -153l10 -19l142 52q9 3 16 3q8 0 13 -6v-1q0 -16 -199 -191q-10 -9 -10 -17t8 -15l75 -36l137 81l-45 23q-10 4 -10 11q0 6 8 13zM687 739l-16 14l-223 -19l-1 -14l76 -16q6 -2 6 -6q0 -3 -1 -4l-122 -188q-3 -5 -3 -7q0 -25 161 -25l2 18h-9q-21 0 -21 12
q0 5 5 15zM568 777l-147 91l-149 -91h296z" />
    <glyph glyph-name="edieresis" unicode="&#xeb;" horiz-adv-x="704" 
d="M338 447q0 1 -1 1zM593 530h15l-9 -94h-6l-32 -32q-104 0 -161 12l171 -87l-13 -6l-29 -29l-199 -92l13 -5l368 158l-20 -227l-9 -4l-29 -29l-370 -166l-234 103q-44 36 -44 78q0 17 7 33.5t22 31.5l17 17q17 28 57 49l37 18l-74 37q-14 12 -20 23.5t-6 22.5q0 24 17 40
l22 22q6 10 21 23v-1q21 18 37 33t30 26l-71 -26l-38 72l32 32l-1 4l152 114h-74l15 168l31 31l1 7h371l-9 -104l102 9l54 -46zM355 397l-137 -81l68 -32l-161 -77q-26 -13 -38 -29t-12 -33q0 -26 27 -48l216 -95l337 151l13 142l-324 -139l-128 52l268 123zM288 454
l169 156l-110 99l-204 -153l10 -19l142 52q9 3 16 3q8 0 13 -6v-1q0 -16 -199 -191q-10 -9 -10 -17t8 -15l75 -36l137 81l-45 23q-10 4 -10 11q0 6 8 13zM687 739l-16 14l-223 -19l-1 -14l76 -16q6 -2 6 -6q0 -3 -1 -4l-122 -188q-3 -5 -3 -7q0 -25 161 -25l2 18h-9
q-21 0 -21 12q0 5 5 15zM437 849l-9 -98h112l9 98h-112zM362 849h-108l-9 -98h108z" />
    <glyph glyph-name="igrave" unicode="&#xec;" 
d="M413 427l-24 -270l21 41l34 39l70 -49l-55 -226h-6l-32 -32h-389l-15 227l33 32l-1 5l75 45l17 -50l23 256l6 66l-24 -46l-3 2l-33 -33l-65 45l55 222l58 83l-30 12l50 86l24 24l9 15l289 -114l-13 -68l-7 -1h47l15 -231l-38 -33l-70 -42l-16 47l-4 -52h-1zM198 67h-39
l-20 11l-36 104l-15 -9l12 -173h329l42 172l-13 9l-54 -104l-22 -11h-38l33 379h-146zM379 465l14 169h39l21 -11l35 -104l15 9l-12 172h-329l-42 -171l13 -9l55 104l22 11h39l-35 -170h165zM228 873l-14 -24l32 -12l-40 -60h265z" />
    <glyph glyph-name="iacute" unicode="&#xed;" 
d="M534 739l-7 -7l15 -225l-38 -33l-70 -42l-16 47l-5 -52l-24 -270l21 41l34 39l70 -49l-55 -226h-6l-32 -32h-389l-15 227l33 32l-1 5l75 45l17 -50l23 256l6 66l-24 -46l-3 2l-33 -33l-65 45l55 222l30 30l2 8h20l-5 31l32 32l-1 5l289 114l53 -91l-10 -4l-16 -16l48 -71
h-8zM231 445l-33 -378h-39l-20 11l-36 104l-15 -9l12 -173h329l42 172l-13 9l-54 -104l-22 -11h-38l33 379h-146zM233 465h146l14 169h39l21 -11l35 -104l15 9l-12 172h-329l-42 -171l13 -9l55 104l22 11h39zM472 777l-40 60l32 12l-14 24l-243 -96h265z" />
    <glyph glyph-name="icircumflex" unicode="&#xee;" 
d="M602 717l-32 -32h-40l12 -178l-38 -33l-70 -42l-16 47l-5 -52l-24 -270l21 41l34 39l70 -49l-55 -226h-6l-32 -32h-389l-15 227l33 32l-1 5l75 45l17 -50l23 256l6 66l-24 -46l-3 2l-33 -33l-65 45l51 206h-69l32 32h-9l285 174l282 -174h-15zM231 445l-33 -378h-39
l-20 11l-36 104l-15 -9l12 -173h329l42 172l-13 9l-54 -104l-22 -11h-38l33 379h-146zM233 465h146l14 169h39l21 -11l35 -104l15 9l-12 172h-329l-42 -171l13 -9l55 104l22 11h39zM482 755l-147 91l-149 -91h296z" />
    <glyph glyph-name="idieresis" unicode="&#xef;" 
d="M512 738h15l15 -231l-38 -33l-70 -42l-16 45l-5 -50l-24 -270l21 41l34 39l70 -49l-55 -226h-6l-32 -32h-389l-15 227l33 32l-1 5l75 45l17 -50l23 256l6 66l-24 -46l-3 2l-33 -33l-65 45l55 222l10 10l9 103l31 31l1 7h371zM231 445l-33 -378h-39l-20 11l-36 104l-15 -9
l12 -173h329l42 172l-13 9l-54 -104l-22 -11h-38l33 379h-146zM233 465h146l14 169h39l21 -11l35 -104l15 9l-12 172h-329l-42 -171l13 -9l55 104l22 11h39zM369 814l-9 -98h112l9 98h-112zM294 814h-108l-9 -98h108z" />
    <glyph glyph-name="eth" unicode="&#xf0;" horiz-adv-x="771" 
d="M373 268v-1l5 6l-22 16l-101 -121l16 -10zM424 615l310 -225l5 -75l-217 -239l-136 -150l-3 2l-32 -33l-334 224l-7 92l32 36l232 251l-154 112l42 91l28 28l5 10h291v-86l-33 -32zM499 350l-187 133l-231 -250l5 -59l295 -198l124 137l-128 103l-99 -107l-81 50l183 218
l86 -63l-75 -83l128 -103l181 200l-3 42l-360 262l10 32l104 20l-1 17h-230l-21 -45l350 -251z" />
    <glyph glyph-name="ntilde" unicode="&#xf1;" horiz-adv-x="782" 
d="M428 80q1 0 1 1zM393 584q23 32 47 59l50 55l-35 -31l-51 33zM473 277q11 57 18 111t10 107q-65 -89 -138 -253l-13 -152q21 -4 36.5 -6t22.5 -2q19 45 34.5 93t29.5 102zM744 709q3 -57 3 -116q0 -75 -7 -158t-21 -177q-2 -3 -2.5 -8.5t-0.5 -9.5q-15 -80 -38.5 -166.5
t-57.5 -183.5q-2 1 -2.5 1.5t-2.5 1.5l-32 -33q-42 24 -89 43.5t-102 34.5l-10 -10l-63 -56q-63 28 -140 43t-172 16l5 77l32 31v6q16 5 28 8t22 7q20 223 31 356t12 178l-69 36v68l35 31l1 7l148 15l6 10l138 133l83 -46l97 57l46 -54l-129 -150q22 24 48 45l159 15l32 -28
zM706 706l-18 16l-132 -13q-119 -99 -218 -317l28 314l-18 16l-208 -21l-1 -16l66 -34q2 -2 2 -17q0 -42 -11 -181.5t-33 -378.5q-1 -34 -83 -58l-1 -15q155 -1 269 -53l19 17l-60 66l19 221q143 314 248 367v-14q0 -78 -8 -151.5t-23 -145.5l142 -24q24 153 24 309
q0 56 -3 113zM681 263l-143 25q-27 -115 -75 -217q-3 -27 -51 -27q-10 0 -21 1.5l-25 3.5l-9 -24q148 -25 242 -79q28 78 48 157t34 160zM479 805l-78 42l-107 -104l111 56l78 -51l100 117z" />
    <glyph glyph-name="ograve" unicode="&#xf2;" horiz-adv-x="662" 
d="M387 90q-16 38 -29.5 79.5t-23.5 85.5l-14 -173q5 -1 11 -1h15q20 0 42 5q0 1 -0.5 2t-0.5 2zM544 807l-10 -50h125l-17 -187q-6 -2 -8 -2l-30 -30q-26 -8 -33 -35.5t-7 -58.5q0 -30 4.5 -63t12.5 -65.5t19 -63.5t25 -56q9 -20 14.5 -41t5.5 -44q0 -42 -16.5 -79.5
t-51.5 -59.5l-15 -15q-17 -17 -41.5 -27t-52.5 -15.5t-56.5 -7.5t-53.5 -2q-53 0 -104 9t-94.5 23.5t-77.5 31.5t-55 34q0 16 1 26.5t2.5 18.5t4 16t4.5 19l30 30q0 2 1 3q18 199 27 318t10 160l-69 36v70l35 31l1 7h99l29 46l-30 12l50 86l24 24l9 15zM454 138q5 -15 5 -24
q0 -18 -10.5 -31.5t-27 -22t-36.5 -13t-39 -4.5q-22 0 -40.5 5.5t-25.5 16.5l8 90h-147l-5 -55l-13 -9.5t-13 -7.5h-8q-1 -7 -2.5 -14t-2.5 -14q17 -14 46.5 -28t68.5 -25t85.5 -18.5t96.5 -7.5q42 0 80.5 5t68 20t47 41.5t17.5 69.5q0 37 -16 68q-29 56 -47 127.5
t-18 137.5q0 62 18.5 105.5t61.5 51.5l11 120h-507l-1 -37l66 -34q2 -2 2 -19q0 -38 -9 -152t-26 -305h147l42 482l81 6q-17 -34 -25 -77t-8 -92q0 -87 21 -180.5t54 -175.5zM272 873l-14 -24l32 -12l-40 -60h265z" />
    <glyph glyph-name="oacute" unicode="&#xf3;" horiz-adv-x="662" 
d="M386 92q-16 38 -29 79t-23 84l-14 -173q5 -1 11 -1h15q20 0 42 5q0 1 -0.5 2t-0.5 2zM604 538q-26 -8 -33 -35.5t-7 -58.5q0 -30 4.5 -63t12.5 -65.5t19 -63.5t25 -56q9 -20 14.5 -41t5.5 -44q0 -42 -16.5 -79.5t-51.5 -59.5l-15 -15q-17 -17 -41.5 -27t-52.5 -15.5
t-56.5 -7.5t-53.5 -2q-53 0 -104 9t-94.5 23.5t-77.5 31.5t-55 34q0 16 1 26.5t2.5 18.5t4 16t4.5 19l30 30q0 2 1 3q18 199 27 318t10 160l-69 36v70l35 31l1 7h116l-5 32l32 32l-1 5l289 114l53 -91l-10 -4l-16 -16l35 -52h92l-17 -188q-6 -2 -8 -2zM454 138q5 -15 5 -24
q0 -18 -10.5 -31.5t-27 -22t-36.5 -13t-39 -4.5q-22 0 -40.5 5.5t-25.5 16.5l8 90h-147l-5 -55l-13 -9.5t-13 -7.5h-8q-1 -7 -2.5 -14t-2.5 -14q17 -14 46.5 -28t68.5 -25t85.5 -18.5t96.5 -7.5q42 0 80.5 5t68 20t47 41.5t17.5 69.5q0 37 -16 68q-29 56 -47 127.5
t-18 137.5q0 62 18.5 105.5t61.5 51.5l11 120h-507l-1 -37l66 -34q2 -2 2 -19q0 -38 -9 -152t-26 -305h147l42 482l81 6q-17 -34 -25 -77t-8 -92q0 -87 21 -180.5t54 -175.5zM510 777l-40 60l32 12l-14 24l-243 -96h265z" />
    <glyph glyph-name="ocircumflex" unicode="&#xf4;" horiz-adv-x="662" 
d="M595 550q-1 -1 -2 -1.5t-2 -2.5zM386 92q-16 38 -29 79t-23 84l-14 -173q5 -1 11 -1h15q19 0 41 5q0 2 -0.5 2.5t-0.5 2.5v1zM604 538q-26 -8 -33 -35.5t-7 -58.5q0 -30 4.5 -63t12.5 -65.5t19 -63.5t25 -56q9 -20 14.5 -41t5.5 -44q0 -42 -16.5 -79.5t-51.5 -59.5
l-15 -15q-17 -17 -41.5 -27t-52.5 -15.5t-56.5 -7.5t-53.5 -2q-53 0 -104 9t-94.5 23.5t-77.5 31.5t-55 34q0 16 1 26.5t2.5 18.5t4 16t4.5 19l30 30q0 2 1 3q18 199 27 318t10 160l-69 36v70l35 31l1 7l46 2l248 151l214 -132h77l-17 -189q-6 -2 -8 -2zM454 138
q5 -15 5 -24q0 -18 -10.5 -31.5t-27 -22t-36.5 -13t-39 -4.5q-22 0 -40.5 5.5t-25.5 16.5l8 90h-147l-5 -55l-13 -9.5t-13 -7.5h-8q-1 -7 -2.5 -14t-2.5 -14q17 -14 46.5 -28t68.5 -25t85.5 -18.5t96.5 -7.5q42 0 80.5 5t68 20t47 41.5t17.5 69.5q0 37 -16 68
q-29 56 -47 127.5t-18 137.5q0 62 18.5 105.5t61.5 51.5l11 120h-507l-1 -37l66 -34q2 -2 2 -19q0 -38 -9 -152t-26 -305h147l42 482l81 6q-17 -34 -25 -77t-8 -92q0 -87 21 -180.5t54 -175.5zM515 755l-147 91l-149 -91h296z" />
    <glyph glyph-name="otilde" unicode="&#xf5;" horiz-adv-x="662" 
d="M386 92q-16 38 -29 79t-23 84l-14 -173q5 -1 11 -1h15q20 0 42 5q0 2 -1 3t-1 2v1zM604 538q-26 -8 -33 -35.5t-7 -58.5q0 -30 4.5 -63t12.5 -65.5t19 -63.5t25 -56q9 -20 14.5 -41t5.5 -44q0 -42 -16.5 -79.5t-51.5 -59.5l-15 -15q-17 -17 -41.5 -27t-52.5 -15.5
t-56.5 -7.5t-53.5 -2q-53 0 -104 9t-94.5 23.5t-77.5 31.5t-55 34q0 16 1 26.5t2.5 18.5t4 16t4.5 19l30 30q0 2 1 3q18 199 27 318t10 160l-69 36v70l35 31l1 7h99l15 23l138 133l83 -46l97 57l46 -54l-84 -97h191l-17 -184q-6 -2 -8 -2zM454 138q5 -15 5 -24
q0 -18 -10.5 -31.5t-27 -22t-36.5 -13t-39 -4.5q-22 0 -40.5 5.5t-25.5 16.5l8 90h-147l-5 -55l-13 -9.5t-13 -7.5h-8q-1 -7 -2.5 -14t-2.5 -14q17 -14 46.5 -28t68.5 -25t85.5 -18.5t96.5 -7.5q42 0 80.5 5t68 20t47 41.5t17.5 69.5q0 37 -16 68q-29 56 -47 127.5
t-18 137.5q0 62 18.5 105.5t61.5 51.5l11 120h-507l-1 -37l66 -34q2 -2 2 -19q0 -38 -9 -152t-26 -305h147l42 482l81 6q-17 -34 -25 -77t-8 -92q0 -87 21 -180.5t54 -175.5zM409 805l-78 42l-107 -104l111 56l78 -51l100 117z" />
    <glyph glyph-name="odieresis" unicode="&#xf6;" horiz-adv-x="662" 
d="M595 550q-1 -1 -2 -1.5t-2 -2.5zM386 92q-16 38 -29 79t-23 84l-14 -173q5 -1 11 -1h15q20 0 42 5q0 1 -0.5 2t-0.5 2l-1 1v1zM554 757h105l-17 -187q-6 -2 -8 -2l-30 -30q-26 -8 -33 -35.5t-7 -58.5q0 -30 4.5 -63t12.5 -65.5t19 -63.5t25 -56q9 -20 14.5 -41t5.5 -44
q0 -42 -16.5 -79.5t-51.5 -59.5l-15 -15q-17 -17 -41.5 -27t-52.5 -15.5t-56.5 -7.5t-53.5 -2q-53 0 -104 9t-94.5 23.5t-77.5 31.5t-55 34q0 16 1 26.5t2.5 18.5t4 16t4.5 19l30 30q0 2 1 3q18 199 27 318t10 160l-69 36v70l35 31l1 7h78l10 104l31 31l1 7h371zM454 138
q5 -15 5 -24q0 -18 -10.5 -31.5t-27 -22t-36.5 -13t-39 -4.5q-22 0 -40.5 5.5t-25.5 16.5l8 90h-147l-5 -55l-13 -9.5t-13 -7.5h-8q-1 -7 -2.5 -14t-2.5 -14q17 -14 46.5 -28t68.5 -25t85.5 -18.5t96.5 -7.5q42 0 80.5 5t68 20t47 41.5t17.5 69.5q0 37 -16 68
q-29 56 -47 127.5t-18 137.5q0 62 18.5 105.5t61.5 51.5l11 120h-507l-1 -37l66 -34q2 -2 2 -19q0 -38 -9 -152t-26 -305h147l42 482l81 6q-17 -34 -25 -77t-8 -92q0 -87 21 -180.5t54 -175.5zM412 842l-9 -98h112l9 98h-112zM337 842h-108l-9 -98h108z" />
    <glyph glyph-name="oslash" unicode="&#xf8;" horiz-adv-x="662" 
d="M340 230q-2 4 -2.5 7.5t-2.5 8.5l-7 -53h1l-9 -111q5 -1 11 -1h15q19 0 41 5q0 1 -0.5 2t-0.5 2q-13 32 -24 67zM604 538q-26 -8 -33 -35.5t-7 -58.5q0 -30 4.5 -63t12.5 -65.5t19 -63.5t25 -56q9 -20 14.5 -41t5.5 -44q0 -42 -16.5 -79.5t-51.5 -59.5l-15 -15
q-17 -17 -41.5 -27t-52.5 -15.5t-56.5 -7.5t-53.5 -2q-53 0 -104 9t-94.5 23.5t-77.5 31.5t-55 34q0 16 1 26.5t2.5 18.5t4 16t4.5 19l30 30q0 2 1 3q18 199 27 318t10 160l-69 36v70l35 31l1 7h585l-17 -168q-6 -2 -8 -2zM454 138q5 -15 5 -24q0 -18 -10.5 -31.5t-27 -22
t-36.5 -13t-39 -4.5q-22 0 -40.5 5.5t-25.5 16.5l8 90h-147l-5 -55l-13 -9.5t-13 -7.5h-8q-1 -7 -2.5 -14t-2.5 -14q17 -14 46.5 -28t68.5 -25t85.5 -18.5t96.5 -7.5q42 0 80.5 5t68 20t47 41.5t17.5 69.5q0 37 -16 68q-29 56 -47 127.5t-18 137.5q0 62 18.5 105.5
t61.5 51.5l11 120h-507l-1 -37l66 -34q2 -2 2 -19q0 -38 -9 -152t-26 -305h147l7 87l96 88q11 -54 26.5 -107.5t35.5 -104.5zM306 379l25 278l81 6q-18 -35 -25.5 -80t-7.5 -98v-19q0 -9 1 -19z" />
    <glyph glyph-name="ugrave" unicode="&#xf9;" horiz-adv-x="633" 
d="M369 707q4 -8 6 -11l11 11h-17zM315 81l15 198q-26 -62 -44 -98t-34 -63v1q-4 -8 -4 -14q0 -12 20 -18t43 -6h4zM539 807l-11 -54l173 -17v-76l-14 -5l-28 -28l-46 -22l-42 -484h28v-52q0 -3 0.5 -7.5t5.5 -22.5q-8 -6 -12 -8l-26 -26q-24 -17 -62 -34.5t-84.5 -32
t-98.5 -24t-105 -9.5q-46 0 -87.5 6t-73 22t-50 44.5t-18.5 72.5q0 29 10 59.5t29 56.5l-1 -1q25 35 44.5 81t40.5 108l-1 2q6 21 11.5 45t9 48t6 47t2.5 41q0 38 -14 62.5t-43 30.5l10 96l31 31l1 7l54 -7l19 27l-30 12l50 86l24 24l9 15zM588 651l72 34l1 16l-204 21
l-20 -16l-56 -641q-9 -11 -28.5 -16.5t-41.5 -5.5q-17 0 -35 4t-33 11.5t-24.5 19t-9.5 27.5q0 15 9.5 36t24 47l30.5 56.5t30 64.5l-130 52q-17 -50 -38 -98t-45 -83q-16 -21 -24 -46t-8 -49q0 -38 18.5 -60t47 -33t62.5 -14t66 -3q50 0 97.5 7.5t88 19t72.5 25.5t52 28
q-1 4 -1 14v14h-8q-9 4 -22 17l47 538q1 8 10 13zM178 381l133 -53q24 66 38.5 130t14.5 118q0 38 -8 69.5t-26 55.5l-172 21l-3 -30q28 -6 41 -38t13 -82q0 -42 -7.5 -91.5t-23.5 -99.5zM267 873l-14 -24l32 -12l-40 -60h265z" />
    <glyph glyph-name="uacute" unicode="&#xfa;" horiz-adv-x="633" 
d="M369 707q4 -8 6 -11l11 11h-17zM315 81l15 198q-26 -62 -44 -98t-34 -63v1q-4 -8 -4 -14q0 -12 20 -18t43 -6h4zM687 655l-28 -28l-46 -22l-42 -484h28v-52q0 -3 0.5 -7.5t5.5 -22.5q-8 -6 -12 -8l-26 -26q-24 -17 -62 -34.5t-84.5 -32t-98.5 -24t-105 -9.5
q-46 0 -87.5 6t-73 22t-50 44.5t-18.5 72.5q0 29 10 59.5t29 56.5l-1 -1q25 35 44.5 81t40.5 108l-1 2q6 21 11.5 45t9 48t6 47t2.5 41q0 38 -14 62.5t-43 30.5l10 96l31 31l1 7l60 -8l-2 14l32 32l-1 5l289 114l53 -91l-10 -4l-16 -16l41 -61l131 -13v-76zM588 651l72 34
l1 16l-204 21l-20 -16l-56 -641q-9 -11 -28.5 -16.5t-41.5 -5.5q-17 0 -35 4t-33 11.5t-24.5 19t-9.5 27.5q0 15 9.5 36t24 47l30.5 56.5t30 64.5l-130 52q-17 -50 -38 -98t-45 -83q-16 -21 -24 -46t-8 -49q0 -38 18.5 -60t47 -33t62.5 -14t66 -3q50 0 97.5 7.5t88 19
t72.5 25.5t52 28q-1 4 -1 14v14h-8q-9 4 -22 17l47 538q1 8 10 13zM178 381l133 -53q24 66 38.5 130t14.5 118q0 38 -8 69.5t-26 55.5l-172 21l-3 -30q28 -6 41 -38t13 -82q0 -42 -7.5 -91.5t-23.5 -99.5zM507 777l-40 60l32 12l-14 24l-243 -96h265z" />
    <glyph glyph-name="ucircumflex" unicode="&#xfb;" horiz-adv-x="633" 
d="M315 81l15 198q-26 -62 -44 -98t-34 -63v1q-4 -8 -4 -14q0 -12 20 -18t43 -6h4zM687 655l-28 -28l-46 -22l-42 -484h28v-52q0 -3 0.5 -7.5t5.5 -22.5q-8 -6 -12 -8l-26 -26q-24 -17 -62 -34.5t-84.5 -32t-98.5 -24t-105 -9.5q-46 0 -87.5 6t-73 22t-50 44.5t-18.5 72.5
q0 29 10 59.5t29 56.5l-1 -1q25 35 44.5 81t40.5 108l-1 2q6 21 11.5 45t9 48t6 47t2.5 41q0 38 -14 62.5t-43 30.5l5 55h-12l14 14l3 27l31 31l1 7l42 -5l217 132l238 -147l80 -8v-76zM588 651l72 34l1 16l-204 21l-20 -16l-56 -641q-9 -11 -28.5 -16.5t-41.5 -5.5
q-17 0 -35 4t-33 11.5t-24.5 19t-9.5 27.5q0 15 9.5 36t24 47l30.5 56.5t30 64.5l-130 52q-17 -50 -38 -98t-45 -83q-16 -21 -24 -46t-8 -49q0 -38 18.5 -60t47 -33t62.5 -14t66 -3q50 0 97.5 7.5t88 19t72.5 25.5t52 28q-1 4 -1 14v14h-8q-9 4 -22 17l47 538q1 8 10 13z
M178 381l133 -53q24 66 38.5 130t14.5 118q0 38 -8 69.5t-26 55.5l-172 21l-3 -30q28 -6 41 -38t13 -82q0 -42 -7.5 -91.5t-23.5 -99.5zM530 755l-147 91l-149 -91h296z" />
    <glyph glyph-name="udieresis" unicode="&#xfc;" horiz-adv-x="633" 
d="M315 81l15 198q-26 -62 -44 -98t-34 -63v1q-4 -8 -4 -14q0 -12 20 -18t43 -6h4zM574 880l-11 -131l138 -13v-76l-14 -5l-28 -28l-46 -22l-42 -484h28v-52q0 -3 0.5 -7.5t5.5 -22.5q-8 -6 -12 -8l-26 -26q-24 -17 -62 -34.5t-84.5 -32t-98.5 -24t-105 -9.5q-46 0 -87.5 6
t-73 22t-50 44.5t-18.5 72.5q0 29 10 59.5t29 56.5l-1 -1q25 35 44.5 81t40.5 108l-1 2q6 21 11.5 45t9 48t6 47t2.5 41q0 38 -14 62.5t-43 30.5l10 96l31 31l1 7l39 -5l8 83l31 31l1 7h371zM588 651l72 34l1 16l-204 21l-20 -16l-56 -641q-9 -11 -28.5 -16.5t-41.5 -5.5
q-17 0 -35 4t-33 11.5t-24.5 19t-9.5 27.5q0 15 9.5 36t24 47l30.5 56.5t30 64.5l-130 52q-17 -50 -38 -98t-45 -83q-16 -21 -24 -46t-8 -49q0 -38 18.5 -60t47 -33t62.5 -14t66 -3q50 0 97.5 7.5t88 19t72.5 25.5t52 28q-1 4 -1 14v14h-8q-9 4 -22 17l47 538q1 8 10 13z
M178 381l133 -53q24 66 38.5 130t14.5 118q0 38 -8 69.5t-26 55.5l-172 21l-3 -30q28 -6 41 -38t13 -82q0 -42 -7.5 -91.5t-23.5 -99.5zM421 842l-9 -98h112l9 98h-112zM346 842h-108l-9 -98h108z" />
    <glyph glyph-name="yacute" unicode="&#xfd;" horiz-adv-x="640" 
d="M102 511q0 -1 -1 -1l1 -1v2zM315 85h12l9 104q-6 -12 -17.5 -25t-24 -25.5l-23 -23.5t-14.5 -20q5 -5 21.5 -7.5t36.5 -2.5zM286 414q0 -17 21 -27t45 -12l16 180q-2 -4 -8 -12h-1q-4 -8 -6 -11l1 1l-13 -20t-14 -24l5 -2l-22 -28.5t-12 -18.5l-3 1q-1 0 -1 -1l1 -3
l-5 -8q-4 -7 -4 -15zM699 655l-28 -28l-46 -22l-42 -477h29v-84l-6.5 -4.5l-6.5 -4.5l-25 -25q-23 -17 -60 -34t-83 -31.5t-98 -23.5t-104 -9q-37 0 -80 5t-80 19.5t-61.5 40t-24.5 66.5q0 20 8 42t28 42l14 14q9 14 27 31q-2 0 -3 1l5 90q-17 18 -25.5 42.5t-8.5 53.5
t9.5 59.5t27.5 56.5l3 3q2 3 3.5 6t3.5 5l24 34l1 1q27 35 44 61t17 31h-1q-3 0 -18.5 3t-45.5 8l6 99l31 31l1 7l59 -8l-2 14l32 32l-1 5l289 114l53 -91l-10 -4l-16 -16l41 -61l134 -13v-76zM600 651l72 34l1 16l-204 21l-20 -16l-31 -351q-8 -9 -22.5 -13.5t-31.5 -4.5
q-19 0 -39.5 5t-37.5 15t-28 24.5t-11 32.5q0 13 7 28t16 28l-122 49l-10 -14q-18 -29 -29.5 -54.5t-11.5 -56.5q0 -38 18 -59.5t46.5 -32.5t64 -14t70.5 -3q30 0 59.5 3t56.5 8l-20 -224q-11 -13 -32.5 -19t-45.5 -6q-17 0 -33 3t-29.5 8t-23 13t-11.5 18v3q0 17 14 35
t31.5 35.5t31.5 34t14 31.5q0 9 -6 18l-172 25l-2 -32q20 -2 28 -6.5t8 -11.5q0 -10 -13.5 -22.5t-31 -26l-33.5 -27t-22 -25.5q-12 -23 -12 -42q0 -31 21.5 -49.5t53.5 -28.5t69 -13.5t68 -3.5q50 0 97.5 7t88 18.5t72.5 25.5t51 28v28h-8q-11 4 -23 17l47 531q1 8 10 13z
M161 536l121 -49l70 115t25 61q0 13 -8.5 21.5t-26.5 16.5l-172 21l-2 -32q33 -6 48 -15t15 -24q0 -17 -19 -45t-51 -70zM516 777l-40 60l32 12l-14 24l-243 -96h265z" />
    <glyph glyph-name="ydieresis" unicode="&#xff;" horiz-adv-x="640" 
d="M102 511q0 -1 -1 -1l1 -1v2zM315 85h12l9 104q-6 -12 -17.5 -25t-24 -25.5l-23 -23.5t-14.5 -20q5 -5 21.5 -7.5t36.5 -2.5zM286 414q0 -17 21 -27t45 -12l16 180q-2 -4 -8 -12h-1q-4 -8 -6 -11l1 1l-13 -20t-14 -24l5 -2l-22 -28.5t-12 -18.5l-3 1q-1 0 -1 -1l1 -3
l-5 -8q-4 -7 -4 -15zM575 749l138 -13v-76l-14 -5l-28 -28l-46 -22l-42 -477h29v-84l-6.5 -4.5l-6.5 -4.5l-25 -25q-23 -17 -60 -34t-83 -31.5t-98 -23.5t-104 -9q-37 0 -80 5t-80 19.5t-61.5 40t-24.5 66.5q0 20 8 42t28 42l14 14q9 14 27 31q-2 0 -3 1l5 90
q-17 18 -25.5 42.5t-8.5 53.5t9.5 59.5t27.5 56.5l3 3q2 3 3.5 6t3.5 5l24 34q27 35 44.5 61.5t17.5 31.5h-1q-3 0 -18.5 3t-45.5 8l6 99l31 31l1 7l41 -6l8 84l31 31l1 7h371zM600 651l72 34l1 16l-204 21l-20 -16l-31 -351q-8 -9 -22.5 -13.5t-31.5 -4.5q-19 0 -39.5 5
t-37.5 15t-28 24.5t-11 32.5q0 13 7 28t16 28l-122 49l-10 -14q-18 -29 -29.5 -54.5t-11.5 -56.5q0 -38 18 -59.5t46.5 -32.5t64 -14t70.5 -3q30 0 59.5 3t56.5 8l-20 -224q-11 -13 -32.5 -19t-45.5 -6q-17 0 -33 3t-29.5 8t-23 13t-11.5 18v3q0 17 14 35t31.5 35.5t31.5 34
t14 31.5q0 9 -6 18l-172 25l-2 -32q20 -2 28 -6.5t8 -11.5q0 -10 -13.5 -22.5t-31 -26l-33.5 -27t-22 -25.5q-12 -23 -12 -42q0 -31 21.5 -49.5t53.5 -28.5t69 -13.5t68 -3.5q50 0 97.5 7t88 18.5t72.5 25.5t51 28v28h-8q-11 4 -23 17l47 531q1 8 10 13zM161 536l121 -49
l70 115t25 61q0 13 -8.5 21.5t-26.5 16.5l-172 21l-2 -32q33 -6 48 -15t15 -24q0 -17 -19 -45t-51 -70zM433 842l-9 -98h112l9 98h-112zM358 842h-108l-9 -98h108z" />
    <glyph glyph-name="nungadesh" horiz-adv-x="395" 
d="M16 777q0 29 11.5 56t31.5 47l14 14q20 30 53 48.5t71 18.5q30 0 57.5 -12t47.5 -32t32 -47.5t12 -57.5q0 -38 -18.5 -71t-48.5 -53l-14 -14q-20 -20 -47 -31.5t-56 -11.5q-30 0 -56.5 11.5t-46.5 31.5t-31.5 46.5t-11.5 56.5zM86 812q0 -23 9 -43t24 -35t35 -24t43 -9
q22 0 42.5 9t35.5 24t24 35t9 43q0 22 -9 42.5t-24 35.5t-35.5 24t-42.5 9q-23 0 -43 -9t-35 -24t-24 -35.5t-9 -42.5zM137 813q0 26 17 43.5t43 17.5t43.5 -17.5t17.5 -43.5t-17.5 -43t-43.5 -17t-43 17t-17 43z" />
    <glyph glyph-name="numbersign" unicode="#" horiz-adv-x="494" 
d="M178 201h111l33 155h-113zM337 202h93v-63h-104l-30 -139h-47l28 139h-111l-29 -139h-48l28 139h-89v63h102l30 153h-95v63h109l25 136h50l-26 -136h110l28 136h48l-27 -136h84v-63h-97z" />
    <glyph glyph-name="parenleft" unicode="(" horiz-adv-x="233" 
d="M130 -143q-100 169 -100 360t100 360h72q-55 -75 -82.5 -166t-27.5 -194q0 -185 111 -360h-73z" />
    <glyph glyph-name="parenright" unicode=")" horiz-adv-x="232" 
d="M29 -143q30 46 51 88.5t34.5 85.5t19.5 88.5t6 97.5q0 107 -27.5 192.5t-83.5 167.5h72q51 -85 75.5 -174t24.5 -186t-24.5 -186t-75.5 -174h-72z" />
    <glyph glyph-name="at" unicode="@" horiz-adv-x="530" 
d="M356 389v-121q0 -41 37 -41q22 0 40 25t18 71q0 45 -10 83t-32.5 65.5t-57.5 43t-86 15.5q-40 0 -74.5 -13.5t-60 -41t-40 -68.5t-14.5 -95q0 -109 46 -164.5t123 -68.5l-6 -55q-56 8 -97 33t-68 63.5t-40.5 87.5t-13.5 105q0 64 20.5 114.5t54 85.5t78 53t92.5 18
q115 0 178 -62t63 -194q0 -19 -4 -44.5t-16 -48.5t-34.5 -39t-59.5 -16q-55 0 -73 41q-30 -21 -63 -21q-36 0 -63.5 24t-27.5 71q0 46 24 71t66 25q34 0 56 -16l5 14h40zM311 326q-18 19 -47 19q-54 0 -54 -50q0 -49 51 -49q32 0 50 23v57z" />
    <glyph glyph-name="copyright" unicode="&#xa9;" horiz-adv-x="635" 
d="M41 277q0 57 22 108t59.5 88.5t88.5 59.5t108 22t108 -22t88.5 -59.5t59.5 -88.5t22 -108t-22 -108t-59.5 -88.5t-88.5 -59.5t-108 -22t-108 22t-88.5 59.5t-59.5 88.5t-22 108zM74 276q0 -51 19.5 -96t52.5 -78t78 -52.5t96 -19.5t96 19.5t78.5 52.5t53 78t19.5 96
t-19.5 96t-53 79t-78.5 53.5t-96 19.5t-96 -19.5t-78 -53.5t-52.5 -79t-19.5 -96zM378 346q-26 36 -63 36q-35 0 -56 -29t-21 -80q0 -48 22.5 -78t55.5 -30q17 0 33.5 8.5t28.5 22.5l50 -34q-38 -62 -113 -62q-30 0 -55.5 13t-44 36.5t-29 55t-10.5 68.5t9.5 69t27.5 55.5
t44 36.5t58 13q78 0 115 -67z" />
    <glyph glyph-name="registered" unicode="&#xae;" horiz-adv-x="540" 
d="M270 524q-42 0 -75.5 -15t-57 -39t-36 -55t-12.5 -62q0 -32 12.5 -63t36 -55t57 -39t75.5 -15q39 0 74.5 13t61.5 36.5t41.5 55t15.5 67.5q0 31 -14.5 62t-40 55t-61 39t-77.5 15zM271 142q-49 0 -90 17.5t-71 46.5t-46.5 67t-16.5 80q0 43 16.5 81.5t46.5 67.5t71 46
t90 17t91 -16.5t72.5 -45t47.5 -67t17 -83.5q0 -42 -17.5 -80t-48 -67t-72.5 -46.5t-90 -17.5zM246 418v-52h38q24 0 24 25q0 27 -24 27h-38zM270 319h-24v-84h-45v229h82q32 0 51.5 -19t19.5 -54q0 -23 -9 -37.5t-29 -27.5l41 -91h-48z" />
    <glyph glyph-name="guilsinglleft" unicode="&#x2039;" horiz-adv-x="230" 
d="M95 302l102 -48v-60l-156 77v59l156 81v-62z" />
    <glyph glyph-name="trademark" unicode="&#x2122;" horiz-adv-x="561" 
d="M173 484v-223h-59v223h-71v54h199v-54h-69zM448 414l-60 -154l-66 160v-158h-55v277h67l53 -143l52 143h65v-277h-56v152z" />
    <glyph glyph-name="guilsinglright" unicode="&#x203a;" horiz-adv-x="230" 
d="M143 304l-102 47v60l156 -77v-59l-156 -81v62z" />
    <glyph glyph-name="guillemotleft" unicode="&#xab;" horiz-adv-x="374" 
d="M95 302l102 -48v-60l-156 77v59l156 81v-62zM243 302l102 -48v-60l-156 77v59l156 81v-62z" />
    <glyph glyph-name="guillemotright" unicode="&#xbb;" horiz-adv-x="386" 
d="M302 304l-102 47v60l156 -77v-59l-156 -81v62zM154 304l-102 47v60l156 -77v-59l-156 -81v62z" />
    <glyph glyph-name="asciicircum" unicode="^" horiz-adv-x="1414" 
d="M62 293h1v47h67v28h-18v88h18v31h-18v37h439v-46q-7 13 -24 13q-46 0 -46 -77q0 -76 48 -76q15 0 31 19v-17h24v184h374v-26h34v26h360v-524h-1290v293zM938 340v94q0 54 -47 54q-24 0 -31 -24q-9 24 -28 24q-17 0 -27 -24v23h-32v-119h-19v-28h70v28h-19v61q0 23 19 23
q15 0 15 -23v-89h51v28h-19v61q0 22 19 22q15 0 15 -22v-89h33zM986 267h-56v-189h32v122h3l9 -122h58v189h-32v-122h-3zM480 267v-189h79l11 21v62l-8 14v3l8 14v55l-11 20h-79zM826 247v-148l10 -21h67l12 21v148l-11 20h-68zM271 267v-189h38v83h11v-83h41v76l-15 21v3
l15 20v49l-11 20h-79zM256 293h33v56q7 -12 24 -12q46 0 46 76t-48 76q-14 0 -31 -20v18h-24v-194zM475 412q0 78 -55 78q-54 0 -54 -78q0 -76 54 -76q55 0 55 76zM1184 209h38v38l-10 20h-66l-11 -20v-66l12 -20l37 -9v-38h-10v28h-39v-43l11 -21h65l11 21v72l-13 21l-35 8
v33h10v-24zM256 78v69l-26 120h-41l-23 -120v-69h37v36h13v-36h40zM464 78v69l-24 120h-41l-23 -120v-69h38v36h12v-36h38zM169 293h21q55 6 55 71v123h-33v-91q0 -26 -20 -26q-19 0 -19 26v91h-32v-85q0 -64 46 -64q14 0 25 8q0 -23 -28 -23h-15v-30zM678 159h26v33h-26v35
h26v40h-64v-189h64v42h-26v39zM786 156h24v33h-24v38h24v40h-63v-189h39v78zM1064 227v-149h39v149h21v40h-81v-40h21zM685 487h-15v-23q-11 26 -33 26q-43 0 -43 -43q0 -27 22 -36q-23 -9 -23 -33q1 -42 45 -42q22 0 34.5 13t12.5 40h-15q-3 -19 -25 -19q-20 0 -20 14
q0 18 20 18h10v18h-10q-20 0 -20 17q0 16 20 16q17 0 25 -20h15v54zM1096 485h-16v-21q-12 26 -30 26q-50 0 -50 -78q0 -75 51 -75q36 0 45 58h-16q-3 -23 -25 -23q-23 0 -23 40q0 41 23 41t25 -27h16v59zM151 120h-22v147h-38v-189h60v42zM625 78v189h-39v-189h39zM740 368
h-14v65q0 20 14 20q6 0 12 -6l11 33q-8 7 -17 8q-21 0 -31 -24v23h-19v-147h44v28zM943 487v-31h15v-116h34v147h-49zM286 437q6 15 21 15q21 0 21 -38q0 -43 -22 -43q-14 0 -20 16v50zM442 412q0 -40 -22 -40q-21 0 -21 40q0 41 21 41q22 0 22 -41zM553 389q-6 -14 -20 -14
q-21 0 -21 38q0 43 22 43q13 0 19 -16v-51zM63 368v88h19v-88h-19zM864 114v119h11v-119h-11zM63 487v37h19v-37h-19zM203 142v19l6 50h2l5 -50v-19h-13zM414 142v19l5 50h3l4 -50v-19h-12zM519 161h11v-47h-11v47zM519 192v41h11v-41h-11zM309 192v41h11v-41h-11z" />
    <glyph glyph-name="space" unicode=" " horiz-adv-x="225" 
 />
    </font>
</defs>
</svg>
